<?xml version="1.0" encoding="UTF-8"?>
<svg id="_レイヤー_2" data-name="レイヤー 2" xmlns="http://www.w3.org/2000/svg" viewBox="0 0 144.74 147.96">
  <defs>
    <style>
      .cls-1 {
        fill: #fff;
      }

      .cls-2 {
        fill: #003d7f;
      }

      .cls-3 {
        fill: #ffc000;
      }

      .cls-4 {
        fill: none;
        stroke: #003f82;
        stroke-linecap: round;
        stroke-miterlimit: 10;
        stroke-width: 3px;
      }
    </style>
  </defs>
  <g id="content">
    <g>
      <g>
        <line class="cls-4" x1="11.15" y1="109.74" x2="11.15" y2="80.09"/>
        <line class="cls-4" x1="20.81" y1="87.63" x2="11.37" y2="77.12"/>
        <line class="cls-4" x1="10.94" y1="77.05" x2="1.5" y2="87.56"/>
      </g>
      <g>
        <path class="cls-1" d="m40.06,147.95l-.05-.38-.15-.22-.56-.38-.02-.23-.03-.45-.11-.38-.1-.26-.43-.25-.06-.08-.37-.49-.02-.13-.04-.37-.25-.4v-.11s-.07-.56-.07-.56l.02-.08.06-.24-.32-.24-.04-.15-.11-.36-.42-.54.11-.25.16-.39-.07-.18-.31-.38-.03-.07-.23-.56.02-.13.05-.35-.17-.33v-.05s-.14-.47-.14-.47v-.02s-.09-.5-.09-.5v-.54s0-.03,0-.03l.05-.42-.04-.26-.36-.44v-.16s-.01-.33-.01-.33l-.39-.55.14-.27.22-.4v-.15l-.47-.47.06-.26.08-.34-.18-.5.08-.17.13-.31-.14-.37v-.11s.06-.49.06-.49v-.02s.09-.4.09-.4l-.03-.28-.27-.45-.02-.09-.09-.59.05-.12.18-.46.15-.4.03-.19-.47-.49.05-.24.09-.45.07-.46h0s.07-.38.07-.38l-.1-.56.09-.16.2-.34.02-.36v-.02s.07-.57.07-.57l.06-.09.21-.32v-.36s.02-.03.02-.03l.06-.35-.17-.62.15-.19.19-.24-.05-.26-.21-.78.23-.2.24-.2-.06-.36.06-.13.21-.48.03-.04.12-.16-.28-.56.17-.23.24-.34.09-.3v-.47s.07-.52.07-.52l.02-.05.18-.52.05-.06.3-.38.14-.19-.16-.52.1-.17.29-.55.14-.06.25-.12-.04-.31.04-.11.21-.62.16-.09.25-.14v-.25s0,0,0,0l.02-.65.07-.11.29-.43.03-.03.27-.26.16-.45.09-.08.19-.18-.04-.7.36-.11.3-.09.04-.39.16-.12.3-.24.14-.29.18-.61.17-.1.18-.1-.04-.5.13-.15.29-.34.34-.49.15-.05.31-.11.09-.26.28-.7.25-.05.32-.07.11-.28.04-.05.3-.4.02-.02.32-.31.31-.35.02-.02.28-.27.32-.57.23-.03.34-.05.22-.34.12-.06.26-.12.19-.5.19-.08.44-.18.27-.13.23-.46.15-.07.26-.12.12-.37.03-.05.3-.46.05-.05.34-.29.44-.42.16-.02.42-.06.21-.17.24-.32.31-.52.11-.06.51-.29h.11s.3-.02.3-.02l.15-.25.02-.03.35-.42.05-.04.47-.34.11-.02.47-.08.22-.08.22-.47.16-.07.5-.22h.07s.38-.05.38-.05l.17-.13.36-.77.39.1.37.1.05-.05v-.11s-.44-.33-.44-.33l-.04-.17-.11-.49v-.04s-.02-.41-.02-.41l-.13-.37-.21-.56.03-.14.06-.25-.38-.37.05-.26.08-.36-.15-.34v-.05s-.09-.42-.09-.42l-.17-.47v-.06s-.03-.29-.03-.29l-.48-.46.09-.28.08-.27-.3-.35.02-.2.05-.49.03-.25-.43-.37.02-.25.05-.5h0s.05-.37.05-.37l-.1-.2-.62-.5.09-.31.08-.26-.37-.4.09-.27.12-.35-.16-.33v-.07s-.07-.45-.07-.45l-.09-.43-.12-.47v-.03s-.07-.41-.07-.41l-.14-.34-.38-.57.07-.22.06-.18-.49-.32.06-.31.08-.45-.02-.31-.21-.37-.02-.04-.13-.4-.33-.6.1-.22.12-.26-.19-.2-.03-.05-.29-.52v-.11s-.04-.58-.04-.58l.04-.09.16-.42-.04-.22-.25-.34-.34-.58v-.15s.05-.49.05-.49l.03-.38-.13-.3-.29-.49v-.11s-.03-.4-.03-.4l-.17-.42v-.05s-.11-.56-.11-.56l.02-.1.1-.39-.08-.27-.3-.5v-.15s.05-.41.05-.41l-.08-.26-.44-.47.02-.22.03-.25-.43-.38.02-.24.03-.32-.36-.51.15-.26.2-.35-.12-.27v-.06s-.06-.31-.06-.31l-.55-.51.15-.32.09-.19-.33-.24-.04-.18-.09-.45-.12-.49v-.04s-.02-.35-.02-.35l-.33-.51.08-.22.13-.38-.07-.23-.29-.44-.02-.1-.09-.54.02-.08.07-.35-.17-.37v-.08s-.06-.42-.06-.42l-.15-.47v-.37s-.3-.32-.3-.32l-.03-.08-.21-.55v-.12s.07-.41.07-.41l-.09-.43v-.05s0-.44,0-.44l-.03-.23-.69-.5.22-.37.2-.35-.07-.15-.45-.57.1-.26.13-.34-.07-.14-.52-.4-.04-.17-.15-.65.11-.17.15-.23-.26-.26v-.68s0-.43,0-.43l-.06-.39-.14-.42v-.02s-.09-.32-.09-.32l-.41-.4-.03-.14-.08-.41-.25-.59.09-.2.15-.31-.2-.36.03-.17.08-.41-.03-.16-.78-.5.28-.41.11-.16-.53-.34.25-.4.24-.39-.03-.15-.41-.49.05-.23.06-.27-.28-.34v-.15s-.04-.31-.04-.31l-.39-.45.03-.21.07-.48.03-.33-.27-.47.06-.2.12-.37-.08-.25-.25-.4-.02-.04-.25-.6.06-.17.09-.27-.28-.38.03-.2.04-.24-.36-.35-.02-.17-.06-.5v-.03s.03-.56.03-.56l.03-.07.1-.25-.3-.36.04-.22.09-.43v-.19s-.64-.49-.64-.49l.18-.35.11-.21-.3-.3v-.2s.02-.38.02-.38l-.2-.53.07-.18.13-.29-.16-.29v-.07s-.13-.57-.13-.57l.04-.12.08-.25-.27-.34v-.14s-.06-.6-.06-.6l.07-.13.08-.15-.51-.39.15-.34.21-.48.09-.25-.27-.42.05-.2.11-.39-.03-.28-.3-.58.08-.2.13-.33-.08-.33h0s-.15-.66-.15-.66l.1-.17.19-.32-.02-.19-.45-.68.21-.27.26-.33v-.23s-.13-.46-.13-.46v-.07s-.02-.64-.02-.64l.11-.14.23-.29-.03-.44.08-.13.15-.25-.09-.32v-.03s-.11-.66-.11-.66l.09-.15.24-.39.09-.24-.24-.66.26-.21.26-.21-.03-.4.08-.13.12-.19-.33-.74.38-.21.22-.13-.13-.5.25-.19.18-.14-.15-.59.27-.19.35-.24.14-.27.12-.4.14-.68.19-.11.31-.17.16-.43.12-.08.29-.21.14-.33.32-.71.27-.03.48-.05.15-.12.2-.47.1-.08.39-.31.02-.02.26-.16.24-.6.24-.06.49-.12h0l.47-.11.28-.08.36-.54.29.03.35.04.29-.21.06-.02.48-.18h.05s.27-.04.27-.04l.36-.5.21-.02.47-.05.41-.06.47-.18h.08s.46-.03.46-.03l.46-.05h0l.64-.07.14.1.22.15.36-.24.22.06.39.11.5-.02.1.05.31.14.25-.03.8-.4.24.32.29.39.2.07.32-.02.83-.28.2.31.19.3.27.03h.02s.68.14.68.14l.11.19.11.19.64-.11.14.37.15.38.24.14.34.17.58.11.1.09.39.36.03.06.22.36.35.35.04.08.18.41.13.21.72.18v.35s.02.27.02.27l.51.23-.02.32-.02.34.3.25.04.14.11.42.16.35.17.27.49.31.06.13.25.55-.02.14-.03.23.48.31-.05.31-.06.34.21.3.02.07.15.51v.36l.41.4-.05.25-.04.2.48.32-.02.28-.04.51v.02s-.05.29-.05.29l.25.31.03.09.12.42.25.56-.05.17-.09.29.26.43-.06.21-.12.36.13.46-.05.15-.11.28.17.3.02.07.13.53v.08s-.07.48-.07.48h0s-.03.2-.03.2l.53.42-.06.29-.08.38.1.46-.02.1-.07.35.16.47-.05.14-.12.4.02.33.14.5-.02.1-.05.38.12.49-.03.11-.07.3.2.37v.1s.06.55.06.55l-.02.08-.08.28.31.51-.13.24-.2.36.02.33h0s.02.34.02.34l.34.53-.07.22-.15.46-.04.2.42.42-.03.23-.06.49h0s-.08.46-.08.46l-.03.48v.04s-.1.41-.1.41l.02.31.2.47v.56s.02.35.02.35l.28.51-.03.17-.1.53-.02.05-.09.22.38.5-.2.29-.17.25.16.29v.11s.03.53.03.53v.06s-.11.42-.11.42v.34l.19.53-.05.16-.08.25.36.52-.16.27-.1.16.41.41-.13.3-.19.43-.05.27.19.4v.09s.05.48.05.48v.56s-.01.07-.01.07l-.12.41v.24s.37.47.37.47l-.02.2-.07.6-.08.1-.14.2.26.33-.04.21-.07.38.07.38.11.61-.06.14-.15.33.06.28.22.62-.09.18-.12.27.2.38-.03.15-.06.41.05.51-.03.1-.09.27.23.39v.13s-.01.57-.01.57l-.04.09-.14.32.11.38v.08s-.04.42-.04.42l.06.47v.06s-.04.3-.04.3l.27.42v.13s.02.5.02.5v.03s-.04.37-.04.37l.14.4v.05s.09.59.09.59l-.05.12-.19.46-.1.31.12.38v.06l.02.45.03.36.32.65-.2.24-.27.32.04.3v.04s-.03.44-.03.44l.02.35.18.42v.04s.16.62.16.62l-.07.15-.13.29.17.41-.04.15-.09.36.07.32.24.64-.11.19-.17.3.13.42-.06.15-.12.32.09.31h0s.11.46.11.46l.2.65-.1.18-.13.21.18.28.02.09.13.59-.05.13-.12.35.08.41v.09s-.08.39-.08.39l.07.54-.07.13-.09.18.32.34v.18s.02.47.02.47h0s0,.59,0,.59l-.05.1-.14.26.19.39-.03.16-.09.42v.4s.03.37.03.37l.21.5-.02.12-.04.38.14.5-.04.13-.13.46-.12.47h0s-.08.27-.08.27l.31.49-.11.23-.08.17.46.47-.17.31-.13.24.23.4-.06.2-.14.47-.12.41v.27s.32.6.32.6l-.18.25-.24.33.02.16.4.58-.12.25-.17.34.05.36v.5s0,0,0,0l-.02.36.14.33.36.65-.12.23-.13.24.19.32v.11s.06.54.06.54l.41-.59.33.09.28.08.42-.3.22.06.5.14h0l.33.09.33-.15h.06s.34-.07.34-.07l.46-.36h.16s.47,0,.47,0h.49s.03,0,.03,0l.37.04.35-.13h0s.52-.18.52-.18h.65s.1.04.1.04l.41.2.23.03.45-.28.17.02.35.05.54-.22.19.11.24.13.29-.19.08-.02.54-.12h.08s.36.04.36.04l.46-.18h.11s.39.04.39.04l.64-.16.19.18.16.15.42-.38.31.23.34.24h.21s.4-.19.4-.19h.01s.57-.22.57-.22h.09s.52.02.52.02h.04s.38.1.38.1l.44-.06h.06s.55.06.55.06l.07.03.42.19.23.06.57-.36.26.17.39.26.16.04.53-.39.25.11.45.2.32.13.33-.06.59-.13.11.03.41.11h.37s.56-.05.56-.05l.11.05.49.19.04.03.22.14.43-.18.17.05.49.15.03.02.33.17h.43s.07.02.07.02l.32.1.55-.15.17.1.36.21.26.04.61-.18.19.13.33.21.41.05.05.02.3.11.61-.17.19.17.37.33.13.08-.14-.61.18-.18.19-.21-.17-.34.05-.18.11-.36-.06-.4v-.64s.08-.11.08-.11l.22-.35.02-.2-.27-.46v-.13s0-.44,0-.44l-.05-.56.05-.11.14-.34-.04-.38v-.04l.02-.54.02-.07.13-.37-.02-.5.05-.1.13-.27-.1-.27-.32-.75.2-.23.3-.34.03-.15-.33-.5.05-.2.1-.42v-.4s-.04-.58-.04-.58l.07-.13.18-.31-.06-.42.03-.1.12-.4v-.43l.02-.34-.28-.52.04-.17.11-.48v-.02s.12-.38.12-.38l-.03-.41v-.04s.03-.55.03-.55l.03-.07.14-.34-.04-.28-.27-.62.09-.2.19-.4.08-.46.02-.06.14-.3-.09-.38v-.41s-.35-.71-.35-.71l.27-.24.28-.25-.06-.26v-.48s-.08-.41-.08-.41l-.15-.58.03-.11.1-.47h0s.1-.38.1-.38l-.07-.49.03-.1.13-.43.06-.48.02-.05.08-.22-.42-.56.21-.28.15-.21-.23-.42.08-.2.18-.48v-.02s.12-.23.12-.23l-.35-.54.2-.26.14-.18-.29-.43.12-.24.2-.41.08-.37.02-.47v-.05s.1-.37.1-.37l-.06-.34-.2-.61.06-.16.17-.43.07-.32-.09-.4v-.03l-.05-.5v-.03l.02-.57.05-.09.13-.27-.22-.57.22-.22.28-.27-.03-.26v-.02l-.02-.49v-.02l.03-.53.02-.06.09-.27-.26-.51.1-.21.16-.36v-.43s.02-.07.02-.07l.11-.4.02-.4v-.49s0-.03,0-.03l.04-.34-.18-.46v-.1s.03-.42.03-.42l-.1-.66.17-.17.17-.17-.28-.44.2-.26.18-.24-.15-.44.1-.19.13-.25-.13-.3-.23-.8.23-.2.27-.24-.08-.34.05-.13.12-.34-.06-.33-.15-.59.04-.13.11-.34-.08-.38v-.03l-.05-.67.13-.15.29-.33.04-.3.02-.41-.06-.51.02-.08.08-.36-.07-.39h0s-.07-.59-.07-.59l.03-.1.07-.24-.42-.61.25-.28.27-.29v-.21s-.19-.58-.19-.58l.06-.15.18-.47h0s.12-.27.12-.27l-.2-.46.07-.19.18-.44.08-.24-.27-.48.07-.2.09-.28-.25-.6.2-.22.27-.31v-.28s0-.4,0-.4l-.18-.69.19-.19.15-.15-.27-.41.13-.25.13-.25-.21-.53.15-.21.25-.35.05-.22-.14-.38v-.02s-.17-.59-.17-.59l.02-.12.11-.51.02-.05.23-.48.02-.03.13-.19-.25-.44.1-.22.2-.45.14-.33-.05-.45.04-.1.12-.36-.03-.4v-.03s.02-.43.02-.43l-.06-.44-.09-.58.03-.1.13-.48v-.02s.13-.35.13-.35l-.06-.61.17-.16.32-.31.04-.14-.39-.74.34-.24.17-.11-.28-.49.23-.26.25-.27.04-.48.12-.13.26-.27.05-.31.07-.47h0s.1-.59.1-.59l.07-.09.16-.21-.16-.69.32-.18.36-.19.05-.17-.1-.79.31-.15.24-.12-.03-.37.08-.13.25-.43v-.02s.32-.41.32-.41l.03-.03.25-.23.1-.44.05-.07.3-.45.06-.04.4-.33.03-.02.24-.14.1-.59.26-.1.37-.14.24-.29.02-.02.32-.29.42-.5h.21s.2-.02.2-.02l.13-.63.37-.02h.28s.27-.5.27-.5h.62s.32-.32.32-.32l.15-.02.32-.06.32-.32.09-.04.5-.2h.06s.5-.08.5-.08h.02l.44-.02.39-.08.44-.15h.02s.53-.14.53-.14h.06s.47.01.47.01h.56s.08.03.08.03l.41.16.29.02.5-.2.13.02.43.08h.48s.05.01.05.01l.53.12.06.03.39.22.46.14.05.03.29.18h.33s.66-.06.66-.06l.14.1.42.29.02.02.34.29.23.13.69-.07.16.26.09.15.6-.17.2.25.34.44.02.04.09.18.64-.06.14.3.18.38.25.21.49.29.06.1.27.46.02.05.08.23.7.17-.02.39v.33s.23.16.23.16l.04.05.31.34.53.5-.05.25-.06.39.1.13.77.42-.12.38-.13.39.18.28.02.09.08.37.3.45v.15s-.01.32-.01.32l.28.35.02.12.07.42.13.33.37.51-.02.18-.03.41.14.55-.07.16-.15.3.17.32v.11s.02.43.02.43l.09.41.17.6-.06.15-.08.21.43.47-.14.3-.12.25.27.44-.09.22-.15.36.05.42v.07s-.11.51-.11.51v.04s-.08.2-.08.2l.55.6-.3.32-.26.27.05.19.22.55v.11s-.05.57-.05.57l-.05.09-.21.37-.06.3.04.39.1.61-.06.13-.21.44h0s-.15.29-.15.29l.11.54-.14.18-.14.18.18.35v.12l-.02.63-.1.13-.21.26.04.49-.14.16-.25.28v.26s.03.41.03.41l.14.59-.04.13-.14.47-.02.03-.22.49-.04.05-.14.17.27.56-.24.24-.21.2.1.41-.08.15-.23.46-.02.03-.2.28v.37s0,.05,0,.05l-.08.49v.03s-.16.49-.16.49l-.02.04-.15.3.05.43-.02.08-.1.42-.03.59-.11.13-.15.18.21.51-.16.22-.21.29v.48s-.1.12-.1.12l-.21.27v.35s0,.03,0,.03l-.05.41.06.47v.02s.01.72.01.72l-.17.15-.36.3-.12.29-.08.34.04.46v.04s-.06.51-.06.51v.04s-.13.42-.13.42l-.09.57-.09.11-.23.27v.46s-.09.12-.09.12l-.19.27.03.25.29.75-.2.22-.27.29-.06.42-.06.08-.2.33-.04.32.04.67-.16.15-.13.11.26.42-.06.2-.18.62-.15.1-.3.2.02.2.12.73-.18.17-.28.27-.06.34v.03s-.11.35-.11.35l.08.52-.04.12-.18.5-.04.05-.2.3-.02.39v.05s-.12.44-.12.44l-.09.49v.04s-.21.5-.21.5l-.03.05-.15.21.21.59-.23.21-.25.24v.34s-.02.05-.02.05l-.1.39v.62s-.14.14-.14.14l-.22.21.06.35-.02.08-.11.52-.03.05-.15.3.05.45-.02.09-.11.41-.04.6-.12.13-.21.21.07.43-.08.14-.18.33-.03.38h0s-.08.62-.08.62l-.1.11-.25.28-.04.28v.49s0,.05,0,.05l-.11.56-.06.09-.18.25.06.38v.06s-.07.64-.07.64l-.13.12-.22.22.04.37-.04.1-.12.34.04.48-.03.09-.18.55-.08.08-.3.31-.07.2.2.7-.29.19-.16.11.16.32-.03.16-.09.47v.02s-.18.63-.18.63l-.17.1-.29.17.03.3-.04.1-.16.45h0s-.16.39-.16.39l-.07.39-.06.57-.07.1-.26.38-.14.3v.37s0,.51,0,.51v.03s-.06.5-.06.5v.03s-.15.5-.15.5l-.02.04-.21.41-.12.29.1.65-.22.17-.34.27-.05.16.17.53-.05.15-.17.51-.04.06-.25.35-.09.26.1.56-.1.15-.17.27.05.5-.09.14-.15.23.13.53-.12.18-.26.37-.11.23.19.71-.33.18-.16.09.31.56-.41.23-.41.23-.03.1.22.5-.02.13-.11.65-.15.12-.3.23-.02.13.33.78-.32.22-.22.15.1.36-.07.15-.2.46-.02.03-.26.43v.02s-.26.33-.26.33l-.1.31-.04.51-.05.09-.17.32v.33s.03.26.03.26l.18.17.32.25.29.15.47.05.05.02.51.17.05.03.45.3.05.06.34.43.02.05.1.2.61-.03.12.33.1.26.28.04.77.23.06.27.08.37.32.16.07.09.27.36.14.15.78-.06.12.35.12.35.3.18.04.04.37.36.03.05.2.33.28.19.42.21h.02s.39.25.39.25l.6.33.05.21.06.27.49.15.06.26.08.31.45.23.05.23.05.23.53.12.08.27.12.39.14.16.61.16.1.19.23.45v.03s.09.24.09.24l.62.2.02.33v.32s.25.14.25.14l.03.02.38.32h.01s.4.4.4.4l.04.08.23.52v.1s0,.4,0,.4l.09.11.77.2.03.33.04.51.07.32.3.31.04.1.08.21.53.15.1.13.34.46.02.1.11.49h0s.07.47.07.47l.11.35.24.34v.03s.23.4.23.4l.23.38.31.48v.11s.05.32.05.32l.26.26.03.04.23.35.49.47-.03.23-.03.25.52.37-.14.35-.13.34.15.18v.02s.3.43.3.43l.02.04.16.39.26.39.02.04.2.45v.02s.19.56.19.56l-.02.12-.06.35.2.35v.11s.04.33.04.33l.34.46-.04.21-.05.25.37.35v.22s-.03.32-.03.32l.36.5-.11.25-.1.21.4.36-.1.29-.13.41.03.37h0l.02.32.39.5-.07.23-.11.36.13.45-.03.13-.05.19.4.34.02.18.08.66-.13.16-.16.19.32.38-.15.28-.13.25.23.45-.11.21-.14.3.08.26.27.61-.06.18-.12.36.07.52-.08.14-.19.32.03.3.08.53v.07s-.1.52-.1.52l-.03.05-.18.41-.05.2.48.69-.32.28-.18.16.18.36-.06.19-.14.42-.11.5-.04.07-.22.37-.1.33-.02.34.17.71-.2.19-.24.23.02.43-.09.13-.14.2.2.61-.22.21-.29.28-.09.3-.1.52-.04.07-.26.44-.03.04-.26.29-.12.37v.02s-.2.43-.2.43h0s-.15.31-.15.31l.03.5-.04.1-.18.44h0s-.19.42-.19.42l-.23.58-.15.08-.22.13v.25h3.34l.05-.11c.04-.09.09-.17.12-.26l.2-.5c.14-.33.22-.69.22-1.05l.03-.07c.02-.05.05-.1.07-.15.08-.1.16-.21.23-.33l.3-.51c.15-.26.27-.53.34-.83.56-.6.83-1.4.76-2.21.4-.63.55-1.41.39-2.16.09-.19.16-.39.2-.6l.23-.81c.03-.09.06-.19.08-.29.45-.78.51-1.74.16-2.58l.05-.32c.05-.26.05-.52.03-.78.15-.39.2-.82.17-1.24.17-.57.16-1.17-.02-1.72.04-.27.05-.55.02-.82.08-.38.09-.77.02-1.15.01-.19,0-.38-.01-.57l-.11-.88c-.04-.31-.13-.61-.26-.88.08-.58,0-1.16-.26-1.69.13-.56.08-1.15-.12-1.67-.03-.4-.14-.8-.34-1.16-.04-.36-.15-.7-.32-1.02-.07-.35-.2-.69-.39-.99-.01-.06-.03-.11-.04-.17,0-.31-.05-.61-.14-.91l-.18-.56c-.03-.09-.07-.2-.11-.28l-.2-.45c-.07-.17-.16-.34-.27-.49l-.13-.23c.07-.75-.15-1.5-.62-2.08-.15-.43-.4-.83-.74-1.15l-.26-.25-.02-.03c-.08-.26-.19-.51-.34-.74l-.69-1.17s-.04-.07-.07-.11v-.05c-.02-.05-.03-.11-.04-.16l-.14-.63c-.09-.4-.27-.77-.51-1.1l-.44-.59c-.15-.2-.32-.37-.51-.52-.1-.87-.59-1.62-1.29-2.09l-.09-.19c-.15-.33-.36-.63-.62-.88l-.33-.32c-.21-.67-.66-1.25-1.26-1.62h0c-.24-.46-.59-.82-1.01-1.09-.22-.37-.52-.68-.87-.92-.07-.09-.16-.18-.24-.26-.19-.39-.47-.73-.81-.99-.26-.37-.6-.68-1-.9l-.8-.46c-.07-.05-.15-.1-.23-.14-.08-.1-.17-.2-.26-.29l-.27-.26c-.34-.86-1.05-1.49-1.91-1.74-.35-.61-.92-1.08-1.6-1.31-.34-.39-.77-.68-1.25-.85-.14-.14-.3-.27-.47-.39l-.34-.22.24-.55s.02-.04.03-.07c.49-.6.73-1.38.65-2.15.05-.16.1-.32.12-.49l.06-.37c.43-.48.68-1.1.73-1.73.15-.39.21-.81.18-1.23.22-.44.32-.93.3-1.42.05-.19.09-.39.1-.59.14-.34.22-.71.22-1.08.05-.11.1-.23.14-.35l.22-.69c.04-.13.07-.26.09-.39.35-.53.52-1.16.48-1.8.06-.13.11-.27.15-.41l.15-.54c.04-.14.06-.28.08-.42l.07-.6c0-.09.01-.18.01-.27v-.07c.26-.39.42-.84.46-1.31l.04-.44.02-.06s.04-.1.06-.14l.07-.18c.3-.33.52-.73.64-1.17l.2-.73s.02-.11.03-.15l.06-.33c.27-.47.41-1.01.4-1.56.05-.1.09-.21.12-.32l.21-.65c.1-.31.15-.64.13-.97,0-.02,0-.03.01-.05.22-.37.36-.78.4-1.21l.06-.64s0,0,0-.01c.06-.16.11-.33.14-.5l.1-.54c.02-.09.03-.19.05-.28.2-.34.33-.72.38-1.12l.06-.49s0,0,0,0c.14-.26.23-.54.28-.82.17-.34.27-.72.3-1.1l.05-.43s.04-.15.05-.19c.05-.22.08-.44.08-.66.02-.08.04-.16.06-.24l.08-.41c.26-.44.4-.95.4-1.48v-.07c.46-.6.67-1.36.58-2.1h0c.06-.17.11-.33.14-.5l.16-.72c.02-.08.04-.15.06-.23.05-.11.1-.21.14-.33l.23-.63c.11-.31.17-.63.17-.95.34-.47.53-1.03.55-1.61.08-.16.14-.32.19-.49l.24-.8c.11-.35.14-.7.12-1.06.03-.21.05-.42.03-.63v-.02c.04-.09.07-.17.11-.27.62-.73.84-1.73.59-2.65.18-.31.3-.66.36-1.02l.13-.62c.03-.12.07-.28.09-.4,0-.05.01-.1.02-.16l.04-.43s0-.04,0-.05c.47-.54.73-1.24.72-1.96v-.72c-.01-.1-.02-.23-.04-.34.12-.24.21-.5.26-.76.33-.54.48-1.16.42-1.77.03-.14.05-.28.05-.43l.05-.49s.03-.14.04-.17c.03-.17.05-.33.06-.5l.14-.45c.05-.14.08-.29.11-.44l.08-.49s0-.02,0-.03l.23-.47c.1-.2.18-.41.23-.62.34-.55.49-1.21.42-1.85.02-.05.03-.09.05-.14l.16-.52c.15-.46.19-.95.11-1.42.12-.26.19-.53.23-.81.18-.37.28-.78.29-1.2l.02-.63s0-.1,0-.15c.07-.27.11-.56.1-.84l.05-.11c.24-.52.32-1.1.22-1.67l-.02-.14c.13-.3.21-.62.23-.94l.05-.71c0-.09,0-.18,0-.27.41-.84.38-1.84-.07-2.67.18-.48.22-1,.14-1.49.11-.64,0-1.29-.29-1.87-.02-.09-.04-.18-.06-.26l-.14-.5-.03-.36s0-.05,0-.08c.09-.43.08-.87-.03-1.29l-.02-.08v-.06c.08-.71-.12-1.43-.54-2.01l-.07-.15c-.05-.29-.14-.56-.27-.82-.06-.33-.17-.65-.33-.95.18-.98-.16-1.98-.87-2.65-.15-.45-.41-.86-.77-1.2l-.23-.21c-.18-.87-.75-1.62-1.55-2.03-.23-.35-.54-.65-.89-.88-.35-.72-.98-1.24-1.7-1.48-.47-.54-1.12-.88-1.82-.97-.33-.15-.68-.24-1.05-.27l-.37-.25c-.56-.38-1.23-.56-1.9-.5h-.09s-.1-.03-.15-.04l-.35-.15c-.24-.13-.51-.23-.78-.29l-.64-.14c-.18-.03-.36-.05-.54-.05l-.52-.06c-.38-.07-.77-.07-1.14.01-.23-.05-.49-.09-.69-.08h-.48s-.43,0-.43,0c-.3-.02-.59.01-.87.08l-.55.14c-.08.02-.15.04-.22.07l-.25.08h-.12c-.14,0-.27.01-.41.03l-.63.09c-.21.04-.42.09-.62.18l-.5.2s-.15.06-.18.08c-.18.08-.35.18-.52.3-.17.05-.33.12-.48.21-.52.08-1.01.3-1.41.64-.65.22-1.21.67-1.56,1.26-.09.09-.18.18-.27.28l-.44.48c-.76.29-1.36.89-1.66,1.63-.21.18-.39.38-.55.61l-.3.45s-.07.11-.09.13c-.11.17-.2.35-.27.55l-.28.37c-.06.09-.14.2-.19.29l-.31.52c-.47.43-.79,1-.9,1.62-.5.6-.75,1.38-.66,2.18-.02.06-.03.13-.04.19l-.09.54c-.2.27-.35.58-.44.9-.34.43-.55.94-.61,1.47-.22.48-.3,1.02-.23,1.55-.14.4-.2.83-.16,1.27l-.13.49c-.11.4-.14.82-.07,1.23l.1.7v.11c-.01.08-.01.16-.01.25-.08.26-.12.52-.12.79l-.13.29c-.21.45-.29.94-.25,1.42-.04.11-.07.23-.1.35l-.11.51s-.04.19-.04.22c-.07.4-.06.8.03,1.2-.2.47-.26.99-.19,1.5-.06.25-.08.5-.07.75-.08.38-.09.77-.02,1.16-.35.66-.43,1.44-.23,2.16-.03.28-.01.56.04.83-.11.37-.14.76-.09,1.14-.13.33-.19.68-.19,1.04-.44.84-.44,1.87.02,2.72l.06.49c-.04.23-.05.46-.04.69-.32.52-.47,1.13-.42,1.75l.05.58s0,.03,0,.05c-.1.43-.11.87-.01,1.31-.43.69-.56,1.55-.33,2.36l.06.21c-.02.1-.03.21-.04.31-.17.41-.25.86-.22,1.3-.08.34-.09.7-.03,1.06l.06.37v.17c-.03.37.01.74.12,1.09v.36s-.05.18-.05.18c-.05.18-.08.36-.09.54-.31.67-.35,1.42-.13,2.11v.2c-.42.64-.56,1.42-.41,2.16-.01.09-.02.18-.02.27l-.02.68c0,.11,0,.21.02.31l.04.4s0,0,0,.01l-.03.07c-.24.63-.26,1.33-.05,1.97l.04.11c0,.07-.01.15-.02.22l-.13.34c-.23.49-.32,1.02-.28,1.53-.09.42-.09.86.01,1.28-.08.28-.12.57-.11.86-.19.63-.17,1.31.08,1.92-.1.36-.13.73-.08,1.1l-.1.46c-.11.46-.1.94.02,1.4v.05c-.45.82-.49,1.85-.05,2.73l.02.04s0,0,0,0l-.13.3c-.33.69-.38,1.49-.13,2.21,0,.07-.01.14-.02.21l-.03.56c0,.09,0,.19,0,.28,0,.02,0,.03-.01.05l-.15.66c-.13.58-.09,1.17.13,1.72-.05.18-.08.37-.09.56-.15.41-.21.85-.17,1.29l.03.37-.07.28c-.07.28-.09.56-.08.85-.28.7-.27,1.5.04,2.22v.02c0,.09,0,.18,0,.28-.08.25-.12.5-.14.76l-.02.54s0,.03,0,.06c-.13.39-.18.8-.14,1.22l.04.41v.4c0,.08,0,.17,0,.25-.08,0-.17,0-.25.02-.5-.19-1.04-.24-1.56-.14-.06,0-.11-.01-.17-.02-.06-.02-.12-.04-.18-.06l-.64-.2c-.34-.11-.68-.15-1.04-.14h-.02c-.47-.21-.98-.28-1.48-.21l-.21.03-.12-.03c-.45-.13-.92-.14-1.38-.04l-.15-.07c-.53-.24-1.11-.31-1.67-.21-.55-.17-1.13-.17-1.67,0-.07-.01-.14-.02-.21-.03l-.62-.06c-.19-.02-.38-.02-.58,0-.14-.03-.29-.04-.43-.05l-.58-.02c-.33-.02-.66.02-.98.12-.51-.19-1.07-.23-1.59-.12-.3-.02-.59,0-.89.08l-.16.04h0c-.39-.04-.79,0-1.16.13-.22,0-.43.02-.64.07l-.25.06c-.45-.07-.93-.03-1.37.12-.25,0-.5.01-.74.06-.21-.04-.43-.06-.63-.06h-.6c-.32.01-.63.06-.93.16l-.35.12s-.04,0-.06,0l-1.1.02c-.34,0-.67.07-.99.19.07-.38.06-.78-.03-1.16.12-.53.1-1.1-.09-1.63l.05-.16c.11-.36.14-.73.1-1.1.16-.68.07-1.39-.24-2-.02-.12-.05-.25-.08-.37l.05-.2c.15-.51.15-1.05.01-1.57.04-.45-.03-.91-.2-1.33l.03-.15c.07-.32.08-.65.04-.98.02-.13.03-.27.02-.41l-.03-1.3c-.01-.34-.08-.66-.2-.97v-.06c0-.06.01-.17.02-.21.02-.17.02-.34.02-.5.11-.45.12-.92.02-1.37l-.06-.29c.06-.42.03-.85-.09-1.27l-.15-.5c.03-.18.05-.36.05-.54.21-.63.2-1.31-.04-1.95l-.02-.06c.03-.23.03-.47,0-.71.08-.4.06-.82-.03-1.23l-.14-.56c-.01-.05-.02-.1-.04-.15.44-.82.46-1.81.04-2.66l-.07-.24s0-.08,0-.13c.2-.48.28-1.01.21-1.53l-.08-.62c-.02-.14-.04-.28-.08-.42,0-.05,0-.09,0-.14l-.03-.64c-.02-.38-.11-.74-.26-1.08l-.02-.12v-.08c.03-.16.03-.32.02-.48.04-.2.07-.4.07-.6v-.69c.02-.29-.02-.57-.09-.85,0-.09,0-.18-.01-.26l-.02-.17.02-.13c.05-.29.05-.58.01-.86.07-.43.04-.87-.09-1.29.06-.35.06-.7,0-1.05l-.09-.48v-.05c.07-.33.07-.66.02-.99l.08-.67c.05-.49-.02-.99-.21-1.43,0-.05,0-.09,0-.14v-.49c-.01-.09-.02-.19-.03-.28l-.05-.48s0-.09-.01-.14c.25-.65.26-1.35.05-1.99-.01-.37-.09-.75-.25-1.09-.02-.2-.06-.39-.11-.59.04-.21.05-.43.04-.64v-.28c.24-.66.25-1.38.02-2.04.1-.61,0-1.23-.26-1.78v-.12c0-.3-.05-.6-.14-.89,0-.06.01-.12.02-.18l.05-.46c.02-.1.04-.2.05-.29l.09-.73c.05-.45,0-.91-.16-1.32.04-.43,0-.87-.16-1.28.18-.63.15-1.3-.09-1.91,0-.01,0-.02,0-.03l-.05-.63c-.01-.18-.04-.35-.09-.52,0-.22-.02-.45-.07-.66.04-.33.02-.67-.06-.99.11-.45.12-.93.01-1.38.02-.24.01-.48-.03-.72l.02-.08c.15-.75,0-1.51-.4-2.14-.01-.1-.03-.2-.05-.3l-.09-.37c.02-.22.02-.44-.01-.66.11-.5.1-1.01-.05-1.5,0-.42-.08-.85-.25-1.24l-.23-.58s-.04-.13-.04-.14c0-.03-.02-.06-.03-.08l.02-.23c.06-.7-.14-1.38-.53-1.93-.1-.29-.24-.56-.42-.81l-.11-.39c.05-.75-.2-1.48-.67-2.05,0,0,0-.02-.01-.03l-.28-.62c-.19-.43-.48-.82-.84-1.11-.05-.17-.11-.33-.18-.48-.07-.6-.33-1.16-.72-1.6-.27-.67-.78-1.22-1.44-1.54-.08-.11-.17-.21-.26-.31l-.19-.23c-.15-.24-.32-.45-.53-.64l-.47-.43c-.28-.26-.61-.46-.97-.6-.46-.72-1.2-1.2-2.04-1.33-.18-.09-.36-.15-.55-.2-.61-.62-1.46-.94-2.33-.87-.82-.56-1.89-.67-2.83-.25-.12-.01-.24-.01-.37-.01h-.04s-.19-.05-.19-.05c-.37-.1-.75-.13-1.12-.08-.23-.03-.47-.03-.7,0l-1.49.14c-.3.02-.6.08-.88.19l-.82.14c-.67.08-1.29.38-1.76.85h-.03c-.8-.02-1.58.32-2.14.9l-.45.11c-.83.21-1.52.78-1.89,1.54l-.21.17c-.07.06-.14.12-.21.18-.76.25-1.39.82-1.73,1.57l-.16.36c-.19.17-.35.36-.49.57-.56.43-.94,1.04-1.08,1.74l-.02.12c-.57.48-.93,1.16-1.02,1.88-.05.1-.09.2-.12.3-.5.63-.73,1.44-.61,2.25-.32.55-.45,1.19-.37,1.83-.19.48-.25,1-.17,1.52l.03.2c-.02.08-.04.16-.05.23-.24.44-.36.94-.35,1.45v.58c-.38.75-.43,1.64-.12,2.42-.03.32-.01.64.06.96l.04.16c-.15.58-.11,1.2.11,1.76-.04.27-.04.54,0,.8-.35.87-.25,1.83.21,2.6,0,.02.01.14.01.14.02.25.07.49.15.72.01.11.02.21.05.32l.07.37c-.08.49-.03,1,.15,1.48,0,.18,0,.36.03.54-.11.73.07,1.49.5,2.1.02.2.07.39.13.58v.17c-.02.17-.02.34,0,.51l.06.61c.03.4.15.78.34,1.13.02.1.05.19.08.29,0,.37.08.73.23,1.07l.2.48c-.03.42.03.85.17,1.24v.09c-.11.74.07,1.49.5,2.09.02.07.04.13.06.2,0,.16.03.33.06.49-.16.57-.15,1.17.04,1.73,0,.19.02.37.06.56.09.47.3.9.6,1.26-.05.48.03.97.22,1.42l.19.58c.1.49.32.94.64,1.32v.76c-.01.11,0,.22,0,.33-.04.32-.02.65.05.97l.21.89c.06.25.16.49.28.71.02.21.07.42.13.63-.16.88.09,1.8.7,2.48-.03.43.03.87.18,1.28l.24.63c.06.16.14.32.23.47,0,.03.01.05.02.08l.07.31s.02.15.02.18c.01.11.04.22.06.32,0,.18,0,.35.03.53l.11.68c.03.16.07.32.12.47-.07.62.07,1.26.39,1.81,0,.03.01.07.02.1l.22.99s.02.1.03.15c0,.54.13,1.07.41,1.53-.05.54.05,1.09.3,1.59.04.49.2.95.47,1.36.08.3.21.59.38.85.03.31.12.61.24.89,0,.19.01.38.04.56l.12.69c.03.17.08.34.15.5,0,.04,0,.09,0,.1.04.41.16.8.35,1.16v.2c-.06.58.08,1.17.38,1.67l.04.06c0,.1,0,.21,0,.31l.04.63c.02.39.12.77.28,1.13,0,.49.13.98.37,1.41l.19.34.04.13s.01.05.02.07c-.14.78.04,1.57.48,2.19.08.23.19.46.33.67l.14.21c.01.09.03.18.06.27l.2.98s0,.01,0,.02c-.12.56-.07,1.13.13,1.65.02.6.22,1.19.59,1.68-.01.49.1.98.33,1.41,0,.28.05.55.13.82-.01.72.24,1.43.72,1.98l.08.26s.01.08.02.13c-.09.63.03,1.26.33,1.8.02.1.05.2.08.3-.29.14-.55.32-.77.54-.25.09-.48.21-.7.37l-.47.34s-.1.08-.13.1c-.16.12-.31.26-.44.42-.04.02-.08.04-.12.06l-.61.34c-.41.23-.76.55-1.02.94-.35.14-.67.35-.94.61l-.63.58s-.1.09-.12.11c-.18.17-.35.35-.48.56l-.27.41c-.15.12-.29.26-.41.41-.53.22-.99.6-1.3,1.07-.63.24-1.16.7-1.49,1.3l-.1.19c-.05.05-.11.11-.16.17l-.39.42c-.14.13-.27.26-.39.41v.02c-.62.31-1.11.82-1.39,1.46-.21.17-.39.37-.54.59l-.54.7c-.29.32-.49.7-.62,1.11-.12.2-.22.42-.29.65-.07.07-.13.13-.2.2-.81.48-1.34,1.34-1.41,2.29,0,.01-.01.03-.02.04-.07.08-.13.17-.19.26l-.36.54c-.24.36-.4.76-.46,1.18-.13.2-.24.42-.31.65l-.12.35c-.1.13-.2.28-.28.43l-.36.69c-.2.37-.32.77-.35,1.18-.07.13-.13.26-.18.4l-.18.52c-.08.22-.14.44-.16.67l-.07.55c-.42.61-.59,1.34-.5,2.05-.5.66-.69,1.51-.52,2.34-.15.48-.18.99-.07,1.5-.11.25-.18.52-.22.8l-.05.41c-.32.58-.43,1.26-.31,1.92v.03s-.16.97-.16.97c-.1.51-.06,1.04.1,1.52-.1.38-.12.77-.06,1.16l.09.59s.03.18.04.23c.03.17.08.33.14.49l-.04.44c-.01.15-.01.3,0,.45-.1.42-.1.86,0,1.28-.07.45-.04.91.1,1.34-.09.67.05,1.36.42,1.95.05.3.16.6.3.87v.3c0,.16.02.33.05.49l.09.51c.01.09.03.17.05.26l.13.5s.01.04.01.06c0,.4.07.79.23,1.16l.16.38c-.08.75.12,1.51.6,2.12l.08.1c.05.15.1.3.17.44l.03.29c.04.37.16.72.33,1.05.08.46.26.89.54,1.26l.37.49s.08.1.09.12c.03.04.06.08.1.12.03.22.08.43.16.64h3.5,0Z"/>
        <path class="cls-3" d="m141.82,132.36l-.27-.61-.08-.26.14-.3.11-.21-.23-.45.13-.25.15-.28-.32-.38.16-.19.13-.16-.08-.66-.02-.18-.4-.34.05-.19.03-.13-.13-.45.11-.36.07-.23-.39-.5-.02-.32h0l-.03-.37.13-.41.1-.29-.4-.36.1-.21.11-.25-.36-.5.02-.32v-.22s-.36-.35-.36-.35l.05-.25.04-.21-.34-.46-.03-.33v-.1s-.21-.35-.21-.35l.06-.35.02-.12-.18-.56v-.02s-.2-.45-.2-.45l-.02-.04-.26-.39-.16-.39-.02-.04-.29-.43v-.02s-.16-.18-.16-.18l.13-.34.14-.35-.52-.37.03-.25.03-.23-.49-.47-.23-.35-.03-.04-.26-.26-.04-.32v-.11s-.32-.48-.32-.48l-.23-.38-.22-.4v-.03s-.26-.34-.26-.34l-.11-.35-.07-.46h0s-.11-.5-.11-.5l-.02-.1-.34-.46-.1-.13-.53-.15-.08-.21-.04-.1-.3-.31-.07-.32-.04-.51-.03-.33-.77-.2-.09-.11v-.4s0-.1,0-.1l-.23-.52-.04-.08-.4-.39h-.01s-.38-.33-.38-.33l-.03-.02-.23-.14v-.32s-.03-.33-.03-.33l-.62-.2-.08-.24v-.03s-.25-.45-.25-.45l-.1-.19-.61-.16-.14-.16-.12-.39-.08-.27-.53-.12-.05-.23-.05-.23-.45-.23-.08-.31-.06-.26-.49-.15-.06-.27-.05-.21-.6-.33-.39-.24h-.02s-.42-.22-.42-.22l-.28-.19-.2-.33-.03-.05-.37-.36-.04-.04-.3-.18-.12-.35-.12-.35-.78.06-.14-.15-.27-.36-.07-.09-.32-.16-.08-.37-.06-.27-.77-.23-.28-.04-.1-.26-.12-.33-.61.03-.1-.2-.02-.05-.34-.43-.05-.06-.45-.3-.05-.03-.51-.17-.05-.02-.47-.05-.29-.15-.32-.25-.18-.17-.03-.26v-.33s.17-.32.17-.32l.05-.09.04-.51.1-.31.25-.33v-.02s.27-.43.27-.43l.02-.03.2-.46.07-.15-.1-.36.22-.15.32-.22-.33-.78.02-.13.3-.23.15-.12.11-.65.02-.13-.22-.5.03-.1.41-.23.41-.23-.31-.56.16-.09.33-.18-.19-.71.11-.23.26-.37.12-.18-.13-.53.15-.23.09-.14-.05-.5.17-.27.1-.15-.1-.56.09-.26.25-.35.04-.06.17-.51.05-.15-.17-.53.05-.16.34-.27.22-.17-.1-.65.12-.29.21-.41.02-.04.14-.5v-.03s.07-.5.07-.5v-.03s0-.51,0-.51v-.37s.15-.3.15-.3l.26-.38.07-.1.06-.57.07-.39.16-.38h0s.16-.46.16-.46l.04-.1-.03-.3.29-.17.17-.1.17-.63v-.02s.09-.47.09-.47l.03-.16-.16-.32.16-.11.29-.19-.2-.7.07-.2.3-.31.08-.08.18-.55.03-.09-.04-.48.12-.34.04-.1-.04-.37.22-.22.13-.12.06-.64v-.06s-.05-.38-.05-.38l.18-.25.06-.08.11-.56v-.05s0-.49,0-.49l.04-.28.25-.28.1-.11.08-.61h0s.03-.39.03-.39l.18-.33.08-.14-.07-.43.21-.21.12-.13.04-.6.11-.41.02-.09-.05-.45.15-.3.03-.05.11-.52.02-.08-.06-.35.22-.21.14-.14v-.62s.1-.39.1-.39l.02-.05v-.34s.26-.24.26-.24l.23-.21-.21-.59.15-.21.03-.05.19-.5v-.04s.11-.49.11-.49l.11-.44v-.05s.03-.39.03-.39l.2-.31.04-.05.18-.5.04-.12-.08-.52.1-.35v-.03s.07-.34.07-.34l.28-.27.18-.17-.12-.73-.02-.2.3-.2.15-.1.18-.62.06-.2-.26-.42.13-.11.16-.15-.04-.67.04-.32.2-.33.06-.08.06-.42.27-.29.2-.22-.29-.75-.03-.25.19-.27.09-.12v-.46s.24-.27.24-.27l.09-.11.09-.57.12-.42v-.04s.06-.51.06-.51v-.04s-.04-.46-.04-.46l.08-.34.12-.29.36-.3.17-.15v-.72s-.01-.02-.01-.02l-.06-.47.05-.41v-.03s0-.35,0-.35l.21-.27.09-.12v-.48s.22-.29.22-.29l.16-.22-.21-.51.15-.18.11-.13.03-.59.1-.42.02-.08-.05-.43.15-.3.02-.04.15-.49v-.03s.09-.49.09-.49v-.05s0-.37,0-.37l.2-.29.02-.03.23-.46.08-.15-.1-.41.21-.2.24-.24-.27-.56.14-.17.04-.05.22-.49.02-.03.14-.47.04-.13-.14-.59-.04-.41v-.26s.26-.28.26-.28l.14-.16-.04-.49.21-.26.1-.13.02-.63v-.12l-.18-.35.14-.18.14-.18-.11-.54.15-.28h0s.21-.45.21-.45l.06-.13-.1-.61-.04-.39.06-.3.21-.37.05-.09.04-.57v-.11s-.21-.55-.21-.55l-.05-.19.26-.27.3-.32-.55-.6.07-.2v-.04s.11-.51.11-.51v-.07s-.04-.42-.04-.42l.15-.36.09-.22-.27-.44.12-.25.14-.3-.43-.47.08-.21.06-.15-.17-.6-.09-.41-.02-.43v-.11s-.18-.32-.18-.32l.15-.3.07-.16-.14-.55.03-.41.02-.18-.37-.51-.13-.33-.07-.42-.02-.12-.28-.35v-.32s.01-.15.01-.15l-.3-.45-.08-.37-.02-.09-.18-.28.13-.39.12-.38-.77-.42-.1-.13.06-.39.05-.25-.53-.5-.31-.34-.04-.05-.24-.16v-.33s.03-.39.03-.39l-.7-.17-.08-.23-.02-.05-.27-.46-.06-.1-.49-.29-.25-.21-.18-.38-.14-.3-.64.06-.09-.18-.02-.04-.34-.44-.2-.25-.6.17-.09-.15-.16-.26-.69.07-.23-.13-.34-.29-.02-.02-.42-.29-.14-.1-.66.06h-.33s-.29-.18-.29-.18l-.05-.03-.46-.14-.39-.22-.06-.03-.53-.12h-.05s-.48-.01-.48-.01l-.43-.08-.13-.02-.5.2-.29-.02-.41-.16-.08-.03h-.56s-.47,0-.47,0h-.06s-.53.13-.53.13h-.02s-.44.15-.44.15l-.39.08-.44.02h-.02l-.5.07h-.06s-.5.21-.5.21l-.09.04-.32.32-.32.06-.15.02-.32.31h-.34s-.28,0-.28,0l-.27.49h-.28s-.37.03-.37.03l-.13.63h-.2s-.21.02-.21.02l-.42.5-.32.29-.02.02-.24.29-.37.14-.26.1-.1.59-.24.14-.03.02-.4.33-.06.04-.3.45-.05.07-.1.44-.25.23-.03.03-.31.41v.02s-.27.43-.27.43l-.08.13.03.37-.24.12-.31.15.1.79-.05.17-.36.19-.32.18.16.69-.16.21-.07.09-.1.58h0s-.07.47-.07.47l-.05.31-.26.27-.12.13-.04.48-.25.27-.23.26.28.49-.17.11-.34.24.39.74-.04.14-.32.31-.17.16.06.61-.12.35v.02s-.13.48-.13.48l-.03.1.09.58.06.44-.02.43v.03s.03.4.03.4l-.12.36-.04.1.05.45-.14.33-.2.45-.1.22.25.44-.13.19-.02.03-.23.48-.02.05-.11.51-.02.12.16.59v.02s.15.38.15.38l-.05.22-.25.35-.15.21.21.53-.13.25-.13.25.27.41-.15.15-.19.19.18.69.02.4v.28s-.28.31-.28.31l-.2.22.25.6-.09.28-.07.2.27.48-.08.24-.18.44-.07.19.2.46-.12.26h0s-.18.49-.18.49l-.06.15.18.58v.21s-.25.29-.25.29l-.25.28.42.62-.07.24-.03.1.07.58h0s.07.41.07.41l-.08.36-.02.08.06.51-.02.41-.04.3-.29.33-.13.15.05.67v.03l.08.38-.11.34-.04.13.15.59.06.33-.12.34-.05.13.08.34-.27.24-.23.2.23.8.13.3-.13.25-.1.19.15.44-.18.24-.2.26.28.44-.17.17-.17.17.1.66-.02.42v.1s.17.46.17.46l-.04.34v.03s0,.49,0,.49l-.02.4-.11.4-.02.07v.43s-.16.36-.16.36l-.1.21.26.51-.09.27-.02.06-.03.53v.02l.02.49v.02l.03.26-.28.27-.22.22.22.57-.13.27-.05.09-.02.57v.03l.05.5v.03l.09.4-.07.32-.17.43-.06.16.2.61.06.34-.09.37v.05s-.03.47-.03.47l-.08.37-.2.41-.12.24.29.43-.14.18-.2.26.35.54-.11.23v.02s-.19.48-.19.48l-.08.2.23.42-.15.21-.21.28.42.56-.08.22-.02.05-.06.48-.13.43-.03.1.07.49-.1.37h0s-.1.48-.1.48l-.03.11.15.58.08.41v.42s0,.06,0,.06l.06.26-.28.25-.27.24.36.71v.35s0,.06,0,.06l.09.38-.14.3-.02.06-.08.46-.19.4-.09.2.27.62.04.28-.14.34-.03.07-.03.55v.04s.03.41.03.41l-.11.38v.02s-.11.48-.11.48l-.04.17.28.52-.02.34v.43l-.12.4-.03.1.06.42-.18.31-.07.13.05.58v.4s-.11.42-.11.42l-.05.2.33.5-.03.15-.3.34-.2.23.32.75.1.27-.13.27-.05.1.02.5-.13.37-.02.07-.02.54v.04l.04.38-.14.34-.05.11.05.56v.44s0,.13,0,.13l.27.46-.02.2-.22.35-.08.11v.6s0,.04,0,.04l.06.4-.11.36-.05.18.17.34-.19.21-.18.18.14.61-.13-.08-.37-.33-.19-.17-.61.17-.3-.11-.05-.02-.41-.05-.33-.21-.19-.13-.61.18-.26-.04-.36-.21-.17-.1-.55.15-.32-.1-.07-.02h-.43s-.33-.17-.33-.17l-.03-.02-.49-.15-.17-.05-.43.18-.22-.14-.04-.03-.49-.19-.11-.05-.56.07h-.37s-.41-.13-.41-.13l-.11-.03-.59.13-.33.06-.32-.13-.45-.2-.25-.11-.53.39-.16-.04-.39-.26-.26-.17-.57.36-.23-.06-.42-.19-.07-.03-.55-.05h-.06s-.44.06-.44.06l-.38-.09h-.04s-.52-.03-.52-.03h-.09s-.57.21-.57.21h-.01s-.4.19-.4.19h-.21s-.34-.23-.34-.23l-.31-.23-.42.38-.16-.15-.19-.18-.64.16-.39-.03h-.11s-.46.17-.46.17l-.36-.04h-.08s-.54.12-.54.12l-.08.02-.29.19-.24-.13-.19-.1-.54.22-.35-.05-.17-.02-.45.28-.23-.03-.41-.2-.1-.05h-.58s-.08.01-.08.01l-.52.18h0s-.35.14-.35.14l-.37-.04h-.03s-.49,0-.49,0h-.47s-.16,0-.16,0l-.46.36-.34.06h-.06s-.33.16-.33.16l-.33-.09h0l-.5-.14-.22-.06-.42.3-.28-.08-.33-.09-.41.59-.05-.54v-.11s-.2-.32-.2-.32l.13-.24.12-.23-.36-.65-.14-.33.02-.36h0s0-.48,0-.48v-.03l-.05-.36.17-.34.12-.25-.4-.58-.02-.16.24-.33.18-.25-.33-.6v-.27s.13-.41.13-.41l.14-.47.06-.2-.23-.4.13-.24.17-.31-.46-.47.08-.17.11-.23-.31-.49.08-.26h0s.12-.48.12-.48l.13-.46.04-.13-.14-.5.04-.38.02-.12-.21-.5-.03-.37v-.4s.08-.42.08-.42l.03-.16-.19-.39.14-.26.05-.1v-.58s0,0,0,0v-.47s-.02-.18-.02-.18l-.32-.34.09-.18.07-.13-.07-.54.07-.4v-.09s-.07-.41-.07-.41l.12-.35.05-.13-.13-.59-.02-.09-.18-.28.13-.22.1-.18-.2-.65-.11-.45h0s-.09-.33-.09-.33l.12-.32.06-.15-.13-.42.17-.3.11-.19-.24-.64-.07-.32.09-.36.04-.15-.17-.41.13-.29.07-.15-.15-.62v-.04s-.19-.42-.19-.42l-.02-.35.02-.44v-.04s-.04-.3-.04-.3l.27-.32.2-.24-.32-.65-.03-.36-.02-.45v-.06l-.12-.38.1-.31.19-.46.05-.12-.08-.59v-.05s-.15-.4-.15-.4l.03-.37v-.03s-.02-.5-.02-.5v-.13s-.28-.42-.28-.42l.03-.3v-.06s-.05-.47-.05-.47l.03-.42v-.08s-.1-.38-.1-.38l.14-.32.04-.09v-.57s.01-.13.01-.13l-.23-.39.09-.27.03-.1-.05-.51.06-.41.03-.15-.2-.38.12-.27.09-.18-.22-.62-.06-.28.15-.33.06-.14-.11-.61-.07-.38.07-.38.04-.21-.26-.33.14-.2.08-.1.07-.6.02-.2-.38-.47v-.24s.13-.41.13-.41l.02-.07v-.54s-.01-.02-.01-.02l-.05-.48v-.08s-.2-.4-.2-.4l.05-.27.19-.43.13-.3-.41-.41.1-.16.16-.27-.36-.52.08-.25.05-.16-.19-.53v-.34l.1-.42v-.06s-.01-.53-.01-.53v-.11s-.16-.29-.16-.29l.17-.25.2-.29-.38-.5.09-.22.02-.05.1-.53.03-.17-.28-.51-.02-.35v-.46s0-.1,0-.1l-.2-.47-.02-.31.09-.41v-.04s.04-.48.04-.48l.08-.44h0s.06-.5.06-.5l.03-.23-.42-.42.04-.2.15-.46.07-.22-.34-.53-.02-.34h0s-.02-.34-.02-.34l.2-.36.13-.24-.31-.51.08-.28.02-.08-.05-.55v-.1s-.21-.37-.21-.37l.07-.3.03-.11-.12-.49.05-.38.02-.1-.14-.5-.02-.33.12-.4.05-.14-.16-.47.07-.35.02-.1-.1-.46.08-.38.06-.29-.53-.42.03-.19h0s.05-.49.05-.49v-.08s-.12-.53-.12-.53l-.02-.07-.17-.3.11-.28.05-.15-.13-.46.12-.36.06-.21-.26-.43.09-.29.05-.17-.25-.56-.12-.42-.03-.09-.25-.31.05-.29v-.02s.05-.51.05-.51l.02-.28-.48-.32.04-.2.05-.25-.41-.4v-.36l-.15-.51-.02-.08-.21-.3.06-.34.05-.31-.48-.31.03-.23.02-.14-.25-.55-.06-.13-.49-.31-.17-.27-.16-.35-.11-.42-.04-.14-.3-.25.02-.34.02-.32-.51-.23v-.27s-.02-.35-.02-.35l-.72-.18-.13-.21-.18-.41-.04-.08-.35-.35-.22-.36-.03-.06-.39-.36-.1-.09-.58-.11-.34-.17-.24-.14-.15-.38-.14-.37-.64.11-.11-.19-.11-.19-.68-.14h-.02s-.27-.04-.27-.04l-.19-.3-.2-.31-.83.28h-.32s-.2-.06-.2-.06l-.29-.39-.24-.32-.8.4-.25.03-.31-.14-.1-.05-.5.02-.39-.11-.22-.06-.36.24-.22-.15-.14-.1-.64.07h0l-.46.05-.46.03h-.08s-.47.19-.47.19l-.41.06-.47.05-.21.02-.36.5-.27.04h-.05s-.48.19-.48.19l-.06.02-.29.21-.35-.04-.29-.03-.36.54-.28.08-.47.11h0l-.49.12-.24.06-.24.6-.26.16-.02.02-.39.31-.1.08-.2.47-.15.12-.48.05-.27.03-.32.71-.14.33-.29.21-.12.08-.16.43-.31.17-.19.11-.14.68-.12.4-.14.27-.35.24-.27.19.15.59-.18.14-.25.19.13.5-.22.13-.38.21.33.74-.12.19-.08.13.03.4-.26.21-.26.21.24.66-.09.24-.24.39-.09.15.1.66v.03s.1.32.1.32l-.15.25-.08.13.03.44-.23.29-.11.14v.64s.02.07.02.07l.14.46v.23s-.27.33-.27.33l-.21.27.45.68.02.19-.19.32-.1.17.15.66h0s.08.33.08.33l-.13.33-.08.2.3.58.03.28-.11.39-.05.2.27.42-.09.25-.21.48-.15.34.51.39-.08.15-.07.13.05.6v.14s.28.34.28.34l-.08.25-.04.12.12.57v.07s.18.29.18.29l-.13.29-.07.18.2.53v.38s-.02.2-.02.2l.3.3-.11.21-.18.35.63.49v.19s-.08.43-.08.43l-.04.22.3.36-.1.25-.03.07-.03.56v.03s.05.5.05.5l.02.17.36.35-.04.24-.03.2.28.38-.09.27-.06.17.25.6.02.04.25.4.08.25-.12.37-.06.2.27.47-.03.33-.07.48-.03.21.39.45.03.31v.15s.29.34.29.34l-.06.27-.05.23.41.49.03.15-.24.39-.25.4.53.34-.11.16-.28.41.78.5.03.16-.08.41-.03.17.2.36-.15.31-.09.2.25.59.08.41.03.14.41.4.08.32v.02s.15.42.15.42l.06.39v.43s0,.47,0,.47v.2l.26.26-.15.23-.11.17.15.65.04.17.52.4.07.14-.13.34-.1.26.45.57.07.15-.2.35-.22.37.69.5.03.23v.5s.09.43.09.43l-.05.41v.12s.2.55.2.55l.03.08.3.32v.3s0,.07,0,.07l.15.47.04.42v.08s.18.37.18.37l-.07.35-.02.08.09.54.02.1.29.44.07.23-.13.38-.08.22.33.51.02.35v.04s.13.49.13.49l.09.45.04.18.33.24-.09.19-.15.32.55.51.05.31v.06s.13.27.13.27l-.2.35-.15.26.36.51-.03.32-.02.24.43.38-.03.25-.02.22.44.47.08.26-.04.41v.15s.29.5.29.5l.08.27-.1.39-.02.1.1.56v.05s.18.42.18.42l.02.4v.11s.31.49.31.49l.13.3-.03.38-.04.49v.15s.33.58.33.58l.25.34.04.22-.16.42-.04.09.04.58v.11s.29.52.29.52l.03.05.19.2-.12.26-.1.22.33.6.13.4.02.04.21.37.02.31-.08.45-.06.31.49.32-.06.18-.07.22.38.57.14.34.06.41v.03s.13.47.13.47l.09.43.06.45v.07s.16.33.16.33l-.12.35-.09.27.37.4-.08.26-.09.31.62.5.1.2-.05.36h0s-.05.51-.05.51l-.02.25.43.37-.03.25-.05.49-.02.2.3.35-.08.27-.09.28.48.46.02.29v.06s.18.47.18.47l.09.42v.05s.16.34.16.34l-.08.36-.05.26.38.37-.06.25-.03.14.21.56.13.37.02.41v.04s.11.49.11.49l.04.17.44.33v.11s-.04.05-.04.05l-.37-.1-.39-.1-.36.77-.17.13-.38.04h-.07s-.5.23-.5.23l-.16.07-.22.47-.22.08-.47.08-.11.02-.47.34-.05.04-.35.42-.02.03-.15.25h-.3s-.11.02-.11.02l-.51.29-.11.06-.31.52-.24.32-.21.17-.42.06-.16.02-.44.42-.34.29-.05.05-.3.46-.03.05-.12.37-.26.12-.15.07-.23.46-.27.13-.44.18-.19.08-.19.5-.26.12-.12.06-.22.34-.34.05-.23.03-.32.57-.28.27-.02.02-.31.35-.32.31-.02.02-.3.4-.04.05-.11.28-.32.07-.25.05-.28.7-.09.26-.31.11-.15.05-.34.49-.29.34-.13.15.04.5-.18.1-.17.1-.18.61-.14.29-.3.24-.16.12-.04.39-.3.09-.36.11.04.7-.19.18-.09.08-.16.45-.27.26-.03.03-.29.43-.07.11-.02.65h0s0,.26,0,.26l-.25.14-.16.09-.21.62-.04.11.04.31-.25.12-.14.06-.29.55-.1.17.16.52-.14.19-.3.38-.05.06-.18.52-.02.05-.06.52v.03s0,.44,0,.44l-.09.3-.24.34-.17.23.28.56-.12.16-.03.04-.21.48-.06.13.06.36-.24.2-.23.2.21.78.05.26-.19.24-.15.19.17.62-.06.35v.03s-.02.36-.02.36l-.21.32-.06.09-.07.57v.02s-.02.36-.02.36l-.2.34-.09.16.1.56-.07.37h0s-.07.48-.07.48l-.09.45-.05.24.47.49-.03.19-.15.4-.18.46-.05.12.09.59.02.09.27.45.03.28-.08.4v.02s-.05.49-.05.49v.11s.13.37.13.37l-.13.31-.08.17.18.5-.08.34-.06.26.47.47v.15l-.22.4-.14.27.39.55v.32s.01.16.01.16l.36.44.04.26-.05.42v.03s0,.51,0,.51v.03l.08.5v.02s.13.47.13.47v.05s.18.33.18.33l-.05.35-.02.13.23.55.03.07.31.38.07.18-.16.39-.11.25.42.54.11.36.04.15.32.24-.06.24-.02.08.06.56v.11s.27.4.27.4l.04.37.02.13.37.49.06.08.43.25.1.26.11.38.03.45.02.23.56.38.15.22.05.38h0s3.26,0,3.26,0h94.33v-.25s.21-.13.21-.13l.15-.08.23-.58.19-.42h0s.18-.45.18-.45l.04-.1-.03-.5.15-.31h0s.19-.43.19-.43v-.02s.13-.37.13-.37l.26-.29.03-.04.26-.44.04-.07.1-.52.09-.3.29-.28.22-.21-.2-.61.14-.2.09-.13-.02-.43.24-.23.2-.19-.17-.71.02-.34.1-.33.22-.37.04-.07.11-.5.14-.42.06-.19-.18-.36.18-.17.32-.28-.48-.69.05-.2.18-.41.03-.05.08-.52v-.07s-.06-.53-.06-.53l-.03-.3.19-.32.08-.14-.07-.52.12-.36.06-.18Zm-26.01-47.97l.19.5-.47.38.03.48.39.54-.08.45-.68.34.29.52-.23.43-.2.43-.12.45-.03.47-.07.46.28.52-.09.45.02.47-.54.37.08.49-.34.41-.11.45-.05.37-.74-.17-.05-.22-.38-.4-.62.17-.45-.25-.49.06-.28-.5-.63.24-.24-.56-.51-.05-.47-.06.09-.23v-.41s-.17-.49-.17-.49l-.07-.48.37-.43-.23-.49.26-.44-.35-.51.1-.46.19-.45.42-.43-.26-.5.28-.44.12-.46-.47-.52.49-.42-.34-.5.17-.45-.07-.47.41-.42-.16-.49.02-.46.33-.44-.28-.5.08-.46.46-.42-.54-.52.39-.43.33-.43-.26-.49.24-.44.02-.47-.24-.49.29-.44-.09-.48-.09-.48.39-.43-.05-.47-.37-.51.46-.42.04-.46-.17-.49-.02-.47.42-.43-.06-.47.3-.44-.22-.49-.14-.48.27-.44.15-.45-.32-.5.49-.41-.15-.48.21-.45-.47-.52.56-.41-.36-.51.39-.43-.4-.51.38-.43.06-.46-.07-.47-.15-.48.36-.42-.1-.47.24-.44-.12-.48-.12-.48.56-.41.11-.46-.22-.49.07-.46.11-.46-.33-.5.26-.44.23-.45.18-.45-.29-.49.39-.43-.1-.48.04-.46.14-.45-.41-.51.13-.45.08-.46-.06-.47.11-.46.06-.46.04-.46.49-.42-.3-.5.21-.44v-.47s.27-.44.27-.44l-.09-.47-.36-.5.58-.4.11-.45-.13-.48-.37-.5.49-.41-.11-.48-.08-.47.43-.42-.42-.51.48-.41v-.47s-.03-.47-.03-.47l-.25-.49.06-.46.2-.45.05-.46.24-.44.13-.45-.37-.5.45-.42-.28-.49.47-.42-.13-.48.2-.44.09-.46v-.47s-.31-.5-.31-.5l.05-.46.41-.43-.36-.5.39-.42-.1-.47.08-.46.24-.44-.26-.49.34-.43-.44-.51.25-.44.29-.43-.23-.49v-.46s-.08-.47-.08-.47l.34-.43-.18-.48.33-.43-.03-.47.35-.43-.19-.48.03-.45.22-.43.24-.43-.5-.56.25-.42v-.47l.25-.43-.08-.48.28-.42.08-.45-.05-.47.18-.44-.02-.47.25-.42-.18-.49.08-.45.3-.4-.17-.52.49-.32.14-.42.19-.39-.04-.55.48-.24.44-.21.05-.7.47-.19.5-.09.47-.12.5.03.45-.09.44-.27.48.02.48.02.52-.22.46.23.51-.04.4.35.36.35.64-.16.37.34.03.7.57.1.33.35-.11.62.45.29.41.35.07.49-.08.51.17.45-.15.49.41.45-.53.48.26.47-.23.46.02.47.12.49-.35.42.39.55-.14.45-.08.47-.48.36.07.51.04.5-.55.33.11.5-.05.46-.12.45-.07.46-.1.45.08.49-.48.38.06.48-.25.42.22.51-.26.42-.23.43.19.51-.28.42.23.52.06.49-.1.46-.05.47-.44.39-.09.46.06.49.13.5-.17.44-.47.38.16.5.07.49-.08.46-.35.41-.23.43.27.53-.17.45-.36.41-.02.47.31.53-.66.35.07.49-.19.44.36.54-.1.46-.2.44-.04.47-.03.47-.38.4.25.52-.37.41.02.48-.12.45-.03.47-.19.44.27.52-.44.39.19.51-.3.42-.29.42.31.53-.3.42-.32.42.02.48.35.54-.43.4.22.52-.45.39.02.48-.15.45-.11.46-.08.46-.14.45v.48s.12.5.12.5l-.45.4.45.55-.34.41-.18.44.08.49-.05.47.07.49-.54.37.23.52.07.49-.19.44-.49.38-.12.45.16.5.09.49-.28.42-.27.42v.47s.1.49.1.49l-.19.44v.47s-.12.45-.12.45l-.39.4-.05.46.09.49-.28.42-.06.46.24.51-.29.42.32.53-.28.42.14.5-.62.35.03.48-.13.45.3.53-.55.37.39.55-.11.45-.08.45-.19.44.12.49-.46.39-.06.46.13.5-.13.45-.33.41.03.48-.15.44-.04.46-.22.43.24.51v.47s-.3.42-.3.42l-.09.45-.22.43-.13.45.41.55-.62.35.03.48Zm-53.82,7.38l-.11-.45-.16-.44.13-.49-.18-.44-.09-.45.08-.48-.14-.45.16-.5-.33-.42-.37-.4.37-.54-.03-.47-.5-.38.02-.47-.09-.46-.16-.44.19-.51-.2-.44.05-.48-.12-.45-.07-.46-.43-.4.02-.48.06-.48-.16-.44-.08-.46.12-.5-.19-.44-.38-.41.15-.5v-.47s.13-.5.13-.5l-.26-.43-.11-.45-.41-.4.49-.56-.26-.43-.11-.46-.23-.43-.27-.42v-.48s.03-.48.03-.48l-.19-.44.05-.49-.04-.47.09-.49-.56-.38.28-.53-.44-.4.1-.49.14-.5-.49-.39.3-.53-.51-.38.15-.5.02-.48-.1-.45.02-.48-.22-.44-.31-.42.1-.49v-.48s-.24-.43-.24-.43l-.18-.44-.1-.46.15-.5-.34-.41.42-.55-.2-.44-.13-.45-.09-.46.08-.49-.42-.4.13-.5-.12-.45.03-.48-.09-.45-.13-.45-.05-.46-.35-.41-.09-.45-.2-.44.41-.55-.49-.38.29-.52-.33-.41.18-.5-.38-.4-.29-.42.47-.56-.27-.42.08-.49-.23-.43-.26-.42.06-.48-.23-.43-.17-.44.35-.54-.05-.46-.09-.45-.19-.44v-.47s-.23-.43-.23-.43l-.2-.43.05-.48-.53-.38.36-.54-.16-.44-.31-.41.09-.49.13-.5-.39-.4.09-.49.06-.48-.46-.39.05-.48-.38-.4.34-.53-.11-.45-.16-.44-.28-.42.38-.54-.53-.37.14-.5-.37-.4.24-.52-.03-.46-.35-.4-.3-.41-.02-.47.12-.49.23-.51-.48-.38.1-.49.09-.49-.22-.43.03-.48-.2-.43-.14-.44-.25-.43-.27-.42-.03-.47.02-.48-.25-.43.33-.53-.03-.46-.55-.38.45-.53-.61-.38.25-.5-.16-.45.26-.49-.12-.45-.12-.45-.12-.46.17-.47-.41-.47.48-.45-.04-.46-.32-.5.52-.4-.27-.52.13-.45.2-.43.31-.38v-.52s.25-.42.25-.42l.4-.29.47-.19.14-.57h.55s.39-.26.39-.26l.44-.16.43-.22.52.31.43-.16.44-.42.45.46.48-.23.45.09.39.28.4.2.48.06.25.43h.59l.06.6h.7s.06.54.06.54l.13.46.44.27.24.4.18.43v.51s.12.45.12.45l.55.3.05.47-.32.57.5.34-.02.48.18.43.17.44-.19.51.18.44.25.42-.23.5.33.42-.05.47.09.46-.17.48.35.43v.46s-.23.49-.23.49l.18.44-.02.47.09.46-.04.46.38.43.05.46-.03.47.22.45.1.46-.22.48-.17.48.2.45.04.46.07.46.3.44-.47.51.1.46v.47s.05.46.05.46l.27.45.16.45-.24.49.25.45-.12.48.14.46.23.45-.3.5.19.45-.2.49.19.45.16.46.19.45-.33.5.4.43.15.45-.18.49.14.46-.08.48.09.46-.26.49.54.42.04.47.03.47-.28.5.3.44-.09.48.03.47.07.46.25.45-.04.47.19.45-.13.48-.13.48-.15.49.38.44-.23.49.57.42-.29.5.34.44-.15.49-.15.48v.47s.33.44.33.44l-.4.51.09.46.41.43-.25.49.1.46.02.47v.47s.24.45.24.45l.34.44-.28.49.35.44.08.46-.41.5-.09.48.04.46.59.41-.23.49.31.44-.23.49-.22.49.19.45.06.46.37.43-.03.47-.02.47-.09.47.19.45.17.45v.47s-.3.49-.3.49l-.07.47.33.43-.08.47.23.44-.31.49.37.43.14.45-.04.47.24.45-.03.47.17.45-.51.51.54.42-.38.5.07.47.3.44.26.44.03.46-.08.47.14.45v.46s-.18.48-.18.48l-.07.47.43.42-.3.49-.07.47.52.41-.16.48-.14.48.19.45.22.44-.06.47.08.45.17.45-.11.47-.23.48.37.43-.05.47-.16.48.13.45-.05.47.3.44-.17.48.04.46.34.43-.2.48-.12.34-.56-.32-.3.31-.52.31-.38-.05-.42.2-.22-.3-.33.4-.67-.31-.23.58-.39.3-.53-.05-.46.09-.47.06.38-.26-.45-.39Zm11.24,37.64l-.42.18-.45.11-.4.22-.35.39-.45.12-.53-.17-.39.34-.41.33-.47.03-.5-.4-.44.34h-.47s-.45-.29-.45-.29l-.48.24-.43-.29-.45-.04-.52.29-.42-.29-.39-.28h-.49s-.51.07-.51.07l-.31-.47-.44-.14-.48-.08-.36-.3-.49-.1-.3-.39-.33-.33-.5-.12-.27-.4-.41-.24-.36-.31-.25-.4-.36-.31.03-.61-.52-.19v-.56s-.23-.38-.23-.38l-.23-.4-.53-.24.12-.57-.59-.24.18-.57-.4-.35-.08-.46.04-.49-.34-.4-.07-.46-.2-.44.25-.5.06-.46-.35-.45-.04-.47.04-.47.28-.45v-.46s.16-.44.16-.44l-.02-.46-.1-.49.34-.39-.09-.5.36-.37.11-.45.22-.4-.16-.57.39-.33.04-.51.49-.25v-.54s.57-.18.57-.18l.03-.56.38-.29.22-.42.45-.22.4-.24.13-.55.3-.37.41-.24.6.05.17-.57.59.08.2-.58.58.13.41-.2.28-.53.54.12.35-.44.49.02.42-.25.52.27.45-.09.46.05.43-.41.47.38.47-.46.47.03.42.47.48-.13.48-.05.38.4.45.06h.49s.33.43.33.43l.42.18.44.13.43.16.51.03.21.54.46.13.49.12.32.33.26.41.37.27.47.18.27.39.17.46.3.35.33.33.25.38.34.33.1.48.07.48.33.35.36.35-.1.53.25.4.35.38-.17.53.25.41.19.43.15.45-.13.49.26.45-.15.48-.12.46-.12.46.31.48-.23.45-.07.46-.06.45-.26.41.24.53-.31.39.11.52-.33.38-.34.36-.23.4-.13.44-.08.48-.43.28.05.57-.23.41-.54.18v.59s-.34.33-.34.33l-.45.21-.34.31-.28.37-.32.35-.5.12-.16.56-.44.18-.52.04-.38.25Zm29.14,12.42l-.22.07-.15.12-.15.1-.39.24h0s-.32.19-.32.19l-.3.24-.16.11-.4.23c-.14.08-.31.14-.46.17l-.24.04-.22.11c-.15.08-.29.13-.45.15l-.36.06-.33.1h0s-.44.14-.44.14c-.21.06-.43.08-.65.05l-.25-.04-.23.04c-.17.03-.33.03-.5-.01l-.29-.06h-.29s-.11.01-.11.01l-.46-.02h-.04s-.46-.03-.46-.03c-.21-.02-.41-.07-.59-.17l-.11-.06h-.12c-.11,0-.22-.02-.32-.05l-.45-.11c-.13-.03-.27-.09-.38-.16l-.28-.17-.3-.11c-.08-.03-.18-.08-.26-.12l-.34-.2-.35-.17c-.14-.07-.25-.15-.36-.25l-.04-.04h-.08c-.19-.06-.36-.13-.52-.24l-.38-.26-.05-.04-.37-.27c-.1-.07-.19-.17-.27-.26l-.11-.15-.04-.02-.12.09-.27.27c-.09.08-.2.17-.31.23l-.41.23-.04.02-.42.22-.07.04-.21.09-.17.17c-.16.16-.37.28-.59.34l-.09.03-.08.09c-.22.23-.5.38-.81.42l-.19.04-.16.1c-.16.1-.35.17-.54.2l-.47.08h-.07s-.44.06-.44.06l-.29.05-.33.12c-.26.09-.56.11-.83.04l-.28-.07h-.13s-.36.08-.36.08c-.26.05-.51.04-.75-.04l-.33-.11-.33-.05c-.06-.01-.12-.02-.17-.04l-.45-.12-.11-.03-.36-.12-.38-.08-.47-.1c-.23-.05-.45-.16-.62-.31l-.15-.12-.19-.06c-.11-.04-.22-.09-.33-.15l-.4-.25c-.15-.1-.3-.23-.4-.38l-.22-.3-.22-.21-.14-.13-.24-.09c-.27-.11-.51-.31-.67-.55l-.27-.4c-.44-.67-.25-1.56.42-2,.67-.44,1.57-.25,2.01.42v.02s.06.02.06.02c.16.06.3.15.43.26l.35.32.04.04.34.33c.06.06.12.13.17.19l.12.17h.01s.29.1.29.1c.19.06.35.15.49.28l.09.08.12.03h0l.46.1c.06.01.12.03.17.05l.39.13.31.08.38.05c.08.01.17.04.26.06l.08.03.09-.02c.09-.02.15-.03.23-.03l.46-.02c.13,0,.28.01.41.04h.05s.04,0,.04,0c.08-.03.18-.06.26-.07l.46-.07h.07s.44-.06.44-.06l.14-.03.16-.1c.16-.1.34-.17.54-.2h0s.02-.02.02-.02c.17-.18.39-.32.63-.39l.12-.03.09-.09c.11-.11.26-.21.41-.28l.39-.18.37-.19.23-.13.2-.2.14-.12.23-.18.19-.23.11-.12.34-.34c.16-.15.34-.26.53-.33-.02-.01-.04-.01-.06-.03l-.4-.28-.06-.05-.3-.25-.35-.19c-.12-.07-.23-.16-.31-.28l-.21-.28-.26-.19-.11-.09-.24-.24-.31-.15-.1-.06-.4-.27-.07-.06-.29-.24-.34-.18c-.09-.04-.17-.11-.24-.18l-.25-.26-.3-.18-.13-.1-.31-.27-.34-.23c-.12-.07-.22-.18-.29-.29l-.1-.16-.17-.06c-.07-.03-.13-.06-.18-.09l-.41-.26c-.11-.07-.21-.16-.28-.27l-.27-.41c-.22-.34-.21-.78.04-1.1.25-.32.68-.45,1.06-.32l.28.1h.29s.44-.02.44-.02c.16-.01.31.01.46.08l.19.08.2-.04c.14-.03.29-.03.43,0l.45.11.35.06.4-.02h.07l.49.02.18.03.22.05.24-.08c.18-.06.37-.07.54-.03l.45.12.3.05.34-.06c.08-.01.16-.01.24,0l.47.04h.35s.38-.07.38-.07h.04s.49-.08.49-.08h.06s.49-.05.49-.05c.09-.01.19,0,.28.01l.32.06.32-.05c.1-.02.2-.02.3,0l.36.05.24-.03.37-.14c.15-.06.31-.08.47-.06l.31.04.3-.08c.09-.02.18-.03.27-.03l.37.02.3-.07c.42-.1.85.09,1.05.47.21.37.14.84-.17,1.14l-.33.33h-.02s-.35.34-.35.34l-.1.08-.39.28-.12.07-.36.18-.24.18-.26.3-.05.05-.35.34c-.11.11-.24.18-.38.23l-.14.04-.08.13c-.09.14-.21.26-.35.34l-.4.22-.33.21-.32.27c-.06.04-.12.09-.18.12l-.26.13-.19.23c-.09.11-.21.2-.34.26l-.2.09-.13.2c-.09.14-.22.25-.37.32l-.33.17-.28.24s-.1.06-.15.09c.2.07.39.18.55.34l.33.33.06.05.15.17.2.11c.17.09.3.21.43.36l.17.22.19.14.12.08.2.04c.26.06.5.18.69.36l.18.17.21.1.11.06.27.16.3.11c.08.03.18.07.25.12l.22.13.08.02h.31c.23,0,.46.07.66.18l.14.08h.12s.38.02.38.02l.4-.02c.1,0,.23,0,.33.02l.21.04.2-.03c.14-.03.29-.03.44,0l.14.02.12-.04h0s.44-.14.44-.14c.06-.02.14-.04.2-.05l.22-.03.2-.1c.13-.07.27-.12.41-.14l.21-.04.1-.06.29-.22.13-.09.39-.24h0s.31-.19.31-.19l.29-.23c.13-.11.3-.19.46-.24l.47-.15c.76-.24,1.58.18,1.81.95.24.76-.18,1.57-.94,1.81Zm18.44-21.98l-.35.42.32.52-.51.37.3.54-.32.4.05.5-.12.45-.22.42-.38.34-.08.48-.12.46-.3.36-.32.35-.22.41-.2.43-.4.28-.42.24-.23.42-.27.39-.55.08-.31.34-.25.42-.26.43-.41.24-.56-.03-.31.39-.46.12-.37.29-.49.02-.36.36-.46.09-.4.32-.5-.1-.47.02-.43.29-.5-.33-.45.17-.46-.09-.46.13-.48.21-.47-.04-.46-.13-.42-.3-.4-.31-.49.07-.46-.06-.41-.22-.47-.08-.34-.36-.35-.31-.58.08-.35-.32-.48-.12-.24-.46-.51-.11-.36-.31-.33-.34-.13-.53-.45-.21-.41-.27-.11-.51-.41-.27-.22-.41-.15-.45-.18-.43-.44-.29-.15-.45-.15-.45-.11-.45-.29-.39v-.49s.02-.48.02-.48v-.47s-.53-.37-.53-.37l.35-.52-.46-.41.1-.48.16-.47-.34-.46.37-.46-.19-.47.2-.45-.26-.5.48-.39-.12-.49.1-.45.37-.38.1-.44.14-.43.24-.4.09-.46v-.52l.09-.47.34-.35.15-.45.3-.36.28-.38.58-.13.32-.32.08-.55.33-.33.47-.17.27-.39.23-.46.56-.02.36-.29.41-.21.29-.42.48-.1.41-.22.52.07.36-.34.4-.28.43-.19.52.19.43-.24.49.17.44-.15.45-.13.46-.16.46.29.46-.02.47-.05.44.17.48-.05.45.13.4.29.52-.1.37.35.38.26.41.2.53-.03.48.1.36.31.28.42.38.27.37.27.23.44.61.02.2.46.41.25.09.54.26.38.48.22.35.33.09.49.35.33.04.51.04.49.6.24-.13.55.22.41.1.45.15.43.16.43-.05.48-.05.47.34.42-.05.47-.14.47.33.45.07.47-.36.45.21.48Z"/>
        <polygon class="cls-2" points="59.98 79.38 59.86 79.88 59.95 80.33 60.11 80.78 60.05 81.26 60.04 81.74 60.47 82.14 60.54 82.6 60.66 83.05 60.61 83.53 60.81 83.97 60.61 84.48 60.77 84.92 60.87 85.38 60.85 85.85 61.36 86.23 61.38 86.7 61.01 87.23 61.37 87.64 61.7 88.06 61.54 88.56 61.68 89.01 61.59 89.49 61.68 89.94 61.85 90.38 61.73 90.87 61.89 91.31 61.99 91.76 62.44 92.15 62.06 92.41 62.53 92.35 62.99 92.26 63.52 92.31 63.91 92.01 64.14 91.43 64.81 91.74 65.13 91.34 65.35 91.64 65.77 91.44 66.15 91.49 66.67 91.18 66.97 90.87 67.53 91.19 67.65 90.85 67.84 90.37 67.5 89.93 67.46 89.47 67.63 88.99 67.33 88.55 67.38 88.08 67.24 87.63 67.4 87.14 67.45 86.67 67.08 86.25 67.31 85.76 67.42 85.29 67.25 84.84 67.17 84.39 67.23 83.91 67.01 83.47 66.82 83.02 66.96 82.55 67.12 82.06 66.6 81.65 66.67 81.17 66.97 80.68 66.54 80.26 66.61 79.78 66.81 79.3 66.8 78.84 66.66 78.38 66.74 77.91 66.71 77.45 66.45 77.01 66.15 76.57 66.08 76.1 66.46 75.61 65.93 75.19 66.44 74.68 66.27 74.23 66.3 73.75 66.06 73.31 66.1 72.84 65.96 72.39 65.59 71.96 65.9 71.46 65.68 71.02 65.76 70.55 65.43 70.11 65.5 69.64 65.8 69.15 65.81 68.68 65.64 68.23 65.45 67.78 65.54 67.31 65.56 66.84 65.59 66.37 65.22 65.94 65.17 65.47 64.97 65.02 65.19 64.54 65.42 64.05 65.11 63.61 65.34 63.12 64.74 62.71 64.71 62.25 64.8 61.77 65.21 61.27 65.13 60.81 64.78 60.37 65.06 59.87 64.73 59.44 64.47 58.99 64.48 58.52 64.47 58.05 64.37 57.59 64.62 57.1 64.21 56.67 64.13 56.21 64.53 55.7 64.19 55.26 64.2 54.79 64.34 54.3 64.49 53.82 64.15 53.38 64.44 52.88 63.87 52.47 64.1 51.97 63.72 51.54 63.87 51.05 63.99 50.57 64.13 50.08 63.94 49.63 63.97 49.16 63.72 48.71 63.65 48.25 63.62 47.78 63.72 47.3 63.42 46.86 63.7 46.37 63.68 45.9 63.63 45.43 63.09 45.02 63.35 44.52 63.26 44.06 63.33 43.59 63.2 43.13 63.38 42.64 63.23 42.19 62.83 41.76 63.16 41.26 62.97 40.81 62.8 40.35 62.61 39.9 62.81 39.4 62.62 38.95 62.93 38.45 62.69 38 62.55 37.55 62.67 37.06 62.42 36.61 62.66 36.12 62.51 35.67 62.24 35.22 62.18 34.76 62.19 34.29 62.09 33.83 62.56 33.32 62.26 32.88 62.2 32.42 62.16 31.96 61.97 31.51 62.14 31.03 62.36 30.54 62.26 30.09 62.05 29.64 62.08 29.17 62.03 28.71 61.66 28.28 61.7 27.81 61.61 27.35 61.64 26.88 61.45 26.44 61.7 25.95 61.69 25.49 61.33 25.06 61.5 24.58 61.41 24.12 61.46 23.65 61.13 23.23 61.36 22.72 61.11 22.3 60.93 21.86 61.13 21.35 60.95 20.91 60.77 20.48 60.79 20 60.29 19.66 60.61 19.08 60.55 18.61 60 18.31 59.88 17.86 59.88 17.36 59.7 16.93 59.46 16.53 59.01 16.26 58.88 15.8 58.82 15.26 58.12 15.26 58.06 14.66 57.47 14.66 57.22 14.23 56.74 14.17 56.34 13.97 55.95 13.7 55.5 13.6 55.02 13.83 54.58 13.37 54.14 13.79 53.71 13.95 53.19 13.64 52.76 13.85 52.32 14.01 51.93 14.25 51.38 14.26 51.23 14.83 50.76 15.02 50.36 15.31 50.12 15.73 50.11 16.26 49.8 16.63 49.6 17.06 49.48 17.52 49.75 18.04 49.23 18.44 49.54 18.94 49.58 19.4 49.11 19.85 49.51 20.32 49.34 20.79 49.46 21.24 49.58 21.69 49.7 22.14 49.45 22.63 49.61 23.08 49.36 23.58 49.97 23.96 49.51 24.5 50.06 24.88 50.09 25.34 49.76 25.88 50.01 26.3 49.99 26.78 50.02 27.25 50.29 27.67 50.53 28.11 50.67 28.55 50.87 28.98 50.85 29.46 51.06 29.9 50.97 30.38 50.87 30.88 51.36 31.25 51.13 31.77 51.01 32.26 51.03 32.73 51.33 33.14 51.68 33.54 51.71 34.01 51.47 34.52 51.84 34.92 51.7 35.42 52.23 35.79 51.85 36.33 52.14 36.75 52.29 37.2 52.4 37.65 52.06 38.18 52.44 38.58 52.39 39.06 52.85 39.45 52.79 39.93 52.69 40.42 53.08 40.82 52.95 41.32 52.86 41.8 53.17 42.22 53.33 42.66 52.97 43.2 53.5 43.58 53.45 44.06 53.65 44.49 53.88 44.92 53.88 45.39 54.07 45.83 54.16 46.28 54.22 46.74 53.86 47.27 54.03 47.72 54.27 48.14 54.21 48.63 54.47 49.05 54.7 49.48 54.63 49.96 54.89 50.39 54.42 50.94 54.71 51.36 55.09 51.77 54.91 52.27 55.24 52.69 54.96 53.21 55.44 53.59 55.04 54.14 55.24 54.58 55.33 55.03 55.69 55.44 55.73 55.9 55.86 56.35 55.95 56.8 55.92 57.29 56.04 57.74 55.91 58.24 56.33 58.63 56.25 59.12 56.34 59.58 56.47 60.03 56.67 60.47 56.25 61.02 56.59 61.43 56.43 61.93 56.53 62.39 56.71 62.83 56.96 63.26 56.95 63.74 56.85 64.23 57.16 64.65 57.38 65.09 57.36 65.57 57.46 66.03 57.44 66.51 57.29 67.01 57.81 67.39 57.51 67.92 58 68.31 57.85 68.81 57.75 69.31 58.19 69.7 57.91 70.23 58.47 70.61 58.38 71.1 58.42 71.57 58.37 72.05 58.56 72.49 58.54 72.97 58.53 73.45 58.8 73.88 59.04 74.31 59.14 74.77 59.4 75.2 58.92 75.76 59.33 76.17 59.44 76.62 59.7 77.05 59.56 77.55 59.57 78.02 59.42 78.53 59.79 78.94 59.98 79.38"/>
        <polygon class="cls-2" points="109.15 90.53 109.32 91.01 109.32 91.42 109.23 91.65 109.7 91.71 110.2 91.76 110.45 92.32 111.08 92.08 111.36 92.58 111.85 92.52 112.3 92.77 112.92 92.6 113.3 93 113.35 93.22 114.1 93.39 114.15 93.02 114.26 92.57 114.6 92.16 114.52 91.67 115.06 91.3 115.03 90.82 115.13 90.37 114.84 89.85 114.91 89.39 114.93 88.92 115.06 88.47 115.26 88.04 115.48 87.61 115.19 87.08 115.87 86.74 115.95 86.29 115.56 85.75 115.53 85.27 116 84.89 115.81 84.39 115.79 83.91 116.41 83.56 116 83.01 116.13 82.56 116.35 82.14 116.45 81.68 116.75 81.27 116.75 80.8 116.51 80.28 116.73 79.85 116.77 79.39 116.92 78.94 116.89 78.47 117.22 78.06 117.35 77.61 117.22 77.11 117.28 76.65 117.74 76.26 117.61 75.77 117.81 75.33 117.89 74.88 117.99 74.42 117.6 73.88 118.15 73.51 117.85 72.98 117.97 72.53 117.95 72.06 118.57 71.7 118.42 71.2 118.71 70.78 118.38 70.26 118.68 69.84 118.44 69.32 118.51 68.86 118.79 68.44 118.69 67.95 118.74 67.49 119.13 67.09 119.26 66.64 119.25 66.17 119.44 65.73 119.35 65.24 119.34 64.76 119.61 64.34 119.89 63.92 119.8 63.43 119.64 62.93 119.77 62.48 120.26 62.1 120.45 61.66 120.38 61.17 120.15 60.65 120.69 60.28 120.62 59.79 120.66 59.33 120.59 58.84 120.77 58.4 121.12 57.98 120.67 57.43 121.12 57.03 121 56.54 121 56.06 121.14 55.61 121.22 55.15 121.32 54.69 121.48 54.24 121.46 53.76 121.91 53.37 121.68 52.86 122.11 52.46 121.77 51.92 121.74 51.44 122.06 51.03 122.36 50.61 122.05 50.07 122.34 49.66 122.64 49.24 122.45 48.72 122.89 48.33 122.62 47.8 122.81 47.36 122.84 46.89 122.95 46.44 122.94 45.96 123.31 45.55 123.06 45.03 123.44 44.63 123.47 44.16 123.51 43.69 123.71 43.25 123.82 42.8 123.46 42.25 123.64 41.81 123.58 41.33 124.23 40.97 123.93 40.44 123.95 39.97 124.31 39.56 124.48 39.12 124.21 38.59 124.45 38.17 124.8 37.76 124.88 37.3 124.81 36.81 124.64 36.31 125.12 35.92 125.29 35.48 125.16 34.98 125.1 34.5 125.19 34.04 125.63 33.65 125.68 33.18 125.78 32.73 125.72 32.23 125.49 31.71 125.77 31.29 125.57 30.78 125.8 30.35 126.06 29.93 125.84 29.41 126.09 28.99 126.03 28.51 126.52 28.13 126.44 27.64 126.54 27.19 126.61 26.73 126.73 26.28 126.78 25.82 126.67 25.32 127.22 24.99 127.18 24.49 127.11 23.98 127.59 23.62 127.67 23.15 127.81 22.69 127.42 22.15 127.77 21.73 127.65 21.24 127.63 20.77 127.86 20.31 127.6 19.84 128.13 19.36 127.73 18.91 127.87 18.42 127.7 17.97 127.78 17.46 127.71 16.97 127.3 16.62 126.85 16.33 126.96 15.72 126.63 15.37 126.06 15.27 126.03 14.57 125.66 14.23 125.02 14.39 124.67 14.04 124.27 13.69 123.75 13.73 123.3 13.51 122.78 13.72 122.3 13.7 121.82 13.69 121.38 13.95 120.92 14.04 120.43 14.01 119.96 14.13 119.45 14.22 118.98 14.41 118.93 15.11 118.49 15.33 118.02 15.57 118.06 16.12 117.87 16.51 117.73 16.93 117.24 17.25 117.41 17.77 117.11 18.17 117.04 18.61 117.21 19.11 116.97 19.53 116.99 20 116.81 20.43 116.86 20.9 116.79 21.35 116.5 21.76 116.58 22.24 116.33 22.67 116.33 23.14 116.08 23.56 116.59 24.12 116.35 24.55 116.13 24.97 116.1 25.43 116.28 25.91 115.93 26.33 115.96 26.8 115.63 27.23 115.81 27.72 115.46 28.15 115.55 28.62 115.54 29.08 115.77 29.57 115.48 30 115.23 30.44 115.68 30.96 115.34 31.38 115.6 31.87 115.37 32.32 115.29 32.78 115.39 33.25 115 33.67 115.36 34.17 114.95 34.6 114.9 35.06 115.2 35.56 115.21 36.02 115.12 36.48 114.91 36.92 115.04 37.4 114.57 37.83 114.85 38.32 114.41 38.74 114.78 39.24 114.65 39.7 114.41 40.14 114.36 40.6 114.15 41.05 114.1 41.51 114.35 42 114.39 42.47 114.38 42.94 113.9 43.35 114.32 43.86 113.89 44.28 113.97 44.76 114.09 45.23 113.59 45.65 113.96 46.15 114.1 46.63 113.98 47.09 113.4 47.49 113.76 48 113.85 48.47 113.59 48.91 113.59 49.38 113.37 49.82 113.68 50.32 113.18 50.74 113.14 51.2 113.08 51.66 112.97 52.12 113.04 52.59 112.95 53.05 112.83 53.5 113.24 54.01 113.1 54.46 113.05 54.92 113.15 55.4 112.76 55.83 113.05 56.32 112.87 56.77 112.64 57.21 112.38 57.65 112.71 58.15 112.6 58.61 112.53 59.07 112.75 59.56 112.64 60.02 112.09 60.43 112.21 60.9 112.32 61.38 112.08 61.82 112.18 62.3 111.82 62.72 111.97 63.2 112.04 63.68 111.99 64.14 111.6 64.56 112.01 65.08 111.62 65.5 111.98 66.01 111.42 66.41 111.88 66.93 111.68 67.38 111.83 67.86 111.34 68.27 111.65 68.77 111.51 69.22 111.24 69.66 111.38 70.14 111.6 70.62 111.29 71.06 111.35 71.53 110.93 71.96 110.95 72.43 111.12 72.91 111.09 73.38 110.63 73.8 111 74.3 111.04 74.77 110.66 75.2 110.74 75.68 110.84 76.16 110.55 76.59 110.79 77.09 110.76 77.55 110.52 78 110.78 78.49 110.46 78.93 110.07 79.35 110.61 79.88 110.15 80.3 110.07 80.76 110.35 81.26 110.03 81.7 110.01 82.16 110.16 82.65 109.75 83.07 109.82 83.54 109.66 83.99 110 84.5 109.52 84.92 109.98 85.43 109.86 85.89 109.58 86.33 109.84 86.83 109.42 87.26 109.23 87.71 109.13 88.17 109.49 88.67 109.23 89.12 109.45 89.61 109.08 90.05 109.15 90.53"/>
        <path class="cls-1" d="m120.89,118.44l-.33-.45.14-.47.05-.47-.34-.42.05-.47.05-.48-.16-.43-.15-.43-.1-.45-.22-.41.13-.55-.6-.24-.04-.49-.04-.51-.35-.33-.09-.49-.35-.33-.48-.22-.26-.38-.09-.54-.41-.25-.2-.46-.61-.02-.23-.44-.37-.27-.38-.27-.28-.42-.36-.31-.48-.1-.53.03-.41-.2-.38-.26-.37-.35-.52.1-.4-.29-.45-.13-.48.05-.44-.16-.47.05-.46.02-.46-.29-.46.16-.45.13-.44.15-.49-.17-.43.24-.52-.19-.43.19-.4.28-.36.34-.52-.07-.41.22-.48.1-.29.42-.41.21-.36.29-.56.02-.23.46-.27.39-.47.17-.33.33-.08.55-.32.32-.58.13-.28.38-.3.36-.15.45-.34.35-.09.47v.52l-.09.46-.24.4-.14.43-.1.44-.37.38-.1.45.12.49-.48.39.26.5-.2.45.19.47-.37.46.34.46-.16.47-.1.48.46.41-.35.52.52.37v.47s-.02.48-.02.48v.49s.29.39.29.39l.11.45.15.45.15.45.44.29.18.43.15.45.22.41.41.27.11.51.41.27.45.21.13.53.33.34.36.31.51.11.24.46.48.12.35.32.58-.08.35.31.34.36.47.08.41.22.46.06.49-.07.4.31.42.3.46.13.47.04.48-.21.46-.13.46.09.45-.17.5.33.43-.29.47-.02.5.1.4-.32.46-.09.36-.36.49-.02.37-.29.46-.12.31-.39.56.03.41-.24.26-.43.25-.42.31-.34.55-.08.27-.39.23-.42.42-.24.4-.28.2-.43.22-.41.32-.35.3-.36.12-.46.08-.48.38-.34.22-.42.12-.45-.05-.5.32-.4-.3-.54.51-.37-.32-.52.35-.42-.21-.48.36-.45-.07-.47Zm-12.01,8.69c-4.33,0-7.84-3.92-7.84-8.76s3.51-8.77,7.84-8.77,7.85,3.92,7.85,8.77-3.51,8.76-7.85,8.76Z"/>
        <path class="cls-2" d="m108.89,109.6c-4.33,0-7.84,3.92-7.84,8.77s3.51,8.76,7.84,8.76,7.85-3.92,7.85-8.76-3.51-8.77-7.85-8.77Zm0,5.14c-.83,0-1.5-.67-1.5-1.5s.67-1.5,1.5-1.5,1.5.67,1.5,1.5-.67,1.5-1.5,1.5Z"/>
        <path class="cls-1" d="m108.89,111.74c-.83,0-1.5.67-1.5,1.5s.67,1.5,1.5,1.5,1.5-.67,1.5-1.5-.67-1.5-1.5-1.5Z"/>
        <path class="cls-1" d="m74.58,128.93l.16-.56.5-.12.32-.35.28-.37.34-.31.45-.21.33-.33v-.59s.54-.18.54-.18l.23-.41-.05-.57.43-.28.08-.48.13-.44.23-.4.34-.36.33-.38-.11-.52.31-.39-.24-.53.26-.41.06-.45.07-.46.23-.45-.31-.48.12-.46.12-.46.15-.48-.26-.45.13-.49-.15-.45-.19-.43-.25-.41.17-.53-.35-.38-.25-.4.1-.53-.36-.35-.33-.35-.07-.48-.1-.48-.34-.33-.25-.38-.33-.33-.3-.35-.17-.46-.27-.39-.47-.18-.37-.27-.26-.41-.32-.33-.49-.12-.46-.13-.21-.54-.51-.03-.43-.16-.44-.13-.42-.18-.33-.44h-.49s-.45-.06-.45-.06l-.38-.4-.48.05-.48.13-.42-.47-.47-.03-.47.46-.47-.38-.43.41-.46-.05-.45.09-.52-.27-.42.25-.49-.02-.35.44-.54-.12-.28.53-.41.2-.58-.13-.2.58-.59-.08-.17.57-.6-.05-.41.24-.3.37-.13.55-.4.24-.45.22-.22.42-.38.29-.03.56-.56.18v.54s-.5.25-.5.25l-.04.51-.39.33.16.57-.22.4-.11.45-.36.37.09.5-.34.39.1.49.02.46-.16.44v.46s-.27.45-.27.45l-.04.47.04.47.35.45-.06.46-.25.5.2.44.07.46.34.4-.04.49.08.46.4.35-.18.57.59.24-.12.57.53.24.23.4.25.38v.56s.51.19.51.19l-.03.61.36.31.25.4.36.31.41.24.27.4.5.12.33.33.3.39.49.1.36.3.48.08.44.14.31.47.51-.05h.49s.39.27.39.27l.42.29.52-.29.45.04.43.29.48-.24.45.3.47-.02.44-.34.5.4.47-.03.41-.33.39-.34.53.17.45-.12.35-.39.4-.21.45-.11.42-.18.38-.25.52-.04.44-.18Zm-6.63-1.8c-4.33,0-7.85-3.92-7.85-8.76s3.52-8.77,7.85-8.77,7.85,3.92,7.85,8.77-3.52,8.76-7.85,8.76Z"/>
        <path class="cls-2" d="m67.95,109.6c-4.33,0-7.85,3.92-7.85,8.77s3.52,8.76,7.85,8.76,7.85-3.92,7.85-8.76-3.52-8.77-7.85-8.77Zm0,5.14c-.83,0-1.5-.67-1.5-1.5s.67-1.5,1.5-1.5,1.5.67,1.5,1.5-.67,1.5-1.5,1.5Z"/>
        <path class="cls-1" d="m67.95,111.74c-.83,0-1.5.67-1.5,1.5s.67,1.5,1.5,1.5,1.5-.67,1.5-1.5-.67-1.5-1.5-1.5Z"/>
        <path class="cls-2" d="m101.5,139.06l-.47.15c-.16.05-.33.14-.46.24l-.29.23-.31.19h0s-.39.24-.39.24l-.13.09-.29.22-.1.06-.21.04c-.14.02-.28.07-.41.14l-.2.1-.22.03c-.06.01-.14.03-.2.05l-.44.13h0s-.12.04-.12.04l-.14-.02c-.15-.03-.3-.03-.44,0l-.2.03-.21-.04c-.1-.02-.23-.03-.33-.02l-.4.02-.38-.02h-.12s-.14-.08-.14-.08c-.2-.11-.43-.17-.66-.17h-.31s-.08-.03-.08-.03l-.22-.13c-.07-.04-.17-.09-.25-.12l-.3-.11-.27-.16-.11-.06-.21-.1-.18-.17c-.19-.18-.43-.31-.69-.36l-.2-.04-.12-.08-.19-.14-.17-.22c-.12-.15-.26-.27-.43-.36l-.2-.11-.15-.17-.06-.05-.33-.33c-.16-.16-.35-.27-.55-.34.05-.03.11-.05.15-.09l.28-.24.33-.17c.15-.07.28-.18.37-.32l.13-.2.2-.09c.13-.06.25-.15.34-.26l.19-.23.26-.13c.06-.03.13-.08.18-.12l.32-.27.33-.21.4-.22c.14-.08.27-.2.35-.34l.08-.13.14-.04c.14-.05.28-.12.38-.23l.35-.34.05-.05.26-.3.24-.18.36-.18.12-.07.39-.28.1-.08.35-.33h.02s.33-.34.33-.34c.3-.29.38-.76.17-1.14-.2-.37-.64-.56-1.05-.47l-.3.07-.37-.02c-.09,0-.18,0-.27.03l-.3.08-.31-.04c-.16-.02-.32,0-.47.06l-.37.14-.24.03-.36-.05c-.1-.02-.2-.02-.3,0l-.32.05-.32-.06c-.09-.02-.18-.02-.28-.01l-.49.04h-.06s-.49.09-.49.09h-.04s-.38.08-.38.08h-.35s-.47-.05-.47-.05c-.08,0-.16,0-.24,0l-.34.06-.3-.05-.45-.12c-.18-.04-.37-.04-.54.03l-.24.08-.22-.05-.18-.03-.49-.02h-.07l-.4.02-.35-.06-.45-.11c-.14-.03-.29-.03-.43,0l-.2.04-.19-.08c-.14-.06-.3-.09-.46-.08l-.44.03h-.29s-.28-.11-.28-.11c-.39-.13-.81,0-1.06.32-.25.32-.26.77-.04,1.1l.27.41c.07.11.16.2.28.27l.41.26c.06.04.12.07.18.09l.17.06.1.16c.07.12.17.22.29.29l.34.23.31.27.13.1.3.18.25.26c.07.07.15.14.24.18l.34.18.29.24.07.06.4.27.1.06.31.15.24.24.11.09.26.19.21.28c.08.11.19.21.31.28l.35.19.3.25.06.05.4.28s.04.02.06.03c-.19.07-.37.18-.53.33l-.34.34-.11.12-.19.23-.23.18-.14.12-.2.2-.23.13-.37.19-.39.18c-.15.07-.29.17-.41.28l-.09.09-.12.03c-.24.07-.46.2-.63.39h-.02s0,.02,0,.02c-.19.03-.37.1-.54.2l-.16.1-.14.03-.44.05h-.07s-.46.08-.46.08c-.08.01-.18.04-.26.07h-.04s-.05,0-.05,0c-.13-.03-.28-.04-.41-.04l-.46.02c-.09,0-.15.01-.23.03l-.09.02-.08-.03c-.08-.03-.17-.05-.26-.06l-.38-.05-.31-.08-.39-.13c-.06-.03-.11-.04-.17-.05l-.46-.1h0l-.12-.03-.09-.08c-.15-.13-.31-.22-.49-.28l-.29-.09h-.01s-.12-.18-.12-.18c-.05-.07-.11-.13-.17-.19l-.34-.33-.04-.04-.35-.32c-.13-.11-.27-.2-.43-.26l-.05-.02v-.02c-.45-.67-1.35-.86-2.02-.42-.67.44-.85,1.33-.42,2l.27.4c.16.25.4.44.67.55l.24.09.14.13.22.21.22.3c.11.15.25.28.4.38l.4.25c.1.07.21.12.33.15l.19.06.15.12c.18.16.39.27.62.31l.47.1.38.08.36.12.11.03.45.12c.06.01.11.03.17.04l.33.05.33.11c.24.08.5.09.75.04l.36-.08h.13s.28.07.28.07c.27.07.57.05.83-.04l.33-.12.29-.05.44-.05h.07s.47-.09.47-.09c.19-.03.37-.1.54-.2l.16-.1.19-.04c.31-.05.59-.2.81-.42l.08-.09.09-.03c.22-.07.42-.18.59-.34l.17-.17.21-.09.07-.04.42-.22.04-.02.41-.23c.11-.06.22-.14.31-.23l.27-.27.12-.09.04.02.11.14c.08.09.17.19.27.26l.37.27.05.04.38.26c.16.11.33.19.52.23h.08s.04.06.04.06c.11.1.22.18.36.25l.35.17.34.2c.07.04.18.09.26.12l.3.11.28.17c.12.07.25.12.38.16l.45.11c.1.03.22.04.32.05h.12s.11.06.11.06c.18.1.38.16.59.17l.46.03h.04s.46.02.46.02h.4s.29.04.29.04c.17.04.33.04.5.01l.23-.04.25.04c.22.03.44.02.65-.05l.44-.14h0s.33-.1.33-.1l.36-.06c.16-.02.3-.07.45-.15l.22-.11.24-.04c.16-.03.32-.09.46-.17l.4-.23.16-.11.3-.24.32-.2h0s.39-.23.39-.23l.15-.1.15-.12.22-.07c.76-.24,1.18-1.05.94-1.81-.24-.76-1.05-1.19-1.81-.95Z"/>
      </g>
    </g>
  </g>
</svg>