<?xml version="1.0" encoding="UTF-8"?>
<svg id="_レイヤー_2" data-name="レイヤー 2" xmlns="http://www.w3.org/2000/svg" viewBox="0 0 156.62 275.15">
  <defs>
    <style>
      .cls-1 {
        fill: #fff;
      }

      .cls-2 {
        fill: #003d7f;
      }

      .cls-3 {
        fill: #edb931;
      }

      .cls-4 {
        fill: #ffc000;
      }

      .cls-5 {
        fill: none;
      }
    </style>
  </defs>
  <g id="content">
    <g>
      <path class="cls-1" d="m117.62,275.15c-.28,0-.56-.04-.84-.12-.61.03-1.26-.13-1.8-.49-.15.02-.3.02-.46.01l-.06.03c-.82.43-1.76.45-2.58.11-.43.09-.88.08-1.32-.03l-.26-.06s-.09-.02-.13-.04l-.26-.05c-.09,0-.18-.02-.27-.03h-.01c-.36.06-.73.04-1.09-.04l-.44-.05h-.39c-.26.01-.48-.01-.71-.06-.03,0-.12-.03-.15-.03l-.9-.19c-.23-.04-.45-.11-.66-.2l-.37.04c-.67.08-1.33-.07-1.89-.41-.31.02-.63,0-.94-.08l-.08-.02c-.16.01-.32,0-.48,0-.02,0-.1,0-.13-.01l-.6-.07c-.32-.04-.63-.13-.92-.26h0c-.47-.03-.91-.18-1.31-.41-.24-.06-.46-.15-.68-.27l-.57-.29c-.16-.08-.31-.17-.45-.28l-.62-.47c-.61-.46-1.02-1.14-1.15-1.89l-.11-.57-.15-.29c-.05-.1-.09-.19-.13-.29-.5-.62-.73-1.4-.66-2.18-.1-.39-.12-.8-.07-1.2,0-.03-.02-.06-.03-.09l-.17-.57c-.06-.19-.09-.39-.11-.59l-.07-.44c-.02-.17-.04-.33-.03-.5-.34-.68-.41-1.46-.19-2.2-.05-.14-.09-.28-.11-.43l-.13-.73c-.03-.16-.04-.33-.04-.5l-.02-.51c0-.22.01-.44.05-.66l.11-.61v-.42s.01-.07.02-.11c-.07-.31-.09-.62-.07-.93l.02-.2-.02-.13c-.04-.21-.05-.43-.04-.64-.08-.32-.12-.65-.1-.98-.21-.51-.29-1.07-.2-1.62l.09-.61c0-.06.01-.11.02-.16l.09-.56c0-.06.02-.13.04-.19-.06-.17-.1-.34-.12-.52l-.12-.82c-.11-.71.04-1.42.41-2.02,0-.11.02-.22.04-.33-.14-.45-.17-.92-.1-1.38-.02-.12-.03-.24-.03-.36l-.07-.4c-.05-.23-.08-.46-.08-.69v-.42c-.1-.03-.19-.06-.29-.09l-.2-.04c-.49.11-1,.1-1.48-.04l-.25-.07c-.06,0-.12.01-.19.02v.1c.1.33.15.69.13,1.04v.16s-.01.09-.02.13l-.04.46c.08.31.11.64.09.96.08.29.11.6.09.9.15.59.12,1.21-.09,1.8.08.46.05.94-.08,1.39v.03s0,0,0,0c.05.24.06.48.05.72l-.02.3.05.45c.03.33.01.66-.06.98,0,.07,0,.14,0,.21.27.76.22,1.6-.13,2.32v.15c0,.21-.02.43-.06.63,0,.05-.03.16-.05.21v.04c.07.44.05.9-.06,1.34l-.1.36c.03.24.03.48,0,.71.02.1.03.19.04.29,0,.05.01.19.01.24v.61c.02.41-.05.81-.2,1.19l-.04.11.03.13c.1.56.05,1.13-.16,1.66l-.05.15c.08.4.08.81,0,1.22l-.22,1.13c-.03.17-.07.33-.12.49-.02.48-.16.95-.41,1.37l-.09.16s0,.04,0,.06l-.1.86c-.05.47-.21.9-.46,1.28-.07.29-.19.57-.35.83-.33.54-.82.95-1.39,1.19-.34.36-.77.64-1.25.81l-.73.23s-.1.03-.15.05l-.57.16s-.09.02-.14.04c-.39.22-.83.35-1.28.38l-.23.05c-.33.12-.69.19-1.04.19-.02,0-.13,0-.16,0l-.16.04c-.43.12-.89.14-1.32.06l-.52.16c-.59.19-1.22.19-1.81,0-.02,0-.05,0-.07,0l-.7.02c-.38.16-.78.25-1.19.25l-.12.02c-.32.11-.64.16-.99.16-.61.31-1.31.41-1.99.26-.36.11-.74.15-1.12.12h-.1c-.66.29-1.42.33-2.12.11-.31.01-.61-.02-.91-.11-.42.17-.88.24-1.33.21l-1.13-.08c-.07,0-.13,0-.2-.01l-.44-.05s-.07,0-.1,0c-.62.21-1.31.22-1.95,0l-.22-.06s-.03,0-.04,0c-.05.01-.11.02-.17.03l-.11.02c-.07.01-.15.02-.22.03l-.7.07c-.35.04-.71,0-1.05-.08-.52.09-1.06.05-1.58-.14l-.3-.11c-.21.04-.42.05-.63.05l-.71-.02c-.22,0-.43-.04-.65-.09l-.73-.08c-.25-.02-.5-.08-.73-.17-.02,0-.04,0-.05,0l-.84-.13c-.36-.06-.7-.17-1.01-.35-.37.04-.76,0-1.12-.1-.31-.09-.59-.22-.85-.4-.12-.03-.23-.06-.34-.11-1.11.07-2.15-.49-2.73-1.42-.12-.09-.24-.2-.35-.31h0c-.24-.08-.47-.18-.69-.32l-.19-.11c-.63-.39-1.1-1.01-1.31-1.73l-.06-.2s-.03-.09-.04-.14l-.11-.35c-.59-.76-.77-1.75-.52-2.66-.09-.64.03-1.28.34-1.84.05-.35.17-.69.35-1.01l.41-.73c.15-.27.34-.51.56-.72.28-.83.9-1.5,1.72-1.83l.95-.42c.07-.03.13-.06.2-.09.22-.35.52-.65.86-.88l.68-.44c.35-.22.75-.37,1.17-.43l.42-.07c.25-.14.52-.24.8-.3l.2-.06.07-.08c.49-.55,1.15-.89,1.85-.98.33-.16.69-.26,1.06-.29.52-.22,1.09-.3,1.67-.2l.81-.26c.17-.05.34-.09.51-.11.49-.21,1.02-.29,1.56-.22l.21-.07c.23-.07.47-.12.71-.14l.21-.02c.67-.36,1.47-.46,2.23-.24l.27.08.33-.13c.23-.09.48-.15.73-.18.04,0,.17-.02.21-.02l.25-.02.43-.09c.14-.03.28-.05.42-.06.02-.04.04-.08.06-.11l.03-.06-.04-.08c-.33-.69-.37-1.46-.16-2.16,0-.24.03-.48.09-.71-.28-.66-.31-1.41-.08-2.1-.25-.68-.26-1.44,0-2.13-.29-.54-.4-1.16-.33-1.76-.29-.51-.43-1.1-.39-1.68l-.05-.06c-.42-.49-.68-1.1-.73-1.74-.03-.07-.06-.14-.09-.22l-.19-.22c-.22-.27-.4-.57-.52-.89l-.04-.1c-.03-.07-.05-.14-.07-.21l-.05-.19c-.42-.3-.75-.7-.97-1.17-.22-.22-.41-.46-.55-.74-.06-.07-.12-.13-.18-.21l-.33-.38s-.06-.07-.09-.11l-.51-.36c-.11-.08-.21-.16-.3-.25-.61-.29-1.11-.79-1.41-1.41l-.09-.18s-.06-.05-.09-.08l-.62-.56c-.38-.34-.66-.78-.83-1.25-.01-.02-.03-.04-.04-.06-.63-.45-1.06-1.13-1.2-1.89-.56-.42-.94-1.02-1.11-1.68-.17-.28-.29-.59-.36-.91-.43-.47-.7-1.07-.76-1.71-.26-.39-.44-.84-.5-1.32-.18-.33-.29-.7-.34-1.08l-.08-.59c-.02-.16-.03-.33-.03-.49v-.02c-.17-.26-.3-.55-.38-.85l-.19-.64c-.03-.1-.05-.2-.07-.3l-.14-.22c-.22-.35-.36-.75-.42-1.16l-.02-.11s-.01-.09-.02-.14l-.06-.65c-.03-.28-.02-.57.04-.84l-.03-.07c-.13-.31-.21-.64-.23-.98v-.02s-.06-.15-.06-.15c-.12-.31-.19-.64-.21-.96-.14-.4-.19-.82-.15-1.25l.02-.2-.05-.27c-.04-.23-.05-.47-.04-.7l-.03-.07c-.19-.5-.25-1.04-.17-1.56l.08-.52-.03-.23c-.01-.11-.02-.22-.02-.32,0-.03,0-.08,0-.11v-.02s-.04-.17-.04-.17c-.06-.22-.09-.45-.09-.68-.2-.57-.23-1.18-.08-1.77-.06-.53.02-1.07.24-1.56,0-.14,0-.29,0-.43-.1-.36-.13-.73-.1-1.09-.12-.43-.13-.88-.05-1.31-.04-.41,0-.83.12-1.24-.04-.42,0-.84.14-1.23.01-.34.08-.67.21-.99,0-.06-.01-.13-.02-.19l-.06-.64c-.04-.46.02-.91.18-1.33-.05-.58.06-1.16.34-1.68-.04-.29-.04-.58,0-.87l.12-.79c.05-.28.13-.56.26-.82,0,0,0-.02.01-.03,0-.35.04-.69.15-1.02-.1-.69.04-1.4.42-2.02l.24-.39v-.15c.01-.27.06-.53.13-.79-.02-.12-.04-.24-.04-.36-.06-.01-.11-.03-.17-.05l-.84-.27c-.11-.03-.22-.08-.32-.12-.69.27-1.46.27-2.13.01-.46-.01-.91-.12-1.32-.34l-.41.02c-.39.02-.79-.03-1.16-.16l-.38-.1c-.1-.03-.19-.06-.29-.09-.09-.03-.21-.08-.29-.12l-.09-.04h0s-.09,0-.11,0l-.74.05c-.34.03-.68,0-1.01-.1-.59.02-1.2-.16-1.71-.5l-.5-.33s-.04,0-.06,0l-.54-.06c-.14-.01-.28-.04-.42-.07l-.44-.1s-.04,0-.06-.01c-.22.01-.44,0-.66-.03l-.44-.04c-.34-.03-.67-.12-.98-.26-.03-.01-.15-.07-.18-.08l-.35-.13s-.09-.03-.14-.04c-.06-.02-.12-.04-.19-.07h-.05c-.58.07-1.16-.05-1.66-.31l-.27-.02c-.31-.02-.62-.09-.91-.2-.05-.02-.2-.08-.25-.1l-.49-.23c-.16-.07-.3-.16-.45-.26l-.35-.22s-.03-.02-.04-.03l-.52-.13c-.51-.13-.97-.39-1.34-.75-.78-.21-1.46-.73-1.86-1.46l-.05-.1-.19-.09c-.41-.2-.77-.5-1.05-.86l-.16-.22-.32-.21c-.1-.06-.2-.14-.29-.21-.95-.36-1.66-1.19-1.87-2.18l-.3-.31c-.11-.11-.21-.23-.3-.35-.06-.08-.15-.22-.2-.31l-.26-.46c-.08-.13-.14-.27-.2-.42l-.18-.42c-.53-.44-.9-1.05-1.03-1.74l-.08-.41c-.15-.23-.26-.49-.34-.76l-.24-.72-.11-.13c-.28-.34-.47-.73-.58-1.15-.44-.47-.71-1.08-.78-1.73-.37-.49-.58-1.09-.59-1.7l-.02-.25-.3-.59c-.22-.44-.33-.92-.32-1.4l-.02-.04c-.13-.24-.22-.5-.28-.77-.42-.75-.5-1.66-.19-2.49-.02-.12-.04-.26-.05-.37l-.02-.21c-.29-.41-.48-.89-.54-1.4l-.09-.76c0-.06-.01-.11-.01-.17-.42-.16-.8-.42-1.11-.76l-.2-.21-.26-.17c-.2-.13-.38-.29-.54-.46-.47-.25-.86-.62-1.14-1.07-.08-.08-.16-.16-.23-.24l-.58-.69c-.29-.34-.49-.73-.6-1.16-.06-.07-.11-.14-.16-.22l-.42-.64c-.07-.1-.13-.21-.18-.33l-.2-.42c-.03-.05-.05-.11-.08-.16l-.14-.17c-.24-.28-.41-.6-.53-.94-.31-.43-.5-.93-.56-1.47-.38-.66-.49-1.43-.32-2.16-.07-.27-.11-.54-.11-.81-.46-.8-.53-1.77-.17-2.64,0-.26.05-.53.12-.78-.11-.53-.07-1.09.11-1.61l.27-.75c.02-.33.1-.66.24-.97-.15-1.04.27-2.11,1.12-2.78l.14-.11c.06-.15.12-.29.2-.42.16-.81.65-1.53,1.36-1.98.17-.32.4-.61.67-.85.4-.87,1.19-1.49,2.12-1.68.15-.09.32-.17.48-.24l.5-.18.12-.1c.41-.34.89-.57,1.41-.66.42-.25.89-.39,1.37-.41.73-.73,1.78-1.01,2.75-.8.65-.23,1.36-.23,2.01,0,.27,0,.55.05.82.13.37-.03.74.02,1.09.12l.78.23c.29.08.56.21.8.38l.52.03c.63.04,1.21.27,1.69.64.46.16.87.43,1.2.78-.17-.41-.25-.86-.23-1.3-.14-.5-.15-1.04-.02-1.55-.08-.34-.1-.69-.06-1.04l.09-.8c.03-.22.07-.43.15-.64l-.09-.6c-.05-.33-.04-.66.02-.98-.08-.67.08-1.36.45-1.94.03-.14.07-.29.12-.42-.06-.54.02-1.09.24-1.59.02-.24.06-.49.14-.72l.11-.41s.02-.08.03-.11c.02-.07.05-.17.08-.24l.2-.52s.02-.06.03-.08c.02-.12.04-.25.07-.37l.23-.85c-.09-.75.1-1.51.55-2.13l.1-.14c-.01-.61.16-1.22.5-1.73.05-.47.2-.93.47-1.34l.11-.17c.04-.13.08-.25.13-.37l.16-.42c.06-.17.14-.33.24-.48.02-.04.08-.13.11-.17l.22-.32.06-.22c.09-.32.24-.61.42-.88.08-.21.17-.41.29-.6l.23-.36c.09-.59.35-1.14.74-1.58.12-.25.28-.48.46-.69l.65-.76s.07-.09.11-.13c.25-.67.73-1.22,1.34-1.57l.17-.43c.19-.49.51-.92.92-1.25.09-.13.19-.26.3-.38l.52-.56c.05-.06.11-.11.17-.17.26-.4.62-.74,1.05-.99l.12-.07c.36-.57.91-1.01,1.56-1.23l.29-.5c.32-.54.79-.96,1.35-1.21.26-.24.56-.43.88-.56l.15-.21c.12-.16.25-.32.39-.45l.54-.51s.07-.06.1-.09c.47-.76,1.27-1.28,2.17-1.39,0,0,.02-.01.02-.02l.47-.36c.16-.12.33-.23.51-.31.42-.92,1.26-1.55,2.23-1.71.08-.09.16-.17.25-.25-.11-.35-.15-.71-.13-1.08-.16-.34-.26-.7-.29-1.08,0-.02-.01-.03-.02-.05-.47-.52-.74-1.19-.77-1.88-.04-.12-.07-.23-.1-.36l-.17-.84c-.02-.09-.03-.19-.04-.28-.21-.27-.38-.58-.48-.91l-.23-.75s0-.02,0-.03c-.45-.62-.64-1.38-.55-2.13l-.02-.04-.32-.54c-.24-.41-.37-.86-.4-1.32l-.32-.69c-.21-.42-.32-.89-.32-1.35l-.11-.18c-.2-.31-.33-.66-.4-1.02l-.11-.43c-.03-.13-.05-.25-.07-.38l-.02-.1c-.27-.4-.43-.85-.49-1.31-.12-.24-.2-.49-.25-.75-.51-.61-.75-1.4-.68-2.18-.02-.07-.03-.14-.04-.21l-.16-.24c-.36-.54-.53-1.17-.5-1.81v-.16s-.21-.33-.21-.33c-.06-.09-.11-.18-.16-.27-.03-.06-.08-.17-.11-.24l-.25-.59c-.15-.35-.23-.72-.24-1.09-.06-.12-.11-.24-.16-.36l-.25-.66c-.13-.36-.19-.73-.19-1.1-.07-.16-.13-.34-.17-.51,0,0-.02-.1-.03-.11h0c-.59-.65-.87-1.51-.78-2.36-.28-.46-.43-1-.43-1.54-.07-.17-.12-.35-.15-.53l-.16-.22c-.36-.51-.55-1.12-.55-1.73l-.12-.2c-.11-.18-.2-.37-.26-.57,0-.02-.04-.11-.04-.13l-.21-.66c-.04-.13-.07-.26-.09-.39-.22-.48-.32-1-.27-1.53-.08-.13-.15-.27-.21-.42l-.22-.46c-.09-.19-.16-.39-.21-.59-.19-.32-.32-.68-.38-1.06l-.05-.25-.13-.37c-.09-.26-.14-.52-.16-.79,0-.03-.02-.05-.03-.08-.48-.61-.71-1.38-.62-2.16l-.11-.19c-.32-.54-.46-1.17-.4-1.8-.43-.52-.68-1.17-.7-1.85-.3-.48-.46-1.03-.46-1.59l-.12-.25c-.14-.29-.23-.59-.27-.9-.12-.3-.19-.62-.21-.95l-.05-.8c0-.06,0-.12,0-.19-.03-.08-.06-.15-.09-.23l-.19-.55c-.03-.09-.06-.19-.08-.28-.59-.62-.87-1.45-.81-2.28l-.02-.05c-.15-.33-.24-.69-.26-1.06-.14-.34-.21-.7-.22-1.07-.25-.44-.38-.95-.38-1.46v-.17s0-.1,0-.15l.02-.36c-.42-.57-.62-1.26-.57-1.96-.46-.66-.63-1.49-.48-2.28-.02-.09-.03-.19-.04-.29-.1-.26-.16-.54-.18-.82l-.06-.77c-.01-.16,0-.32,0-.48v-.47s.02-.01.02-.02c-.05-.23-.08-.46-.07-.7-.13-.32-.19-.67-.2-1.01-.28-.75-.25-1.59.09-2.32-.04-.17-.06-.35-.07-.53l-.04-.75c-.02-.39.04-.78.16-1.14-.06-.42-.04-.84.07-1.24-.05-.73.17-1.46.62-2.04.03-.19.08-.38.14-.56l.05-.14c-.25-.81-.15-1.69.28-2.42.06-.43.21-.84.44-1.2.05-.87.47-1.68,1.17-2.21.09-.14.18-.27.29-.39.03-.07.07-.16.1-.21l.26-.51c.11-.23.25-.44.42-.63l.48-.55c.14-.17.31-.32.48-.45.08-.1.17-.2.27-.29l.42-.41c.06-.06.12-.12.19-.17l.33-.29c.06-.06.13-.11.2-.16l.02-.03.31-.43c.13-.18.27-.34.44-.48.1-.09.26-.22.37-.29l.31-.21s.01,0,.02-.01l.52-.38c.39-.29.85-.48,1.34-.55.6-.65,1.46-1.01,2.35-.96.73-.84,1.89-1.21,2.97-.94.13-.03.25-.06.38-.08l.73-.11c.32-.05.64-.04.96.02.78-.43,1.69-.48,2.5-.18.48,0,.97.13,1.4.36.5-.02,1,.11,1.45.34,1.14-.29,2.34.12,3.07,1.02.76.12,1.44.52,1.9,1.12.64.27,1.18.76,1.5,1.4.42.18.8.45,1.09.79.86.44,1.47,1.28,1.61,2.24.05.09.09.18.13.28.03.04.07.08.1.12l.38.49c.11.14.21.3.3.46l.14.1c.54.39.92.95,1.11,1.58.15.23.27.48.36.75l.23.67c.04.11.07.21.09.32.15.2.27.42.36.65l.32.79c.04.11.08.22.11.33.17.29.28.6.34.93.67.77.92,1.84.62,2.84.34.54.5,1.19.45,1.85l-.04.5.03.21.23.32c.59.82.72,1.88.37,2.82l.02.06c.07.24.12.48.13.73.21.38.34.8.38,1.24l.05.7s0,0,0,.01l.03.05c.41.7.51,1.53.3,2.31v.04s.05.21.05.21l.11.29c.19.48.26.99.19,1.5.13.36.2.74.18,1.12v.62c0,.1-.01.19-.02.29.03.16.05.32.05.49l.07.43c.05.2.07.41.07.62v.16c.68.89.8,2.09.31,3.11,0,.07.01.14.01.2.35.44.56.97.62,1.54l.02.17s0,.09.01.14l.04.6c0,.13,0,.26,0,.39.2.51.25,1.07.15,1.62v.07c.19.37.32.77.36,1.17.25.62.3,1.31.1,1.97.03.23.02.46,0,.69.44.72.55,1.6.31,2.42v.05s0,.08,0,.08c.02.11.04.21.04.32l.05.21c.11.31.16.64.16.97v.54c.02.17,0,.35-.02.52v.1s.08.14.08.14c.39.6.56,1.33.46,2.05v.1c.05.18.09.37.11.56l.08.51c.02.12.03.24.04.37l.03.47c0,.1,0,.2,0,.3l.02.07c.16.52.17,1.06.04,1.58.02.11.04.22.05.34.33.66.41,1.41.22,2.12l.04.22c.18.32.3.66.35,1.02.33.66.4,1.43.2,2.16.22.54.29,1.13.18,1.72.26.68.27,1.44.01,2.12,0,.07.01.13.01.2.38.61.53,1.35.41,2.06,0,.04.01.07.02.11l.03.19.12.35c.12.35.17.72.15,1.09.33.71.38,1.52.12,2.26,0,.13,0,.26-.02.39l.12.22c.36.65.45,1.39.3,2.09.19.43.28.9.25,1.37.15.5.17,1.03.05,1.54l.11.31c.21.56.24,1.17.1,1.74.04.22.07.44.06.67v.35s.04.28.04.28c.02.12.04.24.04.36.1.28.16.57.17.87.15-.05.31-.09.47-.12l.12-.02s.08-.01.12-.02l.7-.09c.18-.02.37-.03.55-.02.3-.06.61-.07.91-.04.48-.11.99-.11,1.48.03.51-.24,1.06-.33,1.6-.27.76-.3,1.62-.28,2.37.08.12,0,.24,0,.36,0l.1-.03c.53-.15,1.08-.15,1.61,0,.05,0,.09,0,.14,0h.6c.07,0,.15,0,.22,0,.71-.34,1.52-.38,2.24-.14.37-.05.74-.03,1.1.05l.58.1s.03,0,.04,0l.58.04c.2.01.41.05.6.1.59-.12,1.2-.06,1.76.18.37-.06.75-.04,1.1.04.41-.03.82.02,1.21.16.48-.07.98-.03,1.44.14l.07.02.48-.02c.14,0,.28,0,.42.02-.02-.37.04-.73.15-1.08l.08-.26c0-.07.01-.15.02-.22l.09-.63c.03-.23.09-.45.17-.66.02-.26.08-.52.17-.78-.17-.55-.17-1.14,0-1.7l.09-.33.03-.28c.02-.21.06-.41.12-.61-.11-.64-.01-1.3.29-1.88,0-.27.03-.55.09-.81l.1-.37.03-.35c.04-.47.18-.92.42-1.31-.14-.61-.1-1.25.14-1.83l.04-.09c0-.21.04-.41.09-.61-.03-.46.05-.92.23-1.34v-.12c-.05-.45.02-.9.18-1.32l.08-.2v-.84c.02-.27.06-.54.13-.79,0-.23.03-.46.08-.69l.03-.13s.02-.09.04-.14l.14-.57.04-.35c0-.09.02-.19.04-.28l.1-.53c-.05-.4-.02-.81.09-1.19,0-.23.02-.45.07-.67l.13-.55c-.08-.64.05-1.29.38-1.86l.12-.2s.01-.06.02-.09c-.08-.38-.08-.77,0-1.16l.18-.89c.03-.13.06-.25.1-.37-.06-.53.02-1.06.23-1.54.02-.33.1-.66.23-.97.02-.15.04-.31.08-.46h0c-.18-.61-.17-1.26.04-1.84.02-.42.13-.83.32-1.22l.15-.31v-.33s0-.44,0-.44c0-.08,0-.17,0-.25l.04-.64c.01-.24.06-.48.13-.71-.01-.66.19-1.32.59-1.86v-.03s.02-.1.03-.15c-.11-.41-.13-.83-.06-1.25l.13-.8c.04-.23.1-.46.19-.67.01-.15.04-.3.08-.45,0-.31.04-.63.13-.94l.22-.74c0-.12.01-.24.03-.36-.12-.56-.07-1.14.13-1.67-.07-.64.06-1.3.4-1.88-.09-.55-.02-1.12.19-1.64.02-.23.06-.45.12-.67l.21-.83c.04-.17.09-.35.15-.51-.02-.32,0-.64.08-.95-.02-.33,0-.66.09-.98l.15-.56c.01-.05.03-.11.04-.16l.14-.49s.03-.09.04-.13l.09-.29.02-.42c.02-.39.12-.77.28-1.13.05-.41.19-.81.4-1.17.01-.04.02-.09.03-.13v-.04s0-.08,0-.08c0-.25.02-.5.07-.74-.2-.69-.15-1.42.14-2.07.02-.26.08-.51.17-.75,0-.38.07-.76.21-1.11l.23-.69c.07-.27.17-.52.3-.76l-.02-.15c-.08-.68.08-1.36.44-1.92-.06-.72.14-1.45.58-2.04l.14-.18c.08-.43.25-.84.5-1.2,0-.03.02-.06.03-.09,0-.02.01-.04.02-.06v-.08c0-.67.24-1.32.66-1.84l.14-.18c.04-.17.1-.34.18-.5l.19-.49s.03-.08.05-.12c.06-.36.19-.71.38-1.03l.47-.77c.13-.21.28-.4.45-.57.18-.32.41-.61.7-.85.16-.43.41-.81.74-1.13.24-.95.92-1.71,1.81-2.06l.45-.55c.4-.48.93-.83,1.52-.99.27-.36.62-.66,1.01-.87.62-.74,1.56-1.14,2.52-1.07.06-.02.12-.03.18-.05.07-.04.15-.08.22-.11l.8-.35c.16-.07.33-.12.5-.16.55-.36,1.19-.53,1.83-.5.76-.21,1.59-.11,2.31.31l.04.02.16-.05c.4-.12.82-.16,1.24-.11l.12.02s.09.01.13.02l.65.11c.14.02.28.06.42.1.31-.03.62-.02.93.04l.83.17c.21.04.41.1.6.19.58.08,1.13.33,1.58.73.11.02.21.05.32.09l.55.16c.44.12.84.35,1.18.65.67.15,1.27.52,1.7,1.06.36.22.67.52.91.87l.18.1c.42.23.78.56,1.05.95.21.15.41.32.58.52.68.39,1.18,1.03,1.39,1.78.15.2.28.42.37.65.33.38.56.85.66,1.36l.07.36c.25.34.42.72.51,1.13l.27.4c.33.5.51,1.08.51,1.68v.25c.42.59.6,1.3.54,2.01l.09.22c.27.62.32,1.31.15,1.94.1.27.16.55.17.84l.05.72c.02.36-.02.72-.12,1.07.21.57.24,1.19.08,1.79.05.43.01.87-.12,1.28l-.04.14s-.01.03-.02.05l.02.19c.05.52-.03,1.03-.23,1.5,0,.06-.01.12-.02.18.07.37.07.74,0,1.11.05.38.03.76-.06,1.13l-.15.59c.03.59-.11,1.18-.42,1.7l-.14.24c-.01.12-.03.24-.06.36l-.06.28-.03.41c-.04.51-.2,1-.48,1.42-.03.1-.06.2-.1.3l-.04.1c-.02.06-.05.11-.07.17l-.02.05c.01.51-.11,1.02-.35,1.47-.08.5-.29.98-.62,1.38,0,.26-.04.53-.12.78.18.73.09,1.49-.26,2.14-.1.65-.42,1.27-.92,1.74l-.07.06c-.04.13-.1.27-.16.39,0,.05-.02.09-.03.14-.01.06-.05.22-.07.28l-.17.61c-.03.1-.06.21-.1.31.02.38-.04.77-.17,1.14l-.24.63c-.04.12-.08.23-.14.34l-.02.12c-.03.2-.08.4-.15.59-.02.61-.23,1.2-.59,1.69-.02.14-.06.28-.1.42-.01.04-.06.18-.08.23l-.16.43c0,.71-.26,1.4-.73,1.94,0,0,0,.01,0,.02l-.22.8c-.03.09-.05.18-.09.27-.05.5-.22.99-.51,1.42-.03.5-.19.99-.45,1.41-.08.32-.21.62-.39.9l-.06.09-.1.47c-.05.24-.13.46-.24.68-.08.45-.25.87-.52,1.25l-.17.25c-.07.35-.2.69-.38.99,0,0-.06.09-.06.1l-.06.1c0,.05-.02.11-.03.15l-.12.79c-.04.41-.17.8-.37,1.16l-.06.18c-.07.36-.21.7-.41,1.01-.06.46-.22.9-.48,1.29l-.05.09c-.07.26-.17.51-.3.74l-.22.43c-.04.08-.08.15-.13.22l-.02.16c-.08.65-.36,1.25-.8,1.72l-.05.23c-.03.16-.08.31-.13.46.17.99-.17,2-.89,2.68-.04.14-.09.28-.15.42-.06.4-.19.79-.41,1.14-.07.37-.21.73-.41,1.05-.02.12-.04.24-.07.37l-.23.83c-.02.06-.04.12-.06.19-.04.66-.29,1.29-.74,1.8l-.06.07c-.04.12-.09.23-.15.34-.03.12-.06.24-.1.36v.11c.03.83-.28,1.61-.83,2.19-.02.04-.04.07-.06.11-.02.37-.11.73-.26,1.07l-.21.47c-.03.08-.06.16-.1.24l-.29.71-.04.28c-.06.42-.21.82-.44,1.18h0c-.13.65-.46,1.22-.94,1.65.04.45-.01.9-.17,1.33l-.24.7c-.14.4-.36.77-.65,1.08l-.04.36c-.04.38-.14.74-.32,1.08l-.32.63c-.03.05-.05.11-.08.16-.08.32-.22.62-.4.9-.04.38-.16.74-.34,1.08l-.2.44c.13.06.26.13.39.2l.62.37c.31.19.59.43.81.72l.06.08s.04.05.05.07c.32.16.61.38.85.64.89.13,1.68.65,2.14,1.42.77.23,1.41.76,1.78,1.46.07.05.14.1.2.16l.51.43c.2.17.37.36.52.57.63.31,1.14.84,1.42,1.48,0,0,.01.01.02.02l.08.09.22.09c.47.19.88.5,1.19.88.46.29.83.7,1.08,1.18.3.31.53.7.68,1.13l.02.05c.48.3.87.73,1.11,1.25l.28.58c.83.43,1.42,1.22,1.58,2.17l.03.18.21.15c.57.41.97,1.01,1.15,1.67.32.28.58.62.77,1.01l.29.57c.04.06.08.12.12.18l.3.51c.18.31.31.64.37.99l.03.15c.4.42.68.94.79,1.52l.04.23c.07.09.13.19.18.29l.22.35c.04.06.08.13.11.2.03.06.07.14.1.2l.09.21.24.38c.25.4.4.84.45,1.3l.12.2c.18.3.3.63.37.97.19.38.3.8.32,1.23v.07c.26.32.45.68.57,1.08l.19.67c.09.3.12.62.11.93,0,0,0,.1,0,.1v.18s.02.21.02.21c0,.02,0,.04,0,.06.67.68.97,1.64.82,2.57.03.14.05.28.07.43.24.59.29,1.25.13,1.88l.06.41c0,.05.01.11.02.16l.13.82c.07.38.07.77,0,1.14.04.32.02.65-.05.97,0,.03,0,.06,0,.09,0,.02,0,.12,0,.14l.05.29c.05.19.08.38.1.58l.06.15c.31.75.3,1.58-.01,2.32v.36c.02.24,0,.48-.05.71.2.71.13,1.48-.19,2.14.12.6.05,1.23-.2,1.8l-.17.48s0,0,0,0c.04.46-.02.93-.2,1.37l-.32.8c-.02.06-.05.12-.08.17,0,.17-.02.35-.06.52.19,1.01-.16,2.06-.92,2.75v.03c.01.6-.16,1.2-.49,1.7l-.25.45c-.02.06-.05.12-.08.18-.04.09-.11.22-.16.3l-.28.46c-.04.07-.09.14-.14.21l-.13.17c-.02.2-.07.4-.13.6l-.04.13c-.02.05-.04.11-.06.16l-.47,1.18c-.22.55-.58,1.01-1.05,1.34l-.29.4s-.03.04-.04.06c-.14.39-.37.74-.66,1.04-.04.88-.47,1.68-1.14,2.2-.26.39-.61.72-1.04.96-.17.21-.36.39-.57.54-.19.64-.58,1.2-1.12,1.59l-.18.13c-.14.23-.31.44-.5.63l-.65.62c-.19.18-.4.34-.63.46-.21.39-.51.73-.88,1l-.57.41c-.37.5-.89.88-1.5,1.08-.06.05-.13.1-.2.14-.16.21-.35.39-.56.55-.28.47-.68.84-1.15,1.09-.12.11-.25.22-.39.31l-.47.31c-.08.06-.17.12-.25.17l-.1.06c.05.05.1.11.14.16.34.18.64.41.88.7l.46.07c.83.13,1.55.61,2.01,1.29.18.07.36.16.53.27l.67.39c.19.09.38.21.54.34l.23.17c.28.09.54.22.78.39l.16.11s.07.05.1.08l.45.33c.12.07.24.14.35.23l.21.16c1.06.07,2,.7,2.47,1.66.17.08.34.18.5.3l.4.28c.06.04.11.08.17.12.59.12,1.13.41,1.55.84.62.19,1.17.57,1.56,1.1l.07.1c.83.24,1.52.82,1.89,1.61.06.04.12.09.18.13.45.17.85.44,1.18.79.3.18.58.41.8.69l.15.18s.04.05.06.08l.32.43c.11.14.2.29.28.45l.11.2c.53.31.96.77,1.22,1.32.27.27.48.59.63.95l.26.65c.83.84,1.08,2.08.66,3.17.05.28.05.57.02.86l-.08.67c-.02.12-.04.24-.07.36l-.12.83c-.05.38-.17.74-.35,1.07-.01.59-.2,1.17-.54,1.65-.07.23-.16.46-.28.67l-.43.72c-.18.31-.42.58-.7.8,0,.02-.02.03-.02.05l-.19.42c-.05.11-.1.21-.16.31-.16.77-.62,1.45-1.28,1.89l-.1.06c-.11.33-.27.64-.48.91-.15.43-.4.81-.73,1.13-.19.68-.61,1.27-1.19,1.67-.25.52-.64.95-1.12,1.25-.19.48-.51.9-.92,1.23l-.04.03.1.12c.16.2.29.41.39.64l.03.03s.06.05.08.08l.46.44c.36.35.63.79.78,1.28.09.1.17.2.25.31l.51.73c.38.54.57,1.19.54,1.84l.06.14c.21.45.3.95.26,1.45l-.02.31c.14.4.19.83.15,1.25v.15s-.02.07-.03.11l-.07.54c-.02.14-.05.31-.08.44l-.17.61c-.06.22-.15.44-.26.64,0,.03-.01.05-.02.08-.01.04-.05.18-.06.23l-.18.59c-.1.34-.27.67-.49.95l-.06.08s-.05.07-.08.1l-.03.04-.13.3c-.38.83-1.11,1.43-1.97,1.66-.14.14-.3.26-.47.36l-.18.17c-.5.59-1.22.97-2,1.05h-.05s-.08.08-.08.08c-.49.45-1.11.72-1.77.78h-.08s-.17.08-.17.08c-.66.3-1.4.34-2.08.14-.13.03-.27.04-.4.05l-.2.08c-.65.26-1.35.29-2,.09-.67.15-1.37.07-1.98-.23-.33.01-.67-.03-.99-.12-.38,0-.76-.05-1.12-.19-.05.16-.12.31-.19.45-.04.26-.11.51-.21.75-.02.68-.28,1.32-.71,1.83-.05.12-.1.23-.16.34-.05.29-.15.57-.29.83-.06.55-.28,1.06-.61,1.49-.01.03-.03.06-.04.09.54.41.93,1.01,1.09,1.7l.06.05c.32.25.59.56.79.91l.28.44c.23.35.38.75.45,1.17l.02.12c0,.06.02.12.02.19l.03.36c.19.4.29.85.29,1.3v.68c0,.09,0,.17-.01.26,0,0,0,.02,0,.03.04.1.08.25.1.35l.16.73c.08.36.09.72.04,1.07.17.9-.08,1.85-.72,2.56l-.14.15c-.04.57-.23,1.11-.56,1.57-.14.51-.42.97-.79,1.33-.29.63-.79,1.15-1.41,1.46-.04.04-.09.09-.14.13-.33.67-.9,1.18-1.58,1.45-.19.17-.4.32-.63.43-.72.77-1.8,1.13-2.88.88h-.02s-.11.05-.11.05c-.16.08-.33.14-.5.19-.05.01-.16.04-.21.05l-.62.14c-.51.11-1.03.09-1.53-.07l-.07-.02c-.21,0-.43,0-.63-.05-.28.04-.57.03-.85-.01l-.76-.11c-.18-.02-.35-.07-.52-.12-.87-.04-1.69-.36-2.26-1.01-.46-.12-.87-.34-1.22-.63-.08.14-.16.27-.26.4,0,0,0,.01,0,.02v.37c0,.12,0,.23-.01.35,0,.07-.02.18-.03.25l-.11.59c-.04.21-.1.41-.18.61,0,0,0,.02,0,.03,0,.02-.02.11-.02.13l-.08.5c-.01.09-.03.17-.05.26l-.05.28c-.01.09-.03.17-.05.26l-.09.36s0,.1,0,.15l.05.86c.05.4.01.81-.1,1.2,0,.24-.02.48-.07.72.09.34.13.7.1,1.05.1.46.09.93-.03,1.4l-.03.12.02.11.03.06c.43-.05.87,0,1.29.13h.04s.07,0,.07,0c.65-.04,1.26.12,1.79.46,0,0,.02,0,.03,0h0s.43-.04.43-.04c.46-.05.92.01,1.36.17l.27-.06c.68-.16,1.39-.08,2.01.22l.41.18c.81-.25,1.66-.14,2.37.26.67,0,1.32.23,1.85.64.8-.16,1.63.01,2.29.46.58.15,1.11.47,1.51.94.19.04.38.1.56.17l.43.19.48.14c.74.21,1.37.7,1.76,1.36.3.18.57.41.8.69l.17.21.24.2c.3.25.55.57.73.92l.05.09c.69.48,1.15,1.23,1.26,2.08l.05.36.11.16c.71,1.04.69,2.42-.05,3.44l-.24.33c-.02.06-.04.11-.06.17l-.1.3c-.06.18-.14.35-.23.51-.11.19-.24.37-.39.53-.05.18-.11.35-.19.52l-.17.36c-.43.92-1.3,1.55-2.3,1.69-.33.35-.74.62-1.19.78l-.08.03c-.26.11-.53.19-.8.23-.6.42-1.33.61-2.06.52-.14.03-.27.05-.41.06l-.61.06c-.11.01-.22.01-.34.02h-.01c-.41.21-.87.31-1.32.31l-.79.05c-.05,0-.1.01-.15.01-.61.25-1.29.29-1.92.12-.13.01-.26.01-.39,0-.34.09-.7.12-1.06.08h-.06c-.8.37-1.71.37-2.51.02-.26.06-.53.08-.8.07h-.43s-.15,0-.15,0c-.07,0-.15.02-.22.02h-.14c-.47.29-1.01.43-1.54.43Zm-51.63-6.23h.08c.62-.31,1.35-.4,2.04-.24h.1c.12,0,.25,0,.37.02.31-.08.63-.1.96-.07.48-.13.98-.15,1.47-.04.35-.12.73-.16,1.1-.14h.15c.59-.24,1.25-.31,1.89-.15.17-.04.34-.07.52-.08.45-.2.94-.28,1.42-.25h.16s.31-.01.31-.01c.08,0,.16,0,.23,0l.45-.03c.28-.05.57-.05.85-.02.37-.18.77-.28,1.19-.29h.26c.29-.02.58,0,.86.08.15-.02.29-.02.44-.03.13-.05.27-.09.41-.11.41-.26.88-.41,1.37-.45.03-.03.06-.06.1-.1.11-.23.25-.44.41-.63.03-.22.09-.43.17-.63l.13-.35s0-.02,0-.03c0-.48.12-.95.35-1.38-.15-.67-.07-1.37.24-1.99.02-.1.04-.21.07-.31-.02-.16-.02-.32-.01-.48l.02-.41c0-.1.01-.2.03-.3l.06-.4c.02-.14.05-.27.09-.41-.12-.42-.14-.86-.06-1.29-.08-.52-.02-1.04.17-1.53-.05-.38-.04-.76.05-1.13l.08-.31c-.17-.54-.17-1.12-.03-1.65-.03-.23-.02-.46,0-.68-.11-.61-.03-1.24.23-1.81v-.11s-.02-.15-.02-.15c-.04-.19-.06-.38-.06-.58v-.37c0-.17.01-.34.04-.51-.03-.12-.05-.25-.06-.37l-.03-.27c-.03-.26-.02-.52.02-.77-.09-.38-.1-.77-.04-1.15-.07-.39-.05-.78.03-1.17-.04-.32-.02-.64.04-.95-.18-.56-.19-1.15-.03-1.72v-.07s0-.07,0-.11v-.36s-.02-.36-.02-.36c0-.06,0-.13,0-.19l-.04-.51c-.08-.55,0-1.12.23-1.63l.14-.32c.22-.61.64-1.13,1.18-1.48l.38-.24c.44-.29.94-.45,1.47-.48h.26c.33-.04.66,0,.98.09.37-.1.76-.13,1.14-.08h0c.38-.07.77-.07,1.15,0l.34.07c.46-.09.93-.07,1.38.06l.41.08c.1.01.19.03.29.05.38-.12.77-.15,1.16-.12.58-.18,1.21-.18,1.8.01l.15.05c.8.26,1.46.84,1.81,1.61.06.13.1.25.14.38.36.65.46,1.4.3,2.11.2.65.17,1.36-.08,2l-.1.24c.03.14.05.27.06.41l.03.22c.14.43.18.89.12,1.34.05.21.07.43.07.65v.36c0,.2-.02.4-.06.6l-.03.13v.15c.01.12.01.24,0,.36l-.02.31c-.02.22-.06.44-.12.66.14.47.17.97.08,1.47.04.44-.03.88-.18,1.29.23.56.29,1.18.16,1.79v.03c.09.42.11.85.02,1.27.03.19.03.39.02.58.14.49.16,1,.04,1.49l-.04.36c0,.07,0,.15-.01.22l-.05.45c-.01.1-.03.2-.05.31v.03c.27.44.44.94.46,1.47v.28c.02.18.01.37,0,.55l-.05.38c.09.29.14.59.14.89v.28c0,.15-.01.29-.03.44.3.41.49.9.55,1.41l.02.2c.03.24.03.48,0,.72.05.19.08.39.09.59.16.34.25.71.27,1.09.01.03.03.07.04.1.32.09.61.24.88.43.16.04.31.1.46.17h.04c.23-.02.47-.02.7.02.51-.1,1.04-.07,1.54.1.44.02.87.13,1.27.33l.1-.02c.8-.13,1.6.05,2.25.52l.13.03h.14c.1,0,.2,0,.29,0l.45.04c.07,0,.14.01.21.02l.13.02h.03c.33-.05.66-.05.98.01l.45.06c.55-.22,1.16-.27,1.75-.13.34-.02.67.03.99.13l.15-.03c.35-.07.7-.08,1.05-.03.46-.08.93-.06,1.38.07h0c.31,0,.62.05.92.15.22-.01.44,0,.66.03.42-.1.87-.11,1.3-.02.06,0,.12-.01.18-.01l.47-.02c.06,0,.12,0,.18,0,.49-.17,1.01-.21,1.52-.12.33-.04.68-.01,1,.06.18-.03.36-.05.55-.05h.36s.04,0,.06,0c.43-.15.88-.21,1.34-.16.08-.02.15-.03.23-.04-.31-.22-.59-.49-.82-.8-.56-.76-.79-1.68-.65-2.61.13-.9.64-1.75,1.39-2.3.24-.18.5-.32.78-.43-.12-.06-.23-.13-.33-.21-.45.02-.9-.07-1.31-.24h-.14c-.61.05-1.23-.1-1.76-.41l-.16-.06c-.62.2-1.3.18-1.91-.04l-.29-.11s-.02,0-.04-.01c-.03,0-.06,0-.09,0h-.42c-.25.01-.49,0-.73-.06-.59.05-1.17-.08-1.68-.37-.58.14-1.19.11-1.76-.09-.39.06-.79.03-1.17-.07-.57.02-1.15-.11-1.66-.41-.85-.5-1.4-1.4-1.47-2.38-.12-.27-.21-.55-.25-.84-.31-.58-.42-1.25-.31-1.9-.01-.08-.02-.15-.03-.23l-.03-.37c0-.12-.01-.24,0-.37-.13-.39-.18-.79-.15-1.2-.17-.64-.12-1.33.14-1.95-.02-.37.02-.75.14-1.1,0-.01,0-.02,0-.03-.34-.88-.24-1.86.25-2.66l.07-.38s0,0,0-.01v-.02c-.08-.63.04-1.26.34-1.81v-.09s0-.07,0-.1v-.42c.02-.34.08-.67.2-.98l.14-.45c.08-.33.21-.64.39-.93.1-.45.3-.87.6-1.23.15-.36.37-.69.64-.96l.03-.11c.1-.33.25-.65.46-.93l.22-.3c.06-.08.12-.16.19-.23l.31-.35s.09-.1.14-.14l.33-.33c.71-.8,1.8-1.15,2.85-.93.93.19,1.7.81,2.1,1.66.38.23.71.55.96.94.26.16.48.35.68.57.32.09.61.24.88.42.28.07.54.17.79.31.3,0,.61.03.9.11h0c.21,0,.41,0,.61.04l.14-.08c.42-.24.88-.37,1.36-.39.16-.1.34-.19.52-.27.19-.16.4-.29.62-.4.12-.13.24-.24.38-.35.19-.27.43-.5.69-.69.08-.12.16-.23.25-.33.08-.19.17-.38.28-.55.06-.24.14-.48.26-.71l.18-.42c.02-.05.04-.11.06-.16,0-.22.03-.44.07-.65-.06-.18-.1-.36-.13-.55l-.04-.33c-.04-.27-.04-.55,0-.83h0c-.13-.33-.21-.68-.22-1.03,0,0-.01-.01-.02-.02l-.31-.3c-.08-.08-.17-.17-.24-.26l-.21-.26s-.08-.1-.11-.15c-.41-.24-.76-.58-1.02-.99l-.04-.04c-.05-.05-.1-.1-.15-.16-.67-.34-1.2-.93-1.46-1.67-.31-.88-.19-1.84.29-2.6.1-.46.31-.89.61-1.25l.11-.14c.05-.53.24-1.03.54-1.46.06-.2.13-.4.23-.59.06-.38.19-.75.39-1.08.1-.42.28-.81.54-1.14.05-.16.1-.31.17-.46.03-.25.09-.5.19-.74-.09-.59,0-1.19.24-1.73-.05-.64.1-1.29.45-1.85l.63-.96c.59-.86,1.6-1.36,2.62-1.31.59.03,1.15.23,1.62.57.53.07,1.03.28,1.45.62h.05c.16.05.32.1.47.16.24,0,.48.03.71.09.38-.05.77-.02,1.15.08l.15.04c.14.04.29.09.42.15h.07c.43-.05.87,0,1.27.14.06,0,.11,0,.17-.01l.34-.05c.53-.21,1.11-.26,1.66-.15.06-.04.12-.08.19-.12l.34-.2c.16-.09.32-.17.49-.23l.37-.13c.08-.03.16-.05.24-.08.06-.05.13-.1.19-.15.22-.3.49-.56.8-.77l.23-.15c.09-.06.19-.12.29-.17.05-.4.17-.79.37-1.14-.08-.37-.1-.75-.04-1.12-.15-.27-.26-.57-.32-.87-.34-.35-.6-.78-.74-1.25-.27-.17-.52-.38-.72-.62l-.11-.14c-.27-.33-.47-.7-.59-1.11-.05-.04-.11-.09-.16-.14-.54-.23-1-.61-1.33-1.11l-.16-.24c-.06-.09-.11-.18-.16-.27-.5-.96-.47-2.19.12-3.09.02-.03.06-.1.09-.13l.2-.28c.25-.35.58-.64.95-.86.18-.54.51-1.02.95-1.38.08-.22.18-.43.31-.63l.12-.18c.31-.48.75-.86,1.26-1.1l.03-.05c.16-.32.38-.61.63-.85,0,0,0,0,0,0l.11-.26c.14-.33.33-.63.57-.89.14-.36.36-.68.62-.96.06-.14.13-.28.22-.41l.18-.28c.17-.27.38-.5.62-.7l.19-.16c.11-.25.24-.48.41-.7.08-.51.29-.99.61-1.39l.15-.2c.16-.2.35-.38.55-.54.04-.13.1-.25.16-.38v-.23c.03-.62.24-1.21.61-1.69-.06-.19-.11-.39-.13-.58l-.03-.23c-.03-.23-.03-.47,0-.7-.04-.1-.06-.21-.09-.32-.13-.14-.24-.29-.34-.45l-.09-.06c-.55-.35-.96-.86-1.19-1.47-.26-.14-.51-.32-.72-.53-.36-.17-.68-.42-.95-.72-.08-.04-.16-.09-.23-.14l-.19-.13c-.22-.15-.42-.32-.58-.52-.21-.09-.42-.21-.61-.35l-.12-.09c-.33-.25-.61-.56-.82-.92-.33-.16-.63-.39-.88-.66-.3-.1-.58-.25-.84-.43l-.19-.14c-.06-.04-.11-.08-.17-.12l-.31-.24c-.29-.08-.57-.2-.83-.36l-.33-.21c-.07-.04-.14-.09-.21-.14l-.26-.2c-.13-.1-.25-.21-.37-.32-.27-.1-.53-.24-.76-.42l-.2-.15c-.14-.11-.28-.23-.4-.36l-.23-.24-.31-.2c-.74-.13-1.41-.54-1.87-1.15l-.09-.04c-.06-.03-.12-.06-.17-.09-.23-.03-.45-.09-.67-.17l-.32-.12c-.31-.12-.6-.29-.86-.5l-.21-.17c-.16-.13-.3-.28-.43-.44-.17-.05-.34-.12-.5-.2l-.62-.3c-.41-.19-.78-.47-1.06-.82-.56-.07-1.09-.29-1.54-.65l-.4-.31c-.13-.1-.25-.21-.37-.32-.4-.08-.79-.24-1.13-.47-.74-.25-1.36-.78-1.72-1.48l-.19-.38s-.05-.11-.06-.13c-.52-1.08-.35-2.37.45-3.28l.1-.12c.45-.82,1.25-1.37,2.15-1.52.28-.31.61-.56.98-.73.46-.45,1.05-.75,1.69-.84.3-.5.74-.9,1.25-1.15.12-.12.25-.24.39-.34.25-.36.57-.66.95-.88.21-.24.46-.44.73-.59.27-.32.59-.58.97-.76.18-.29.4-.56.67-.78.29-.39.66-.69,1.09-.9.24-.39.56-.72.95-.97.23-.7.71-1.28,1.35-1.65l.1-.06c.11-.16.23-.3.37-.44.11-.25.26-.48.44-.69.12-.38.31-.73.58-1.04l.16-.24c.09-.16.2-.3.32-.44.17-.43.43-.81.76-1.13.17-.47.46-.89.83-1.22.05-.57.25-1.11.6-1.57l.32-.47c.04-.07.09-.13.14-.2l.3-.42.1-.25c.02-.06.05-.11.07-.17-.07-.68.08-1.36.45-1.93.08-.26.19-.5.33-.73.02-.12.04-.25.07-.37-.04-.39,0-.79.12-1.17l.06-.18c.09-.3.23-.58.4-.83.01-.49.14-.97.38-1.4-.08-.38-.08-.77-.01-1.15-.03-.39.01-.77.12-1.13-.02-.17-.03-.34-.02-.51v-.21c.03-.41.13-.81.31-1.17v-.08c-.02-.27,0-.53.06-.79-.03-.14-.04-.28-.05-.42l-.06-.34c-.06-.21-.09-.43-.1-.64l-.02-.19c-.13-.44-.16-.89-.08-1.34-.07-.43-.05-.87.07-1.29l-.05-.44s0,0,0-.01h0c-.18-.42-.27-.85-.27-1.28-.14-.38-.2-.79-.18-1.19-.03-.12-.06-.24-.07-.36-.25-.4-.4-.87-.44-1.35-.14-.4-.2-.82-.17-1.24v-.1s-.02-.18-.02-.18c-.02-.13-.03-.27-.03-.4-.16-.23-.29-.49-.38-.76l-.2-.54c-.08-.18-.14-.37-.18-.56-.24-.38-.39-.81-.44-1.25-.33-.47-.51-1.02-.54-1.59,0,0,0-.01,0-.02l-.23-.44-.15-.19c-.21-.27-.38-.57-.49-.9l-.09-.27c-.08-.08-.15-.16-.22-.24l-.16-.19c-.45-.56-.68-1.25-.66-1.96l-.16-.24c-.46-.31-.83-.75-1.06-1.25-.26-.3-.45-.64-.58-1.01l-.07-.06c-.09-.08-.17-.16-.25-.24l-.22-.24c-.29-.31-.5-.69-.64-1.09-.26-.2-.49-.45-.67-.72l-.21-.28c-.25-.3-.44-.64-.55-1l-.08-.05c-.53-.35-.93-.85-1.16-1.43-.13-.11-.26-.22-.37-.35-.13-.14-.24-.29-.33-.45-.26-.22-.49-.48-.66-.78-.05-.04-.1-.08-.15-.12l-.3-.27c-.07-.06-.14-.13-.21-.2l-.12-.13c-.37-.24-.69-.55-.92-.92-.14-.09-.27-.2-.39-.32l-.23-.23c-.14-.13-.26-.28-.37-.43-.12-.04-.24-.1-.36-.16l-.16-.08c-.52-.27-.94-.68-1.22-1.18-.13-.1-.26-.21-.38-.33-.25-.14-.48-.32-.68-.52-.17-.07-.34-.16-.5-.26l-.28-.15c-.41-.17-.77-.43-1.06-.76-.41-.22-.76-.53-1.03-.91h0c-.45-.11-.87-.31-1.24-.6l-.22-.17c-.05-.04-.11-.09-.16-.14-.2-.08-.39-.17-.57-.29-.64-.15-1.21-.5-1.63-1.01-.54-.65-.83-1.56-.71-2.4l.02-.16c.05-.33.15-.65.3-.94,0-.08.02-.16.03-.24l.04-.25c.12-.65.45-1.24.93-1.68l.09-.23s.02-.06.04-.09c0-.18.02-.37.05-.55l.05-.26c.08-.39.23-.76.45-1.09.11-.45.33-.87.63-1.22,0-.16,0-.32.02-.47l.04-.34c.06-.5.24-.97.53-1.38l.16-.23c.08-.11.16-.21.25-.31.01-.11.03-.22.05-.32l.08-.37c.02-.11.05-.22.09-.32l.15-.42c.04-.1.08-.2.12-.3l.17-.4c.14-.47.4-.9.75-1.24.05-.13.12-.25.19-.37.03-.16.07-.32.12-.47l.31-.86c.03-.09.07-.19.12-.28l.02-.04c-.06-.73.15-1.47.59-2.06.09-.45.28-.88.56-1.24.02-.08.05-.16.07-.24.02-.61.23-1.2.6-1.69.05-.14.11-.27.17-.4.04-.4.17-.79.37-1.15,0-.67.21-1.33.63-1.86l.04-.06c.04-.21.11-.42.2-.62.04-.5.21-.99.49-1.41.03-.13.07-.25.12-.38l.11-.27c.08-.19.17-.38.29-.55.02-.15.05-.29.09-.43l.1-.33c.03-.1.06-.19.1-.29l.14-.45c.02-.11.05-.23.09-.34l.09-.3c.08-.56.31-1.08.67-1.51l.04-.17c.1-.43.3-.84.58-1.19l.14-.25c.03-.12.07-.24.12-.35,0-.38.05-.76.19-1.12l.07-.19c.14-.38.35-.72.63-1.01.04-.12.1-.23.16-.35,0-.08.02-.16.04-.24l.04-.37c0-.58.17-1.15.49-1.64l.2-.3c.05-.24.13-.48.24-.71l.17-.36s.04-.07.05-.11c.06-.51.25-1,.56-1.42l.1-.37c.05-.18.11-.35.2-.51.05-.42.18-.82.39-1.19.04-.22.09-.43.17-.63l.12-.3c.03-.07.06-.15.1-.22.04-.45.17-.89.4-1.27,0-.5.12-1,.37-1.45l.11-.21c.05-.08.09-.17.15-.24.08-.41.24-.79.48-1.14,0-.05,0-.1.01-.15l.03-.27c.05-.47.21-.92.46-1.31.07-.36.21-.71.41-1.03.05-.19.11-.38.19-.56-.04-.26-.04-.52-.01-.78l.03-.22c.06-.49.23-.96.51-1.36.03-.41.14-.82.33-1.19.09-.54.32-1.06.68-1.48.03-.14.06-.28.11-.42-.03-.57.09-1.14.38-1.65,0-.27.05-.54.13-.79l.18-.65c.07-.27.18-.52.32-.76.05-.3.15-.6.29-.87.05-.42.19-.83.42-1.2l.03-.05c.05-.47.21-.93.46-1.32,0-.03.01-.06.02-.09l.07-.46c.02-.28.07-.56.17-.82l.1-.28c-.03-.54.08-1.08.32-1.56-.01-.26,0-.53.06-.79-.05-.36-.03-.72.05-1.08-.03-.46.04-.92.22-1.35,0-.08,0-.15.01-.23l.03-.39c.02-.18.05-.36.09-.53-.01-.13-.02-.27-.01-.41-.08-.19-.14-.39-.17-.6l-.04-.21c-.1-.54-.04-1.09.15-1.6-.04-.08-.07-.15-.1-.23l-.12-.31c-.14-.37-.2-.76-.19-1.15v-.25c.02-.25.06-.49.12-.72-.07-.22-.11-.45-.13-.68-.16-.32-.27-.67-.31-1.03l-.03-.31s0-.08-.01-.12l-.02-.29c-.29-.34-.49-.73-.61-1.15-.24-.35-.41-.74-.49-1.16-.22-.26-.4-.55-.52-.87-.15-.18-.28-.38-.39-.59-.25-.23-.47-.5-.63-.8-.11-.1-.22-.21-.31-.33-.42-.17-.79-.42-1.09-.74-.23-.12-.44-.26-.63-.43-.47-.18-.9-.48-1.23-.88-.19-.03-.37-.08-.55-.14l-.31-.11c-.14-.05-.28-.11-.41-.19-.35-.04-.7-.15-1.01-.32-.12.01-.23.02-.35.02h-.21c-.49,0-.96-.12-1.38-.34l-.86.12c-.36.04-.72.02-1.07-.06l-.28-.07c-.25.05-.51.07-.76.06-.19.06-.39.1-.59.13-.35.26-.75.44-1.18.53-.29.16-.61.27-.93.33-.11.07-.23.14-.36.2-.15.16-.32.3-.51.42-.32.38-.73.67-1.19.84-.25.44-.6.81-1.02,1.08-.07.11-.15.21-.24.31l-.21.24c-.05.05-.09.11-.14.16-.01.03-.03.06-.04.1l-.13.29c-.15.35-.37.67-.64.94-.14.3-.34.58-.58.82-.12.5-.36.96-.7,1.34-.07.31-.2.6-.36.88l-.2.32s0,.02-.02.02c-.03.22-.09.44-.18.66l-.07.27c-.06.33-.17.65-.34.95-.07.43-.23.84-.48,1.19,0,.16-.02.31-.05.47l-.04.31c-.02.56-.2,1.09-.5,1.54-.01.06-.02.12-.04.19l-.04.26c-.02.59-.21,1.15-.55,1.63-.02.08-.05.17-.08.25,0,.29-.04.57-.12.85.01.31-.02.61-.1.91.04.34.03.7-.05,1.04l-.07.31s-.02.1-.04.15l-.04.13v.04c0,.29-.03.57-.1.85l-.02.08c0,.47-.1.93-.31,1.35-.05.4-.17.78-.37,1.13,0,.04-.01.08-.02.12l-.08.42c-.02.13-.06.25-.1.37l-.18.55c.08.4.08.81,0,1.21.09.74-.1,1.5-.55,2.12l-.04.19c-.01.06-.02.11-.04.17.03.34,0,.68-.08,1,.03.23.04.47.01.71l-.03.31c-.02.23-.07.46-.15.68l-.09.25c.07.62-.06,1.25-.38,1.8,0,.16-.01.32-.04.49.08.54,0,1.08-.2,1.58.06.5,0,1.01-.19,1.48-.03.33-.11.65-.24.95.07.43.05.88-.07,1.31l-.08.28s0,.04-.02.05l-.1.48s0,.02,0,.04l-.04.34c-.04.38-.15.74-.32,1.07-.04.34-.13.67-.28.99v.19c0,.05,0,.1,0,.16l-.02.49v.32c0,.35-.06.71-.18,1.04l-.04.12c.05.43,0,.87-.13,1.28.02.36-.03.72-.14,1.07l-.05.15c.05.5-.03,1.01-.23,1.47-.02.24-.06.48-.14.71l.02.12c.08.57,0,1.13-.23,1.64.07.41.05.83-.05,1.24l-.06.23c-.06.23-.14.46-.26.67l-.05.11c-.02.09-.04.19-.07.28.05.52-.03,1.05-.25,1.53.03.36,0,.73-.1,1.08.03.56-.09,1.13-.37,1.63l-.04.33c0,.08-.02.17-.04.25l-.09.45s0,.05-.01.07c.06.47.02.94-.14,1.38.12.67.02,1.37-.31,1.98,0,.1,0,.21,0,.31l-.03.39c-.01.21-.05.41-.11.61.03.46-.04.92-.21,1.34,0,.13-.02.25-.05.37.08.35.09.72.04,1.09l-.05.54c0,.21-.04.42-.09.62l-.08.31c-.09.34-.24.67-.44.95.05.28.07.57.04.85l-.02.23c-.02.23-.07.46-.14.68.04.65-.13,1.31-.5,1.86h0s0,.02,0,.02c.17.54.18,1.12.03,1.67v.05c0,.31-.05.61-.14.91.01.57-.13,1.14-.43,1.63l-.02.18c-.02.19-.05.37-.1.55.16.67.08,1.37-.21,1.98,0,.05.01.1.02.15l.02.29c.05.65-.12,1.3-.47,1.84l-.21.39c-.35.77-1.01,1.36-1.82,1.62-.35.11-.72.16-1.09.14-.54.17-1.13.18-1.69.03l-.18-.05c-.34-.09-.66-.25-.95-.45-.1-.02-.19-.05-.28-.09h-.03s-.02,0-.02,0l-.36.02c-.14,0-.27,0-.4,0-.61.19-1.27.19-1.89-.02l-.16-.05c-.38.03-.76-.01-1.13-.13-.28.02-.56-.01-.84-.08l-.3-.07s0,0,0,0c-.58.1-1.18.03-1.73-.21l-.34-.12s-.04,0-.07,0l-.36-.02c-.22.09-.46.16-.7.2l-.16.02c-.45.07-.9.04-1.32-.09-.25.04-.52.04-.77.01l-.3-.03c-.1-.01-.2-.03-.29-.05l-.26-.05-.18.03c-.35.06-.7.05-1.04-.02-.19.03-.39.05-.58.04-.51.16-1.06.18-1.58.05h-.06s-.09.01-.14.03l-.18.05c-.45.12-.91.14-1.36.06-.59.22-1.24.24-1.85.07-.25.06-.52.08-.76.08-.48.15-.98.17-1.47.07,0,0,0,0,0,0l-.23.09c-.5.2-1.04.25-1.57.17l-.11.04c-.3.1-.62.15-.94.16-.03.01-.07.03-.1.04l-.28.1c-1.02.38-2.17.17-3-.54-.79-.68-1.17-1.73-1-2.76,0-.01,0-.02,0-.04-.37-.57-.53-1.25-.47-1.93-.04-.25-.05-.5-.03-.75-.14-.47-.16-.97-.06-1.46-.37-.71-.44-1.55-.18-2.32-.3-.53-.42-1.14-.37-1.74-.06-.22-.09-.44-.09-.66-.18-.44-.26-.91-.22-1.39-.07-.4-.06-.81.03-1.2l-.12-.38c-.15-.42-.21-.86-.16-1.3-.07-.3-.09-.6-.06-.9-.11-.33-.17-.68-.16-1.03v-.19c0-.22.04-.43.09-.65,0-.03,0-.06-.01-.09l-.09-.39c-.09-.27-.13-.55-.14-.83-.13-.28-.21-.58-.25-.89l-.04-.34c0-.06-.01-.11-.01-.17-.25-.59-.31-1.24-.16-1.86l.06-.27s0-.02,0-.04c-.08-.25-.13-.52-.15-.78-.2-.4-.32-.85-.32-1.31v-.62c-.01-.15,0-.29.01-.44-.09-.29-.13-.59-.12-.89-.14-.43-.19-.88-.13-1.33-.16-.46-.2-.95-.13-1.42-.02-.1-.04-.19-.05-.29-.23-.43-.35-.91-.35-1.41v-.21c0-.34.06-.67.17-.99-.01-.15-.01-.3,0-.45l.02-.26v-.15c-.29-.54-.41-1.15-.34-1.76v-.02c-.02-.05-.04-.1-.06-.15l-.26-.64c-.27-.6-.33-1.28-.18-1.92l.07-.39v-.02c-.09-.23-.14-.48-.16-.72l-.02-.25s0-.05-.01-.08l-.11-.95c-.01-.11-.02-.23-.02-.34-.41-.67-.55-1.47-.37-2.24l.05-.21c-.03-.15-.04-.3-.05-.45-.17-.39-.25-.8-.24-1.23-.09-.25-.15-.52-.17-.79l-.03-.32c0-.12-.01-.24,0-.35v-.31c-.21-.49-.29-1.04-.23-1.58l.03-.23s.01-.09.02-.14c-.13-.26-.22-.53-.27-.82l-.12-.45c-.08-.26-.13-.53-.13-.8l-.09-.84c-.05-.28-.07-.56-.04-.84-.15-.43-.2-.89-.14-1.35l-.02-.13c-.01-.08-.02-.16-.02-.25l-.06-.48c-.03-.15-.06-.3-.07-.46l-.07-.5c-.07-.33-.09-.68-.05-1.02v-.07c-.16-.41-.23-.86-.21-1.31l.02-.34s0-.04,0-.06c-.04-.13-.08-.27-.1-.4l-.09-.32c-.16-.38-.23-.8-.22-1.21v-.32s.01-.08.01-.12c-.3-.55-.41-1.19-.33-1.8l-.08-.15c-.28-.52-.4-1.12-.34-1.71-.02-.1-.04-.2-.06-.3l-.11-.61c-.06-.29-.08-.59-.05-.88-.2-.36-.31-.77-.35-1.18l-.08-.62c-.02-.12-.03-.23-.04-.35v-.23c-.21-.33-.34-.69-.4-1.07l-.04-.28c-.01-.08-.02-.17-.03-.26-.11-.26-.18-.53-.21-.81-.23-.38-.37-.82-.41-1.28v-.12c-.19-.34-.31-.72-.35-1.11-.16-.21-.3-.44-.4-.69l-.09-.21c-.12-.29-.2-.6-.22-.91-.16-.21-.29-.45-.39-.7-.43-.35-.76-.8-.94-1.32-.3-.26-.54-.58-.71-.94-.22-.24-.4-.5-.54-.8-.07-.07-.14-.14-.21-.21-.26-.13-.51-.31-.72-.51l-.25-.23s-.05-.04-.07-.07l-.17-.16c-.05-.05-.11-.1-.16-.16-.31-.12-.6-.3-.86-.52l-.12-.1c-.08-.07-.16-.15-.24-.23l-.25-.08c-.1-.03-.19-.07-.29-.11l-.24-.11c-.21-.1-.41-.22-.59-.36-.24-.05-.48-.13-.7-.24-.2-.03-.39-.09-.58-.16-.19,0-.38-.01-.56-.04l-.26-.04c-.21-.04-.42-.1-.62-.18-.13,0-.25-.01-.38-.03-.6.25-1.26.3-1.89.15l-.08-.02c-.2.1-.42.18-.64.23l-.2.05c-.13.03-.27.05-.41.06-.3.19-.64.32-.99.4l-.51.13c-.06.02-.13.04-.19.05l-.38.08s-.08.02-.12.02c-.21.15-.43.27-.67.36l-.28.11c-.09.04-.19.07-.29.1l-.44.12c-.1.03-.19.05-.29.06l-.13.22c-.27.46-.65.84-1.12,1.11l-.09.05c-.25.55-.65,1.01-1.16,1.33-.1.35-.27.67-.49.95-.09.26-.22.5-.37.73-.1.5-.34.98-.69,1.38l-.09.1s-.01.05-.02.07c0,.08.01.15.02.23v.36c.03.38-.03.76-.16,1.12l-.11.31c.02.38-.03.76-.16,1.12l-.09.26c-.06.17-.13.33-.21.48-.02.19-.05.37-.11.55.12.59.07,1.21-.16,1.76.03.18.04.36.04.54.14.46.17.95.08,1.41.06.32.06.65.02.97.04.22.07.44.06.66.17.55.18,1.13.03,1.69.2.42.3.89.29,1.36.05.16.08.33.1.49.26.45.4.97.4,1.51.05.22.08.43.08.65.06.13.12.28.16.42l.1.34c.02.07.04.15.06.23l.08.34c.09.4.09.81.02,1.22.02.05.04.11.06.16l.11.32c.1.29.16.6.17.91.1.25.17.52.19.79.28.4.46.87.51,1.35.24.44.37.93.37,1.45.25.31.44.68.54,1.06l.06.22c.11.38.14.78.09,1.17.16.35.25.73.27,1.12.22.37.36.77.42,1.2.19.35.3.74.33,1.15.18.24.31.52.41.81l.08.23c.1.3.15.62.15.94v.02c.1.31.14.63.14.95l.03.05c.11.19.2.38.26.59l.09.29c.07.22.12.45.14.68.17.32.28.67.32,1.03.19.44.28.91.25,1.39.01.05.03.1.04.15.25.37.41.78.47,1.21.26.33.45.71.55,1.12.26.43.4.91.43,1.41.16.41.24.84.21,1.28.1.13.2.26.28.4l.12.2c.26.45.4.95.41,1.45.28.45.44.96.46,1.49.07.19.12.38.15.57.16.27.27.56.34.86.23.42.35.88.37,1.35.09.2.17.42.21.64l.07.33s0,.03,0,.04l.13.2c.4.58.58,1.28.52,1.97.06.11.11.23.16.34l.11.29c.13.33.19.69.2,1.04l.16.19c.15.18.27.37.37.58l.13.27c.23.46.33.97.3,1.48.33.42.54.92.61,1.44.14.29.22.6.26.92.35.48.54,1.05.56,1.63.13.32.21.65.22,1,.1.24.17.49.21.75l.1.64c.56.54.88,1.29.9,2.07v.24c0,.07,0,.14,0,.21.46.55.71,1.25.7,1.96l.07.14c.09.18.16.36.21.55.31.49.47,1.05.46,1.62.07.18.12.36.16.55.3.33.52.73.64,1.16.31.52.46,1.12.42,1.71.14.27.24.56.29.85.14.22.24.46.31.71.22.34.38.72.45,1.11.13.2.23.41.31.63l.06.16c.11.32.17.66.17,1,.11.27.19.56.22.86.37.51.58,1.13.58,1.78v.25c0,1.15-.66,2.25-1.67,2.77-.25.31-.56.57-.91.76l-.24.13c-.07.04-.14.07-.22.11-.33.36-.75.64-1.22.81-.21.15-.44.26-.68.35-.1.11-.22.21-.34.3l-.38.32c-.3.28-.65.49-1.03.63l-.04.05c-.07.09-.15.18-.24.26l-.19.18c-.32.31-.69.54-1.1.68-.24.22-.51.4-.81.53-.17.39-.42.73-.74,1.01l-.19.17c-.27.24-.58.43-.91.56-.18.17-.39.31-.61.43-.18.32-.43.61-.72.84l-.47.4c-.14.12-.28.23-.44.33-.27.37-.61.67-1.01.88-.27.41-.64.75-1.08.99-.14.22-.3.42-.49.59v.04c-.09.28-.2.54-.35.79l-.21.34c-.03.05-.07.11-.11.16l-.17.24c-.25.35-.57.64-.93.85-.11.15-.24.3-.38.43l-.17.17c-.1.46-.31.89-.61,1.25-.13.36-.32.7-.58.98-.12.52-.38,1-.75,1.39-.05.12-.11.24-.18.35l-.22.37s-.05.08-.08.12l-.16.3-.08.28c-.03.1-.06.19-.1.28,0,.55-.14,1.09-.42,1.56l-.05.08c0,.19-.03.37-.08.56l-.06.24c-.09.38-.25.74-.47,1.05-.03.54-.2,1.08-.51,1.54v.02c.02.64-.16,1.28-.52,1.82l-.09.21v.1c0,.18-.02.35-.06.53.05.21.07.42.07.64v.22c0,.46-.1.91-.3,1.31-.03.26-.09.52-.19.77,0,.33-.06.65-.17.97.04.21.07.42.07.63v.26c0,.33-.06.66-.16.98.11.41.14.83.07,1.26l-.04.23s0,.04-.01.07c.06.27.08.55.07.83.09.28.14.58.14.88v.27c0,.34-.04.68-.15,1l-.06.3s0,.03,0,.04c.08.3.12.6.11.91.17.52.19,1.09.06,1.63h0c.44.59.66,1.32.6,2.06.14.31.23.63.26.97.09.19.16.4.21.6l.07.31c.06.28.09.57.07.85l-.02.25.08.44s0,.02,0,.03c.17.23.31.49.41.76l.07.13c.23.34.39.73.46,1.14l.06.32c.04.24.06.48.04.73.02.07.04.15.06.22.43.4.74.93.87,1.51l.02.04c.14.26.24.55.3.84l.02.12.05.05.17.19c.47.54.74,1.22.75,1.94h0s.2.3.2.3c.03.05.07.1.1.15l.21.34c.04.07.08.14.12.21.04.03.08.07.12.1l.21.18c.34.29.6.66.77,1.06.35.36.6.81.73,1.29l.22.32c.1.14.19.3.26.46l.09.06c.21.14.4.31.57.5l.2.23c.29.32.5.7.62,1.11l.26.32c.12.15.23.31.32.49.04.04.09.08.13.12.46.19.88.49,1.2.88.4.26.74.62.98,1.05l.15.27c.03.06.07.12.09.18.54.22,1,.6,1.33,1.07.18.13.34.28.49.45h.01s.36.18.36.18c.18.09.36.2.52.32l.35.27c.05.04.11.08.16.13l.77.62c.15.09.28.19.41.3l.08.07c.75.37,1.31,1.04,1.55,1.84l.1.34c.24.82.12,1.69-.32,2.42-.39.64-1,1.1-1.71,1.31-.23.14-.48.25-.74.32-.46.33-1.01.52-1.58.55-.39.15-.82.22-1.23.21-.5.13-1.02.12-1.52,0-.36.09-.73.11-1.09.07-.36.1-.73.13-1.1.1l-.3-.03c-.17-.02-.34-.05-.51-.1l-.32-.09c-.68.1-1.38-.03-1.98-.39-.07-.02-.14-.04-.21-.06-.46.02-.95-.07-1.39-.26-.33-.02-.65-.1-.96-.23-.46-.04-.91-.18-1.31-.42l-.21-.12c-.25-.15-.47-.33-.67-.54-.34-.08-.66-.21-.96-.41l-.09-.06c-.49-.32-.87-.77-1.11-1.29-.17-.16-.32-.34-.45-.53-.17-.14-.33-.3-.47-.47-.58-.36-1.03-.91-1.26-1.56-.21-.21-.39-.45-.54-.71-.24-.19-.44-.41-.62-.67l-.16-.24c-.13-.2-.24-.41-.32-.63l-.11-.3c-.05-.14-.09-.28-.12-.42l-.08-.11c-.47-.6-.7-1.35-.64-2.09-.04-.08-.08-.17-.12-.25l-.13-.31c-.06-.15-.12-.31-.15-.46-.31-.42-.51-.92-.57-1.45l-.03-.23c0-.05,0-.1-.01-.15-.04-.08-.08-.17-.12-.25l-.14-.34c-.1-.24-.17-.5-.2-.76l-.04-.29c-.04-.28-.03-.57.01-.85-.06-.24-.08-.49-.08-.74-.21-.8-.08-1.67.36-2.37l.04-.24c-.11-.46-.11-.93,0-1.38-.02-.18-.02-.37,0-.55-.16-.46-.2-.96-.13-1.45l.03-.17c.02-.1.04-.21.07-.31-.1-.25-.17-.52-.2-.8v-.12c-.06-.41-.02-.83.11-1.22-.01-.14-.02-.28-.01-.42-.22-.43-.33-.89-.33-1.37-.08-.21-.14-.43-.17-.65-.29-.33-.5-.73-.62-1.16-.15-.24-.26-.5-.34-.76-.21-.2-.4-.43-.55-.68-.02-.02-.04-.03-.06-.05l-.33-.26s-.06-.05-.08-.07l-.27-.23c-.11-.1-.21-.2-.31-.31-.11-.05-.22-.11-.32-.18-.37.01-.73-.06-1.08-.18l-.18-.06c-.28-.1-.54-.25-.78-.43-.08,0-.16,0-.25-.02-.29.06-.58.08-.88.06-.28.1-.58.16-.89.17h-.13c-.17.01-.34,0-.51-.02-.16.05-.32.09-.48.12-.34.17-.71.27-1.09.3-.22.1-.45.17-.68.22-.14.09-.28.16-.43.23l-.29.12c-.26.26-.55.46-.88.61-.02.03-.05.05-.07.07-.21.48-.55.9-.98,1.22-.13.29-.31.56-.53.8-.07.16-.15.31-.25.46l-.13.2c-.04.41-.17.82-.38,1.19-.02.4-.12.8-.29,1.16.05.48-.03.97-.21,1.43.01.15.01.29,0,.44.08.2.13.4.16.61l.04.25c.03.2.04.39.04.59.07.19.12.39.15.6l.03.23c.05.31.04.61,0,.92.25.35.42.76.5,1.19.07.11.12.23.17.34l.17.4c.39.27.72.62.94,1.04l.1.18c.08.14.14.29.19.43.29.21.54.48.74.79.24.19.45.41.62.67.43.09.84.28,1.2.56l.14.11c.22.17.42.37.58.6.14.08.27.17.39.28l.09.08c.47.4.8.92.96,1.5.4.66.53,1.45.36,2.2.23.41.36.87.37,1.35l.05.46c.01.08.02.16.03.24l.02.26c.25.49.36,1.03.32,1.56.09.3.14.61.14.92.27.52.39,1.1.33,1.68l.05.12c.05.12.09.23.13.35l.11.39c.04.14.07.29.09.43.06.11.12.22.17.34l.14.32c.05.12.1.25.14.38.1.13.2.26.28.41l.15.26c.17.29.28.6.34.92.09.14.17.28.23.43l.16.37c.03.06.05.12.07.19l.14.39c.38.43.62.97.71,1.54.54.5.88,1.19.95,1.92l.31.28c.42.27.76.64,1,1.06.3.23.55.52.74.85.03.02.05.04.07.06l.31.27c.11.1.22.21.31.32l.38.2c.28.15.53.34.75.56l.24.25s.01.01.02.02c.41.17.79.42,1.09.76l.08.07c.48.1.92.31,1.3.61l.2.16c.56-.06,1.13.04,1.63.28.02,0,.04,0,.06,0l.34.03c.45.04.88.18,1.26.4l.19.06c.17.05.35.11.51.19h.09c.34-.03.68,0,1.01.09l.9.19.69.03c.61,0,1.2.2,1.69.55.32.02.63.09.92.21.49-.08.99-.03,1.46.14l.45.13c.24.05.47.13.69.24h0c.42-.13.87-.17,1.32-.11l.22.03c.27.04.54.11.79.22.22,0,.45.04.66.09.41-.05.82-.02,1.21.1.61-.1,1.22,0,1.77.26.46-.05.93,0,1.36.17.19,0,.37.03.55.07.52-.18,1.08-.22,1.62-.1l.26.05c1.13.24,2.02,1.11,2.29,2.23.19.81.04,1.65-.4,2.33.07.63-.06,1.27-.37,1.82,0,.05,0,.1,0,.14v.3c0,.44-.1.88-.29,1.28-.01.13-.03.27-.06.4l-.09.39c-.04.18-.1.36-.17.52.07.39.07.79,0,1.18l-.03.15c-.05.24-.13.48-.24.7-.03.45-.17.9-.4,1.3.11.57.06,1.17-.17,1.72v.07c-.03.12-.05.23-.09.35.03.2.04.41.03.62v.17c-.03.44-.15.87-.36,1.26.01.1.02.19.02.29v.35c0,.24-.02.48-.07.71.06.49,0,.98-.18,1.44,0,.1,0,.2-.02.3.1.44.1.91,0,1.35.03.29.02.58-.03.86.05.28.05.57.02.85.09.41.1.83.02,1.25l-.05.26c-.03.17-.08.34-.15.5,0,.17,0,.34-.03.5.08.37.09.75.04,1.12.04.2.05.41.05.62v.25s.03.3.03.3c.02.18.02.35.01.53l-.03.39c.35.68.43,1.46.23,2.19.23.49.32,1.04.26,1.57.04.16.06.32.08.49l.09.16c.21.35.35.74.41,1.14l.03.23c.05.33.04.66-.03.99.3.47.47,1.01.48,1.57.07.11.14.23.19.35l.14.3c.18.39.28.82.28,1.26v.39s0,.07,0,.11v.07c.07.13.13.27.19.41.43.46.71,1.05.78,1.69.24.33.41.71.5,1.11l.04.17c.18.25.32.53.42.82.44.38.75.88.91,1.45l.04.12c.18.19.34.41.46.65.27.27.49.59.64.94.39.28.72.65.94,1.08.35.23.65.52.88.88l.12.08c.37.23.68.53.92.88l.08.11c.52.32.92.78,1.17,1.33.09.1.18.21.26.32.5.34.88.82,1.11,1.39l.22.47c.04.08.08.16.11.24l.16.41s.03.07.04.11c.55.47.91,1.13,1.01,1.84.1.22.18.44.23.68,0,.01.02.02.02.04l.26.38c.03.05.07.1.1.16l.18.31c.25.43.39.92.4,1.42v.33c.01.05.01.1,0,.15,0,0,0,0,0,0l.15.35s.04.08.05.12l.11.26c.19.46.25.96.2,1.44.03.08.05.17.07.26l.07.33c.05.23.07.47.07.71v.08c.09.37.11.76.05,1.13.12.49.12,1.01-.01,1.51,0,.08,0,.16,0,.24.15.43.2.9.14,1.36.05.36.04.72-.03,1.07.05.37.02.75-.07,1.12,0,.02,0,.03,0,.05l.05.38c.02.13.03.27.03.4v.41c0,.24-.03.47-.08.7l-.21.88c-.05.2-.12.39-.21.58-.02.23-.06.47-.13.69.06,1.44-.92,2.71-2.32,3.04l-.59.17c-.36.13-.74.2-1.12.19h-.23s-.12,0-.12,0c-.46.06-.93.01-1.37-.14h-.07s-.3.16-.3.16c-.47.22-.98.32-1.5.29l-.62-.02s-.05,0-.08,0c-.5.2-1.06.26-1.6.16-.38.2-.81.31-1.23.33-.38.16-.78.24-1.19.23-.49.28-1.05.41-1.62.38-.29.13-.6.22-.91.26-.09.04-.18.08-.27.11,1.5.1,2.83,1.19,3.19,2.73,0,.03.01.07.02.1.26,1.37-.28,2.69-1.31,3.47.16.04.32.09.47.15.37-.08.76-.09,1.14-.02l.17.03c.17.03.34.07.5.13.54-.13,1.11-.12,1.65.06.04,0,.08,0,.12,0,.7-.23,1.48-.21,2.17.1l.41.04Zm-8.23-.87h-.04s.03,0,.04,0Zm68.3-.29s.02.01.04.02l-.04-.02Zm-80.38-104.43c.36.04.71.14,1.04.3l.19.09s.06,0,.09-.01v-.02s-.41-.57-.41-.57c-.08-.11-.14-.22-.21-.34-.67-.24-1.25-.72-1.61-1.36-.39-.3-.7-.7-.91-1.15l-.1-.21-.37-.44c-.18-.21-.32-.44-.43-.69l-.35-.26c-.54-.41-.93-.98-1.1-1.64h0s-.24-.3-.24-.3c-.09-.11-.17-.22-.24-.34-.3-.27-.53-.6-.7-.97-.52-.39-.91-.95-1.09-1.59l-.06-.22s0-.04-.01-.05l-.4-.49c-.28-.33-.48-.72-.59-1.14,0,.01,0,.03,0,.04.13.42.17.86.11,1.29.17.32.29.67.34,1.02.35.5.54,1.11.53,1.74.05.1.1.2.14.31l.26.66c.05.12.08.23.11.35.3.38.51.82.6,1.29.39.36.67.83.83,1.34.02.02.03.05.05.07,0,0,.06.09.06.09l.02.03c.4.27.74.63.98,1.07.11.1.22.21.31.32.38.22.7.52.94.87.03.02.06.04.08.06l.56.37c.11.07.22.16.32.25.44-.01.86.06,1.26.22Zm86.11,37.44c-.18,0-.35-.02-.53-.05-1.25-.22-2.22-1.21-2.43-2.46l-.02-.12c-.31-.49-.46-1.06-.45-1.64-.13-.23-.23-.47-.3-.72l-.06-.21c-.14-.52-.14-1.06,0-1.58l-.07-.18c-.1-.28-.17-.58-.18-.88l-.1-.19c-.19-.35-.31-.74-.35-1.13-.17-.33-.27-.7-.3-1.07-.06-.12-.11-.25-.15-.37l-.1-.31c-.1-.33-.15-.67-.14-1.02v-.21c-.12-.26-.2-.54-.24-.83-.33-.44-.54-.97-.6-1.52-.09-.88.22-1.77.83-2.4s1.48-.98,2.36-.91l.48.03c.19.01.37.04.55.09l.23.06c.65.17,1.22.55,1.62,1.08l.28.17c.4.05.79.17,1.15.38l.15.08c.32.19.61.43.84.71.31.16.6.38.84.65.29.11.56.26.81.44,0,0,.01,0,.02,0l.26.08c.75.21,1.38.71,1.77,1.38l.18.31c.08.14.15.28.2.42.18.47.24.96.18,1.44.08.67-.08,1.34-.43,1.91-.09.41-.26.8-.51,1.13-.04.13-.08.26-.14.38l-.09.21c-.11.24-.24.46-.41.66-.06.25-.15.49-.26.72l-.07.14c-.2.37-.47.7-.79.96-.12.38-.32.73-.58,1.04-.07.35-.2.69-.39,1l-.48.81c-.54.94-1.54,1.51-2.6,1.51Z"/>
      <path class="cls-2" d="m35.24,74.82c-13.94-1.35-15.68-15.96-15.74-16.57-.07-.65-.62-1.15-1.27-1.15h-.03c-.67.02-1.21.53-1.25,1.19-.04.67-1.28,16.52-15.65,16.52-.69,0-1.26.55-1.29,1.23-.02.69.5,1.28,1.19,1.33,14.24,1.06,15.68,16.54,15.74,17.22.06.66.6,1.18,1.27,1.18h0c.66,0,1.21-.49,1.28-1.15.02-.17,1.9-16.79,15.67-17.25.68-.03,1.21-.56,1.24-1.24.03-.67-.49-1.25-1.16-1.32Z"/>
      <polygon class="cls-5" points="135.57 189.93 135.38 189.62 135.12 189.54 134.42 189.43 134.3 189.28 134.09 189.03 133.62 188.94 133.52 188.86 133.1 188.49 133.07 188.45 132.89 188.22 132.2 188.22 132.09 187.87 131.95 187.45 131.8 187.37 131.22 187.34 131.12 187.28 130.7 187.02 130.7 187.02 130.3 186.78 129.71 186.51 129.63 186.34 129.48 186.04 129.26 185.98 128.77 185.95 128.78 185.98 129.08 186.33 129.11 186.41 129.32 186.93 129.33 187.02 129.35 187.35 129.76 187.81 129.72 188.05 129.64 188.55 129.63 188.95 129.72 189.26 130.11 189.8 130.06 190.03 130 190.28 130.43 190.67 130.37 190.95 130.29 191.3 130.43 191.55 130.92 192.14 130.85 192.4 130.75 192.76 130.87 193.06 131.15 193.66 131.11 193.82 131.01 194.37 131.01 194.39 130.9 194.78 130.95 194.99 131.45 195.47 131.44 195.69 131.42 196.26 131.42 196.31 131.36 196.55 131.73 196.93 131.74 197.13 131.76 197.59 131.79 197.76 131.87 197.62 131.87 197.62 132.12 197.18 132.12 197.18 132.32 196.87 132.32 196.27 132.43 196.13 132.77 195.71 132.78 195.69 132.98 195.49 132.92 194.88 133.1 194.71 133.53 194.3 133.58 194.26 133.98 194.05 134.05 193.91 133.85 193.05 134.24 192.88 134.64 192.7 134.73 192.49 134.83 191.83 135 191.7 135.19 191.56 135.09 190.92 135.38 190.74 135.57 190.63 135.45 190.08 135.57 189.95 135.57 189.93"/>
      <path class="cls-4" d="m153.17,186.63l.24-.4.21-.36-.59-.51-.02-.31v-.07s-.22-.55-.22-.55l-.06-.14-.42-.29-.1-.33-.06-.2-.64-.34-.24-.15-.09-.35-.02-.06-.29-.5v-.03s-.34-.43-.34-.43l-.15-.18-.52-.03-.07-.2-.1-.33-.65-.05-.09-.21-.09-.2-.63-.23-.19-.13-.1-.42-.1-.42-.88.05-.12-.09-.15-.41-.03-.07-.34-.48-.15-.2-.61-.03-.16-.22-.02-.02-.37-.38-.12-.13-.59-.07-.28-.21h-.01s-.38-.3-.38-.3h-.01s-.4-.29-.4-.29l-.07-.05-.52-.13-.33-.21-.26-.19-.15-.44-.13-.39-.83.1-.2-.15-.33-.35-.03-.04-.43-.32h-.01l-.42-.27-.38-.29-.16-.11-.46.03-.12-.21-.06-.1-.49-.36-.03-.03-.47-.23-.4-.25-.1-.06-.61-.05-.32-.12-.21-.17-.16-.47-.1-.29-.8-.13-.41-.11-.4-.2h0s-.32-.15-.32-.15l-.22-.34-.08-.13-.48-.21-.27-.31-.19-.23-.72.16-.2-.16h-.01s-.3-.23-.3-.23l-.19-.4-.11-.2-.78-.23-.51-.02-.32-.22-.05-.04-.36-.11-.19-.38-.03-.06.35-.39.13-.25.28.06.14.02.61-.24.13-.05.4-.52.21-.23.36-.04.32-.04.16-.5.24.05.21.03.58-.41.4-.24h.01s.43-.3.43-.3l.15-.1.13-.44h.24s.28-.03.28-.03l.33-.6.31-.18.12-.07.24-.45.31-.14.14-.06.25-.38.35-.06.34-.05.11-.55h.25s.16,0,.16,0l.71-.51.11-.63.23-.18.07-.06.19-.28.4-.03h.18s.65-.63.65-.63l.02-.48.2-.05.1-.02.51-.35.16-.12.17-.75.08-.3.28-.16v-.02s.47-.29.47-.29l.11-.07.22-.42.35-.17.31-.15-.04-.56.21-.04.46-.09-.1-.91.17-.2.04-.04.23-.38.34-.26.17-.14.05-.51.26-.17.08-.05.35-.49.09-.14v-.34s.31-.08.31-.08l.25-.07.28-.71.18-.46.05-.13-.08-.52.17-.22.02-.02.27-.41.3-.39h.01s.28-.47.28-.47l.02-.04.18-.45.25-.38.08-.13v-.69s-.01-.03-.01-.03l-.05-.37.2-.23.09-.11.05-.4.35-.23.34-.22-.27-.72.14-.21.14-.21-.19-.64.06-.18.34-.31.08-.07.24-.58.08-.2-.21-.47.16-.2.08-.1.09-.56.19-.4.1-.23-.3-.59.08-.28.03-.13-.08-.37.25-.26.26-.27-.4-.73v-.21s.25-.35.25-.35l.09-.14-.02-.66h0s-.02-.38-.02-.38l.17-.37.1-.2-.26-.63-.02-.41v-.05l-.13-.49-.02-.43v-.07s-.12-.39-.12-.39l.11-.34.06-.18-.17-.45.14-.32.07-.15-.12-.63-.05-.47h0s-.07-.51-.07-.51v-.08s-.18-.33-.18-.33l.13-.32.13-.33-.44-.41.1-.22.12-.26-.32-.45.13-.31.15-.38-.7-.46v-.33l-.16-.44.03-.41v-.06l-.08-.5.02-.47v-.08s-.16-.56-.16-.56l-.03-.11-.36-.42-.12-.36v-.03s-.17-.38-.17-.38v-.43s-.02-.22-.02-.22l-.37-.32.06-.28.04-.19-.39-.66-.23-.24.06-.33.04-.19-.36-.57-.18-.41v-.03s-.3-.46-.3-.46v-.03s-.3-.36-.3-.36l-.12-.36-.09-.46-.04-.2-.56-.4-.16-.19.02-.38v-.06l-.12-.57v-.08s-.32-.51-.32-.51h0s-.26-.4-.26-.4l-.19-.43-.09-.19-.52-.18-.03-.23-.03-.22-.4-.26.02-.32.02-.28-.64-.46-.35-.3-.22-.24-.08-.39-.09-.53-.06-.33-.79-.17-.16-.25v-.02s-.25-.29-.25-.29l-.06-.43v-.09s-.26-.53-.26-.53l-.09-.18-.68-.26-.21-.14-.08-.35v-.03s-.19-.53-.19-.53l-.11-.33-.55-.02.02-.19.04-.48-.71-.08v-.23s-.02-.32-.02-.32l-.74-.3-.3-.26-.33-.34-.05-.05-.33-.21-.12-.37-.08-.23-.63-.25-.23-.22-.22-.39-.04-.09-.46-.38-.09-.08-.62-.15-.16-.08-.05-.42-.04-.35-.74-.16-.24-.25-.06-.07-.38-.19-.16-.36-.12-.27-.76-.06-.33-.21-.03-.02-.36-.15-.21-.32-.1-.17-.52-.15-.21-.3h0s-.32-.44-.32-.44l-.06-.08-.51-.31-.14-.08-.56.02-.22-.17-.34-.36-.1-.11-.55-.13-.3-.25-.13-.11-.52-.04-.05-.06.02-.16.21-.35.07-.1.03-.61.04-.25.34-.21.15-.1.21-.61.17-.43.21-.43.06-.11-.03-.61.05-.26.28-.26.18-.17-.04-.5.24-.17.11-.07.28-.56.04-.08.06-.61v-.03l-.03-.53.04-.34.16-.23.44-.27.15-.09.22-.64.04-.12-.08-.58.08-.37.14-.42.2-.42v-.04s.12-.34.12-.34l.35-.24.17-.11.12-.6.23-.33.06-.09.08-.57.15-.41.16-.44.21-.43v-.02s.2-.45.2-.45l.08-.18-.19-.5.15-.14.04-.05.3-.48.09-.15-.05-.39.27-.15.27-.15-.03-.75.14-.36.04-.08v-.45s.21-.25.21-.25l.07-.08.14-.47.28-.31.18-.21-.14-.54.19-.16.11-.11.18-.63.03-.13-.13-.47.17-.22.31-.43.08-.11.04-.52.21-.31.12-.16-.08-.51.21-.2.11-.12.09-.61.11-.27.36-.27.26-.19-.15-.76.1-.33.18-.43.02-.05.1-.51.15-.44.02-.05.05-.33.31-.23.19-.12.08-.71.08-.34.26-.32.04-.04.25-.49.03-.05.12-.47.22-.36.11-.17-.13-.64.07-.19.35-.27.15-.12.12-.6.21-.37.05-.09.06-.59.1-.47v-.49l.2-.3h0s.27-.44.27-.44l.05-.08.1-.52.17-.36.28-.39.11-.16-.06-.5.22-.21.11-.1.14-.64.11-.39.23-.37.09-.13-.03-.48.24-.23.16-.16-.03-.64.12-.3.27-.36.15-.19-.13-.52.2-.17.11-.1.17-.63.03-.13-.11-.49.11-.2.38-.31.25-.2-.17-.6.2-.16.09-.09.22-.59.03-.09-.02-.59.03-.26.29-.24.24-.19-.11-.61.19-.21.1-.12.09-.58.19-.38v-.02s.19-.49.19-.49l.05-.15-.2-.64.03-.22.28-.27.1-.09.17-.61.02-.09-.05-.43.2-.26.11-.14v-.5s.2-.23.2-.23l.41-.37.26-.24-.22-.55.17-.13.36-.25-.38-.74.11-.18.02-.04.23-.49.05-.12-.03-.56.11-.38h0l.1-.37.29-.3.18-.19-.1-.53.22-.2.19-.19-.1-.61.17-.27.02-.02.23-.48.04-.1v-.42s.25-.26.25-.26l.12-.13.05-.64.1-.44v-.04s.04-.47.04-.47l.12-.35.24-.4.15-.26-.26-.45.17-.13.12-.11.16-.64.03-.13-.16-.5.13-.32.06-.15-.14-.55.1-.37.03-.09-.06-.43.2-.33.09-.15-.07-.64.03-.39.16-.43.05-.14-.11-.52.12-.37.07-.23-.4-.62-.04-.21.2-.35.02-.06.14-.57.03-.08-.04-.58v-.16s-.44-.54-.44-.54l-.12-.31v-.25s.3-.43.3-.43l.16-.23-.33-.75-.15-.31.09-.36.07-.27-.47-.5-.03-.31-.03-.49v-.51s-.01-.15-.01-.15l-.4-.59-.28-.28v-.35s-.02-.2-.02-.2l-.41-.38-.03-.33v-.03l-.1-.54-.05-.25-.49-.23v-.55l-.49-.28v-.7l-.68-.19-.06-.25-.05-.2-.5-.32-.21-.34-.07-.12-.58-.31-.03-.02-.34-.11-.14-.31-.13-.29-.55-.03-.09-.27-.14-.39-.7.1-.12-.2-.03-.05-.4-.44-.1-.1-.63-.18-.04-.02-.49-.05-.31-.12-.32-.31-.23-.21-.51.18-.15-.22-.12-.17-.71-.14-.14-.03-.63.24h-.21l-.28-.27-.11-.1-.65-.11-.12-.02-.59.18-.46.07-.4.05-.33-.08-.46-.27-.36-.21-.42.47-.19-.13-.34-.24-.55.51-.29-.05-.16-.03-.61.26-.11.05-.29.34-.28-.02h-.24s-.31.32-.31.32l-.34-.11-.39-.12-.37.66-.29.03-.23.03-.36.56-.32.17-.13.06-.19.33-.36-.02h-.25l-.51.62-.28.47-.02.03-.11.22-.37.05-.37.04-.16.8-.21.24-.35.29-.11.09-.2.62-.13.29-.33.2-.23.14-.04.5-.3.11-.17.05-.47.77.14.49-.18.09-.16.09-.24.64-.02.04-.09.46-.2.32-.31.38-.11.13v.62s-.15.37-.15.37v.04s-.09.43-.09.43l-.25.32-.1.13v.52s-.22.27-.22.27h0s-.31.46-.31.46l-.14.19.17.68-.07.39v.04s-.01.31-.01.31l-.32.24-.22.17.08.72-.1.42v.05s-.02.38-.02.38l-.24.3-.07.08-.14.55-.18.43-.04.1.03.51-.15.35-.06.15.1.46-.19.27-.16.22.27.66-.07.31-.13.46-.03.07v.51s-.1.41-.1.41l-.02.07v.4s-.22.3-.22.3l-.13.16.06.51-.22.26-.11.13-.03.63-.08.42-.15.45v.02s-.14.49-.14.49h0s-.13.48-.13.48l-.05.17.2.47-.13.23-.14.22.23.53-.15.2-.03.05-.23.52-.02.05-.11.52-.13.46-.03.11.08.45-.18.3-.12.21.24.64-.03.31-.12.36-.27.4-.2.3.35.49-.14.13-.07.06-.24.56-.07.15.13.57-.08.38-.02.1.09.42-.19.28-.03.05-.16.54-.06.21.24.43-.15.17-.18.2.12.51-.22.24-.11.11-.1.65-.03.17.26.51-.08.28v.02s-.13.48-.13.48v.03s-.08.51-.08.51v.03l-.04.34-.29.32-.17.2.13.55-.18.26-.09.13-.04.64h0s.01.53.01.53l-.02.49h0v.42l-.14.37-.22.46-.12.23.26.44-.17.15-.25.24.28.69-.1.31h0s-.12.51-.12.51l-.03.1.07.42-.19.29-.1.16.06.52-.19.3-.12.18.17.72.03.24-.26.26-.1.1-.14.64-.04.18.31.54-.06.22-.22.42-.04.06-.09.48-.23.39-.15.25.27.47-.16.17-.1.09-.15.63-.04.17.19.44-.15.22-.15.21.2.54-.16.24-.06.08-.11.59v.03s-.06.5-.06.5l-.09.45-.13.47-.03.13.12.46-.17.28-.07.11v.64s-.01.09-.01.09l.14.39-.15.26-.02.04-.2.52-.04.1.05.59-.03.39-.17.4-.06.15.12.5-.16.3-.05.1v.53s-.18.38-.18.38l-.08.2.27.61-.05.34v.02s-.03.48-.03.48l-.08.31-.33.35-.13.13-.05.63-.12.43-.04.15.19.58-.02.23-.27.34-.23.28.35.54-.14.15-.08.08-.2.59-.02.05-.05.52-.12.45-.05.18.29.55-.09.29v.06s-.01.46-.01.46l-.18.37-.07.16.11.45-.21.25-.1.12-.09.63h0s-.04.46-.04.46l-.14.41-.04.12.07.63v.02s.08.33.08.33l-.19.27-.05.08-.14.57-.03.13.15.6.02.29-.2.31-.02.04-.19.42-.15-.09-.27-.17-.65.39-.18-.05-.37-.29-.1-.07-.57-.11-.44-.16-.1-.03-.6.02h-.02l-.42.02-.38-.14-.23-.08-.55.34-.2-.07-.43-.25-.25-.15-.49.26-.2-.15-.2-.17-.65.19-.3-.07-.43-.21-.24-.11-.54.29-.26-.12h0l-.49-.19-.07-.03-.58-.03h0l-.45-.03-.45-.1-.21-.05-.6.38-.16.02-.31-.28-.28-.25-.69.43-.3-.04-.48-.1h-.05s-.56,0-.56,0h-.04l-.41.06-.38-.12-.15-.05-.57.16-.4-.02h-.1s-.45.15-.45.15l-.29-.07-.45-.22-.28-.14-.67.49-.18.05-.32-.2-.24-.15-.72.36-.3.12-.34-.1h0l-.51-.14-.2-.06-.45.26-.29-.11-.28-.1-.37.33-.19-.15-.17-.13-.7.09-.12.02-.51.32-.23.09-.35-.15-.2-.09-.65.28-.34.11-.4-.05-.15-.02-.58.29-.28.1.1-.46v-.11s-.13-.56-.13-.56l-.04-.44-.02-.17-.35-.39.05-.26v-.09s-.08-.46-.08-.46l.13-.39.08-.24-.32-.45.1-.26.05-.13-.1-.57v-.46s.01-.19.01-.19l-.33-.36.08-.23h.01s.19-.53.19-.53l.07-.18-.22-.61-.08-.43-.02-.16-.25-.26.14-.21.21-.33-.44-.47.12-.21.19-.35-.54-.5.05-.22.04-.15-.13-.39.22-.32.17-.26-.37-.68-.11-.43v-.02s-.13-.34-.13-.34l.09-.36.06-.2-.21-.38.18-.28.2-.33-.53-.59v-.19s.18-.44.18-.44l.06-.18-.2-.61-.07-.46v-.03s-.14-.38-.14-.38l.08-.39.05-.22-.39-.53-.04-.34-.02-.48v-.11s-.22-.41-.22-.41l.06-.27.23-.47.09-.2-.27-.69-.11-.29.12-.33.12-.32-.56-.53v-.28s-.01-.36-.01-.36l.24-.42.21-.39-.56-.42.09-.14.19-.31-.44-.54.06-.27.04-.1-.1-.59v-.05s-.14-.33-.14-.33l.15-.34.1-.22-.3-.58v-.38s-.01-.15-.01-.15l-.31-.45v-.21l.24-.43.1-.18-.18-.6.03-.42v-.03s-.03-.54-.03-.54v-.02l-.08-.52v-.09s-.25-.4-.25-.4l.04-.34h0l.07-.51.03-.18-.38-.58-.17-.44v-.02s-.15-.32-.15-.32l.08-.35v-.03l.08-.54v-.04s0-.54,0-.54v-.08l-.17-.49-.04-.44v-.02s-.07-.5-.07-.5l-.04-.38.12-.43.07-.22-.44-.67-.19-.28.07-.31h0s.12-.51.12-.51l.04-.15-.15-.45.13-.37.12-.34-.49-.38.1-.15.18-.29-.47-.62-.03-.32.02-.43.11-.47.05-.25-.41-.47.03-.23.16-.47.04-.1-.04-.6-.02-.17-.41-.48-.06-.36v-.03s-.15-.44-.15-.44v-.44s-.01-.02-.01-.02l-.07-.52v-.02l-.06-.32.22-.38.2-.35-.57-.52.04-.25v-.07s-.06-.55-.06-.55l-.02-.48v-.03l-.11-.49-.03-.47v-.03l-.1-.44.05-.42v-.02s.01-.53.01-.53v-.14s-.25-.45-.25-.45l.02-.34.06-.49.02-.14-.22-.56-.08-.43v-.04s-.18-.42-.18-.42v-.32s.15-.46.15-.46l.06-.21-.39-.67-.16-.26.1-.31.03-.09-.05-.59v-.11s-.33-.55-.33-.55l-.16-.29.07-.33.03-.13-.17-.55-.07-.46v-.02s-.07-.32-.07-.32l.2-.38.15-.28-.49-.68-.21-.33-.03-.38v-.02l-.08-.48-.02-.44.04-.47.02-.23-.46-.46-.04-.28v-.63l-.22-.31.17-.32.22-.44-.8-.43-.02-.17.08-.49.04-.33-.46-.28.09-.22.08-.19-.32-.79-.47-.34-.09-.21.04-.45v-.1s-.19-.58-.19-.58l-.05-.17-.39-.25v-.28s.02-.26.02-.26l-.66-.48h0l-.27-.2-.07-.32-.02-.12-.38-.48-.03-.04-.32-.25-.1-.35-.06-.19-.36-.21v-.36s.03-.42.03-.42l-.73-.17-.08-.24-.09-.28-.71-.15-.25-.23h0s-.27-.26-.27-.26l-.16-.42-.12-.34h-.81s-.12-.08-.12-.08l-.14-.45-.12-.38-.89.05-.34-.11-.24-.11-.19-.45-.21-.46-.82.35-.17-.13-.12-.09-.51-.04-.32-.21-.18-.13-.63.14-.26-.05-.36-.27-.24-.18-.49.23-.24-.19-.29-.22-.78.48-.29.14-.3-.07-.49-.18-.12-.05-.62.09-.15.02-.44.38-.2.05-.43-.21-.43-.2-.47.85-.27.05h-.01l-.47.14-.38.08-.48-.06-.33-.05-.41.63-.28.11-.44.12-.52.06-.12.02-.52.38h0l-.42.28-.06.05-.36.49-.02.02-.21.36-.33.18-.05.03-.41.36h0s-.36.36-.36.36l-.11.1-.08.39-.3.08-.15.04-.48.55-.26.51-.03.07-.07.42-.25.21-.18.15-.02.47-.3.14-.4.18.22.79-.14.15-.39.36-.15.13-.03.59-.22.33-.13.19.23.74v.36s-.12.37-.12.37l-.17.46-.04.11.06.52-.09.26-.34.36-.22.22.21.57-.18.25-.13.17.11.72.02.06.12.26-.22.22-.15.16.04.72v.07s.16.45.16.45l-.07.37-.04.21.23.33-.18.2-.31.35.49.52-.12.18-.19.26.34.59-.08.31-.06.21.27.41-.14.27-.06.09-.02.63v.02s.03.54.03.54l.02.19.35.35-.08.23-.09.24.29.43-.13.29-.17.38.68.48v.23s-.02.06-.02.06l.1.4-.13.41-.1.29.53.55.1.34.08.34-.11.42v.05s-.04.57-.04.57v.16l.33.51.11.32-.04.4-.02.17.27.44-.04.35-.02.14.26.58.05.12.26.2-.1.22-.19.38.64.47v.25s0,.05,0,.05l.09.54v.03s.18.5.18.5l.03.09.35.4.06.22-.14.42-.03.1.04.6v.23s.39.26.39.26l-.1.22-.09.22.36.75.26.23-.08.24-.11.33.52.44v.27s-.04.51-.04.51l-.02.28.61.43.08.23v.51l.14.41-.1.42-.04.19.36.61h0l.23.39.09.28-.1.42-.07.3.5.4-.02.27v.16s.25.42.25.42l-.05.36-.02.12.19.55.09.45.02.13.31.39v.34s.02.1.02.1l.26.54.03.07.3.34.04.34.02.16.28.31-.1.29-.12.35.44.33-.11.23-.09.19.21.66.02.06.3.49.02.03.34.4.12.2-.13.36-.09.24.47.66.22.27-.02.34v.12s.2.46.2.46v.41s0,.2,0,.2l.38.43.05.34.02.15.24.29-.14.32-.13.31.54.52.07.33v.02l.12.49.02.08.32.5.15.22-.14.36-.07.18.24.64.02.05.29.44.11.29-.06.41-.02.14.25.59.02.04.31.47.02.02.32.39.14.27-.04.39h0s-.04.55-.04.55v.17s.41.63.41.63l.29.24-.05.26-.04.26.35.34-.13.28-.15.35.69.58.13.17-.09.34-.08.27.4.41-.07.3-.05.22.36.51.06.38h0l.09.5v.03l.13.5.02.08.32.5.04.07.33.28v.24s-.09.51-.09.51l-.03.17.29.58.17.43.06.14.3.22-.09.24-.09.23.37.63.19.39.11.43.02.11.23.28-.12.33-.09.27.42.51.03.35v.05s.17.54.17.54l.05.15.46.34.07.3.03.11.22.29-.11.34-.04.13.13.63.04.16.32.28-.07.26-.08.33.54.43v.29s.03.2.03.2l.36.32-.06.27-.08.3.57.5.06.16-.17.42-.16.41.56.33-.08.19-.07.17.22.65.06.16.44.29v.33l-.05.02h0l-.48.21-.14.07-.33.51-.24.13-.45.04-.32.03-.23.65-.24.04-.14.03-.33.28-.43-.04-.36-.03-.32.78-.29.22h-.02s-.31.3-.31.3l-.4.13-.08.03-.47.36-.05.04-.35.42-.19.18-.45-.02-.43-.02-.16.66-.25.02h-.18s-.54.52-.54.52l-.33.47-.03.04-.19.46-.19.17-.44.07-.27.04-.22.47-.31.03-.26.02-.41.69-.21.4-.3.24h-.01s-.29.26-.29.26l-.42.13-.27.08-.16.58-.26.09h-.04s-.49.27-.49.27l-.23.13-.06.5-.24.04-.17.03-.52.56-.18.41-.31.19-.14.09-.25.64v.03s-.14.48-.14.48l-.21.34-.17.24-.44.13-.26.07-.21.61-.28.25-.04.03-.31.41-.33.36-.16.18.06.48-.2.09-.33.13.03.68-.22.17-.07.05-.32.49-.09.13.03.45-.23.15-.16.1-.17.6-.22.37-.27.4-.03.05-.2.52v.02s-.13.43-.13.43l-.23.36-.12.18.14.6-.13.22-.32.35-.18.19.16.72-.06.24-.27.31-.03.02-.31.45-.17.23.24.57-.15.17-.07.08-.17.57-.13.5-.02.07.03.43-.2.29-.04.05-.2.52v.03s-.14.5-.14.5l-.02.05v.46s-.17.38-.17.38l-.09.19.26.65v.22l-.25.31-.16.19.13.48-.24.24-.29.28.33.54-.17.17-.19.17.11.77v.04s.15.47.15.47v.26l-.25.35-.06.11-.07.62-.02.19.35.49-.04.23-.2.43-.13.27.35.48-.11.22-.14.25.38.61v.27s-.14.42-.14.42l-.02.06-.05.51-.13.46-.06.22.29.42-.12.26-.16.32.42.43-.12.2-.09.16.13.68.11.5h0s.14.5.14.5l.04.12.31.34-.05.25-.12.52-.08.32.52.39-.06.22-.06.22.39.55.07.31-.03.44v.05s.06.55.06.55v.02s.1.45.1.45l-.02.46v.25s.54.45.54.45l.12.33.02.05.27.39.06.32-.06.48v.11s.19.5.19.5v.44s.01.11.01.11l.27.55.07.15.51.26.05.26v.07s.24.44.24.44l.08.39.03.5v.25s.66.43.66.43l.17.19v.35s0,0,0,0l.04.56.02.16.42.5.26.37.21.34.1.43.06.22.65.34.2.18.04.35.03.28.51.24.02.28v.15s.41.5.41.5l.23.32.12.42.04.16.57.42.39.26.2.23.11.41.02.11.4.47.27.33.18.42.06.13.45.31.2.35.13.24.64.05.09.2.08.18.51.23.15.27.18.47.02.06.33.47.08.12.62.27h.04s.31.09.31.09l.07.27.07.26.55.18.13.3.1.23.73.18.36.17.35.27.36.31.38.33.03.03.43.26.35.3.05.04.3.14.1.34-.16.03h-.1s-.44.28-.44.28l-.39.04h-.2s-.35.4-.35.4l-.23-.06-.23-.06-.48.33-.31-.06-.17-.02-.39.18-.3-.17-.17-.09-.69.14h-.02s-.33.11-.33.11l-.34-.15-.23-.1-.59.33-.3-.03-.43-.12-.45-.2-.21-.1-.48.25-.2-.15-.09-.06-.53-.12-.4-.2-.2-.1-.47.16-.18-.18-.19-.18-.65.11-.3-.16-.11-.07h-.54l-.21-.12-.23-.39-.06-.1-.51-.33-.14-.09-.61.03-.09-.06-.06-.45-.05-.3-.58-.2-.13-.29-.07-.16-.43-.23-.12-.3-.1-.28-.54-.09v-.19s-.02-.12-.02-.12l-.33-.52-.05-.08-.32-.23-.04-.32-.04-.28-.69-.3-.16-.24-.11-.3.04-.47.03-.28-.63-.46-.1-.13.12-.37.05-.17-.24-.62-.02-.04-.26-.44-.13-.31.02-.4.02-.27-.55-.4-.03-.22.05-.47v-.19s-.39-.54-.39-.54l-.14-.34-.04-.29.16-.42.09-.23-.29-.5.06-.31.04-.22-.2-.28.18-.14.17-.14.05-.69.08-.45.15-.46.06-.22-.26-.41.16-.17.28-.3-.37-.54.16-.18.29-.34-.61-.68.03-.16.25-.42.03-.05.16-.57.07-.31-.63-.55v-.13s.23-.39.23-.39l.15-.23-.27-.56.1-.35.05-.17-.29-.68-.18-.3.09-.34.06-.23-.34-.49v-.36s0-.04,0-.04l-.06-.55-.03-.28-.62-.31-.05-.26-.02-.1-.29-.44-.1-.42v-.02s-.2-.5-.2-.5l-.07-.19-.46-.22-.05-.31-.06-.25-.67-.31-.33-.26-.27-.23-.19-.45-.15-.34-.63.06-.12-.26-.13-.28-.85-.05h-.07s-.51.11-.51.11l-.18-.06-.29-.39-.1-.13-.65-.19-.15-.05-.5.15-.31-.15-.29-.13-.42.32-.18-.16-.34-.33-.7.66h-.13s-.41-.28-.41-.28l-.4-.28-.55.7h-.25s-.19-.02-.19-.02l-.4.29-.33-.06-.24-.05-.45.37h-.55l-.49.41-.37.16-.46.16-.17.06-.23.38h-.35s-.36,0-.36,0l-.26.71-.3.17-.2.12-.11.61-.22.15-.47.24-.26.14v.66s-.24.18-.24.18l-.11.09-.2.55-.2.3-.4.31-.29.23.27.72-.14.21-.02.03-.24.48-.08.15.09.47-.2.23-.05.07-.2.56-.07.19.24.51-.12.26v.04s-.15.53-.15.53l-.03.11.09.44-.17.35-.15.28.51.64.04.25-.1.4-.05.21.34.54.03.23-.21.43-.13.25.37.56v.37s.01.26.01.26l.47.31-.03.26-.03.21.42.51.17.39h0s.22.47.22.47v.03s.29.44.29.44l.08.12.48.25.1.18v.69l.58.69.46.03v.2s.03.37.03.37l.64.16.09.28.05.16.53.35.31.32.16.17.7-.05.14.11.2.41.09.17.57.21.09.08v.2s0,.18,0,.18l.32.37-.09.25-.02.04-.1.56v.08s.05.56.05.56l.02.18.44.42v.29s0,.04,0,.04l.08.5.04.47v.04s.12.52.12.52l.02.09.16.26-.18.31-.24.4.56.39-.11.19-.14.24.4.76.2.22-.13.29-.1.21.34.67.18.41.11.39v.46s0,.16,0,.16l.38.5.14.32.04.44v.21s.53.45.53.45l.15.26.02.4v.17s.4.47.4.47l.16.37.16.45.15.47.04.14.35.29v.32s0,.04,0,.04l.1.57.04.2.58.43.22.2.02.36v.09l.24.55v.03s.27.46.27.46l.04.05.41.41h.01s.38.36.38.36l.04.03.26.16v.81l.77.08.05.21.04.2.58.37.31.27.28.37.07.09.57.28.36.19.24.25.22.44.15.27h.68l.18.2.34.41.11.12.67.17h.02l.4.08.29.24.03.03.46.28.02.02.49.23.09.04.61.04h.05s.37-.06.37-.06l.25.22.16.14.69-.07.34.03.37.21.06.02.49.13.42.21.09.04.59.05h.04s.47-.03.47-.03l.4.11h0l.51.12h.02s.54.06.54.06h.02l.52.03h.33s.3.28.3.28l.03.03.49.32.24.16.49-.24.17.18.17.16.74-.05h.06s.42-.11.42-.11l.32.11.03.02.47.1.42.2.04.02.53.14.08.03.59-.04h.08s.48-.19.48-.19l.22.03.35.29.26.21.52-.25.18.18.27.26.64-.37.24.11.11.05.63-.02h.04l.29-.06.26.25.08.09.61.19.27.09.39-.34.12.12.21.22.62-.15.31.14.11.05h.62s.15,0,.15,0l.47-.3.26.05-.19.15-.17.13-.07.67-.13.43-.05.15.15.43-.18.2-.06.06-.24.53-.08.17.18.66v.3l-.19.33-.07.11-.02.58-.09.39-.17.38-.26.42-.16.26.41.67-.03.15-.29.32-.21.22.2.55-.18.22-.04.05-.25.51-.04.07-.09.56-.03.18.28.49-.11.22-.02.07-.07.44-.24.37-.16.24.32.67v.17s-.33.31-.33.31l-.17.17.07.74v.03l.09.49v.35s-.17.37-.17.37l-.11.23.24.43-.18.19-.21.21.19.6-.16.29-.16.3.37.44-.14.15-.26.27.34.59-.13.24-.12.22.25.55-.1.32-.05.16.2.53-.05.26-.26.42-.14.21.19.53-.15.3-.12.25.31.52-.09.29-.05.14.15.57v.43s-.01.03-.01.03l.05.49-.03.44-.08.47-.02.14.24.62.02.05.17.27-.13.27-.08.15.1.59-.02.45-.02.2.33.39-.1.25-.07.18.24.59.03.42v.07s.24.55.24.55v.04s.25.39.25.39l.03.23-.23.43-.07.14.06.65.02.11.35.55.04.06.26.24-.07.26-.04.13.18.61.03.1.37.45.14.3v.39l-.02.53v.05s.08.55.08.55v.12s.32.4.32.4v.37s.03.28.03.28l.58.33v.19s-.04.52-.04.52l-.04.33.64.36.05.23v.5s.02.3.02.3l.46.24-.06.26-.07.32.71.52h0l.29.21.08.28.04.52.03.3.6.26.08.28.05.2.4.23v.55l.62.56.41.15.09.28.02.03.24.49.11.23.58.11.1.24.06.14.53.37h.02s.36.23.36.23l.22.32.02.03.34.39.07.09.35.16.08.32.04.17.42.32.13.33.08.22.56.19.1.26h0s.22.46.22.46l.16.41.13.45.04.1.4.47.03.03.28.23v.3s.02.12.02.12l.24.42v.38s.02.19.02.19l.45.51.26.38.18.31v.33s-.07.48-.07.48l-.03.19.35.57.18.41h0s.11.27.11.27l-.15.35-.11.25.38.6.07.33v.44s-.01.07-.01.07l.09.35-.2.34-.19.32.45.48-.09.2-.07.14.06.49-.16.36-.14.31.47.49-.07.19-.07.17.16.45-.17.29-.16.27.29.42-.18.18-.24.26.36.75.05.37v.41l-.1.42-.11.43-.24.41-.07.13.02.55-.13.39-.03.09.02.54-.52.12h-.04s-.41.16-.41.16h-.4s-.04-.02-.04-.02l-.37.05-.37-.2-.17-.08-.63.13-.45.04h-.08s-.55.22-.55.22h-.02s-.36.18-.36.18l-.37-.03h-.45l-.45-.14-.3-.08-.42.43-.22-.08-.11-.04-.6.04h-.07s-.53.17-.53.17h-.05s-.32.19-.32.19l-.32-.09-.3-.08-.38.39-.23-.1-.17-.08-.66.21-.1.04-.35.32-.26-.02-.5-.11-.33-.07-.33.48-.2-.08-.39-.17-.35.53-.2-.1-.35-.16-.57.64-.31.17-.42.09h0s-.48.14-.48.14l-.07.02-.4.24-.41.07-.52.08h-.1s-.51.34-.51.34l-.1.07-.29.5-.3.18-.05.04-.29.31-.37.11h-.05s-.47.25-.47.25l-.48.19-.25.1-.17.78-.1.22-.35.15-.16.07-.41.73.04.5-.21.27-.16.2.16.6-.14.35-.11.27.45.58.09.38h0s.13.54.13.54l.06.2.19.11v-.06s.16-.39.16-.39l.06-.43.05-.16.2-.37.09-.42.02-.07.18-.46c.04-.09.1-.16.17-.22l.39-.3.31-.29.19-.27.13-.44c.02-.08.07-.16.13-.22l.36-.34.14-.09.45-.21.38-.2.36-.27.11-.06.43-.16.4-.23c.25-.14.55-.06.69.19.14.24.05.55-.19.68l-.45.25-.06.03-.4.15-.33.25-.07.05-.44.22-.03.02-.37.17-.2.19-.11.38-.07.15-.28.39-.07.08-.37.34-.04.03-.31.23-.12.29-.09.44-.05.13-.19.36-.06.39-.02.12-.15.36v.25s.21.22.21.22l.09.09.39.13.19.38.16.3.78-.06.29.12.18.13.06-.44v-.05s.12-.47.12-.47v-.02s.13-.47.13-.47l.03-.07.18-.42.12-.45c.02-.08.06-.16.13-.23l.36-.36.03-.04.36-.31.3-.3.31-.37h-.02s.32-.41.32-.41c.07-.08.16-.15.27-.18l.5-.14h0l.42-.12.38-.23c.08-.05.18-.08.28-.08l.46.02.43-.09c.27-.06.54.12.6.39.05.28-.12.54-.4.6l-.49.1h-.11s-.38,0-.38,0l-.31.19-.12.05-.49.14h0l-.34.1-.21.28v.02s-.33.39-.33.39l-.03.04-.33.34-.03.04-.37.31-.24.25-.1.37-.03.07-.19.42-.12.44-.1.43-.07.47h0c0,.08-.05.15-.08.21h.03s.61-.11.61-.11l.4.03.31.07.33.3.12.09.64.1.17.02.34-.17.17.18.13.14.67.06.46.08.04.02.53.02h.17s.49-.34.49-.34l.18.04.4.24h.04s.53.22.53.22l.24.09.57-.38.17.03.39.28.15.12.7-.07.11-.02.39-.22.25.11.09.04h.52l.42.13.27.09.44-.38.18.09.09.05.6.09h.01l.51.05h.01l.51.03h0l.49.04h.2s.45-.38.45-.38l.24.06.06.02h.49l.43.13.23.07.4-.27.24.16.37.24.46-.5.15.11.12.09.65.04.18.02.49-.34h.26s.45.17.45.17l.3.1.49-.5.21.05h.03s.53.09.53.09l.13.03.53-.18h.41s.14,0,.14,0l.46-.25.36.03h.04l.52-.04h.53l.4-.06.41.14.15.05.66-.21.05-.02.4-.25h.26s.44.16.44.16l.15.05.58-.16h.44s.09.01.09.01l.5-.18.43-.04h.16s.39-.35.39-.35l.31.03h.09s.57-.15.57-.15h.01s.49-.15.49-.15l.24-.08.19-.52.34-.08.5-.11-.17-.7.25-.08.3-.09.1-.86.02-.45.13-.35.23-.41.11-.18-.13-.48.2-.24.09-.1.1-.62.11-.46.04-.2-.26-.45.13-.19.06-.09.08-.55.15-.43.05-.13-.11-.58.02-.41.06-.4.17-.41.04-.1v-.61s-.02-.09-.02-.09l-.17-.42.1-.3.05-.15-.14-.48.14-.31v-.04s.15-.51.15-.51l.04-.15-.15-.51.08-.34.13-.49v-.06s.01-.56.01-.56v-.15l-.19-.28.19-.19.3-.29-.41-.62.11-.23.13-.26-.27-.41.19-.2.15-.16-.07-.69.03-.46v-.06s-.1-.52-.1-.52v-.37l.13-.42.05-.17-.21-.59-.03-.27.21-.37.18-.32-.42-.45.13-.16.2-.27-.34-.53.14-.23.11-.2-.19-.57.1-.33v-.05s.06-.54.06-.54v-.16s-.24-.44-.24-.44l.09-.27.03-.08v-.57s0-.48,0-.48v-.03l-.04-.5v-.48s-.01-.04-.01-.04l-.05-.38.16-.37.05-.13.38-.24h.26s.41.1.41.1h.05s.54.05.54.05l.12.02.48-.18.37.05.08.02.47-.09.37.07.48.13.16.05.49-.18.34.09h.04s.49.07.49.07l.45.13.09.04.6-.07h.1l.3-.15.24.17.34.24.58-.53.15.05-.07.16.32.43-.14.17-.14.18.12.72.02.09.2.36-.1.24-.22.47-.04.1v.67l.12.51.03.45v.06l.13.41-.1.32-.05.16.19.56v.36l-.09.43v.06s.01.52.01.52l-.02.31-.3.36-.14.18.11.71.02.14.31.37-.08.21-.05.13.09.47-.16.35-.03.06-.09.56v.02l-.07.49-.04.24.43.48-.05.24-.11.47-.04.17.22.48-.08.32-.03.11.09.54-.05.42v.12s.16.46.16.46l-.08.35-.02.05v.53s-.06.45-.06.45l-.1.48v.05s0,.56,0,.56v.03l.09.53.03.14.38.44v.28s-.04.39-.04.39l-.19.45-.11.26.41.57v.28l-.08.47-.02.07.09.58v.04l.15.51.03.11.37.41.02.2-.17.41-.12.29.36.42-.13.27-.15.36.55.44-.03.25-.03.15.28.55.11.42.09.5.04.21.62.47.5.25.16.09.43-.09.19.23.13.17.62.05.36.19.08.04.6.07h.05s.47-.04.47-.04l.4.1.16.04.47-.17.26.15.15.08.43-.07.25.25.18.18.73-.08.5-.03h.03l.29-.05.27.25.1.1.62.11.47.12.07.02h.54s.45.02.45.02l.46.07.09.02.5-.07.41.07h.02l.47.04.44.13.26.06.48-.4.19.08.15.06.41-.08.28.26.26.25.77-.4.33-.07.39.08.1.02.48-.11.36.1.08.03h.41s.35.24.35.24l.28.21.48-.32.2.17.31.27.65-.48.27.06.07.02.57-.03h.01s.47-.03.47-.03h.47s.11.02.11.02l.46-.19.35.07.08.02.41-.05.36.21.23.14.64-.32h.36l.47.04.15.02.44-.23.32.08.16.05.44-.17.34.15.24.11.52-.32.31.08.09.03.57-.07h.59l.54-.26.35-.1.42.05h.06l.56-.06h.12s.35-.25.35-.25l.33.09.34.1.29-.38-.06-.45-.09-.44-.16-.43-.15-.39-.29-.32-.08-.13-.18-.45-.2-.37-.25-.25-.34-.19-.44-.12c-.08-.02-.15-.06-.21-.11l-.34-.31-.29-.17-.4-.04c-.07,0-.14-.02-.2-.06l-.37-.2-.41-.06c-.27-.04-.47-.3-.43-.57.04-.27.3-.47.58-.42l.5.07c.06,0,.12.03.18.06l.36.2.39.04c.07,0,.15.04.21.07l.44.26.08.06.29.25.39.11.12.05.45.26.11.07.36.36.09.11.24.46.03.05.15.4.28.32.08.14.19.46v.02s.18.47.18.47l.02.06.1.49v.05s.07.47.07.47l.12-.05.17-.06.31-.55.28-.08.06-.02.36-.23.45-.02.31-.02.17-.36-.04-.11-.03-.1-.07-.4-.18-.37-.04-.11-.1-.38-.22-.32-.02-.03-.27-.41c-.04-.05-.06-.11-.07-.19l-.07-.45-.14-.34-.2-.22-.39-.14-.15-.1-.37-.32-.06-.06-.27-.34-.29-.21-.39-.13h-.03l-.38-.16-.42-.03c-.28-.02-.49-.26-.47-.54.02-.28.26-.49.54-.47l.51.04.15.04.44.17.45.15.15.08.39.29.09.08.29.35.27.23.42.16c.08.02.14.08.19.13l.35.38.09.15.19.48.03.12.07.41.2.31.28.38s.06.11.08.17l.1.42.08.14h0s.16-.49.16-.49h0s.11-.38.11-.38l.31-.42.2-.28-.47-.69-.07-.36-.08-.51-.03-.25-.6-.32-.13-.29h0l-.21-.46-.05-.1-.43-.36-.29-.34-.09-.11-.53-.17-.2-.21-.22-.45-.1-.21-.69-.19-.42-.19-.14-.06-.55.07-.25-.16-.04-.04-.35-.13-.25-.38-.22-.33-.58.18-.13-.21-.22-.39-.8.34-.23-.13-.1-.06h-.48s-.27-.21-.27-.21l-.4-.37-.17-.15-.76.06h-.04s-.26.08-.26.08l-.19-.25-.23-.29-.82.29-.29.02-.33-.2-.06-.04-.51-.14-.43-.2-.16-.08-.7.16h-.04s-.39.15-.39.15l-.29-.11-.47-.2-.12-.05-.63.06h-.42s-.42-.09-.42-.09l-.11-.02-.36.06-.27-.26-.16-.16-.63.04-.4-.13-.21-.07-.5.29-.24-.12h0s-.48-.21-.48-.21l-.24-.1-.46.27-.22-.15-.25-.17-.43.22v-.49s0-.14,0-.14l-.26-.42.05-.32.05-.26-.42-.4.08-.22.05-.13-.12-.6-.03-.37.11-.42.07-.26-.33-.41.12-.21.15-.27-.36-.52.11-.25v-.02l.17-.51.04-.12-.08-.47.15-.33.05-.13-.07-.6v-.46s0-.13,0-.13l-.2-.35.15-.18.07-.1.15-.59v-.02l.1-.49h0s.08-.51.08-.51v-.08s-.05-.39-.05-.39l.19-.27.06-.1.11-.59v-.05s0-.54,0-.54v-.42s.15-.38.15-.38v-.05s.11-.4.11-.4l.25-.31.11-.13.04-.51.23-.27.05-.06.15-.4.33-.22.16-.1.18-.66.12-.4.22-.3.31-.35.34-.33h0s.11-.13.11-.13l.14.41v.04s.27.49.27.49l.12.22.63.1.11.23.05.11.48.39.03.03.3.18.15.4.09.26.85.21h.31l.15.3.2.4.68-.23.15.21.12.17.72.1h.1s.49-.09.49-.09l.36.1.08.03.5-.02.42.13.13.04.63-.14h.05s.51-.26.51-.26h.02s.34-.2.34-.2h.31s.51.09.51.09l.41.09.28-.66.21.02.33.02.28-.53h.29l.32-.02.29-.65.28-.17.11-.07.21-.38.34-.12.26-.08.16-.59.28-.18.2-.14.07-.58.24-.23.15-.14.03-.61.17-.33.02-.03.14-.39.31-.35.24-.26-.3-.57.14-.2.14-.18-.16-.73v-.04s-.2-.46-.2-.46l-.04-.33.06-.42v-.04s0-.54,0-.54v-.14l-.26-.42v-.41l-.05-.55-.02-.12-.34-.53-.04-.07-.47-.36-.31-.3-.21-.26-.08-.44-.08-.38-.77-.03-.12-.2-.03-.06-.36-.34-.24-.41-.16-.27-.45.03.19-.14.22-.16-.02-.64.2-.24h.01s.3-.44.3-.44l.03-.04.23-.5.07-.12-.05-.41.24-.16.23-.16-.02-.62.21-.25.13-.15-.03-.52.22-.23.15-.16-.02-.45.28-.19.22-.16v-.65l.18-.32.06-.1.03-.5.21-.32.08-.13v-.67s-.02-.06-.02-.06l-.1-.38.17-.24.04-.05.2-.53.07-.19-.22-.5.13-.21.29-.44.14-.2.07.13.09.15.63.25.11.04.46-.03.23.19.06.05.51.22.04.02.4.09.32.27.26.23.54-.28.14.13.25.27.71-.34.15.04.33.33.24.26.77-.35.2-.02.34.25.23.18.69-.28.41-.02h.04l.54-.11h.03s.29-.12.29-.12l.35.18.22.12.61-.27.43-.05h.17s.49-.47.49-.47l.34-.2.37-.13.47-.05.2-.02.42-.49.36-.21.11-.06.27-.44.23-.15.53-.08.27-.05.3-.66.29-.35.06-.08.18-.59.02-.09-.03-.43.23-.23.09-.09.16-.61v-.04s.07-.54.07-.54v-.15s-.24-.48-.24-.48l.07-.33v-.02l.04-.55v-.12s-.25-.58-.25-.58v-.04s-.2-.28-.2-.28l.09-.38.04-.22-.51-.73-.43-.18v-.22s-.01-.08-.01-.08l-.19-.56-.03-.11-.46-.44-.08-.07-.54-.2-.11-.14-.02-.45v-.16s-.49-.61-.49-.61l-.45-.25-.25-.32-.11-.14-.54-.13-.16-.24-.04-.07.02-.03.2-.28.37-.18.09-.05.36-.44.34-.31.15-.13.04-.53.23-.11.05-.03.44-.36.17-.14.05-.7.12-.18.38-.17.02-.02.49-.27.14-.08.27-.6.14-.28.36-.17.23-.11.13-.76.11-.26.32-.18.24-.15.02-.58.24-.13.19-.1.17-.66.18-.28.31-.26.44-.29.2-.13.08-.61.23-.26.05-.05.24-.54.04-.07.05-.47.15-.19.45-.22.14-.07.34-.57.05-.09.05-.48.24-.28.14-.15-.07-.76v-.26s.29-.23.29-.23l.15-.13.09-.68.09-.47h0s.06-.53.06-.53l.02-.15-.26-.56-.03-.23Zm-17.6,4l-.18.12-.29.17.1.64-.19.13-.17.13-.09.66-.09.21-.4.18-.38.16.2.86-.07.14-.39.21-.05.04-.43.41-.18.17.06.6-.2.2-.02.02-.34.42-.11.13v.6l-.19.31h0l-.25.43h0l-.08.14-.03-.17-.02-.45v-.2s-.38-.38-.38-.38l.06-.23v-.05s.02-.56.02-.56v-.22s-.49-.48-.49-.48l-.06-.21.11-.39v-.02s.1-.54.1-.54l.04-.16-.29-.59-.11-.3.09-.36.07-.26-.49-.59-.14-.25.08-.35.06-.28-.43-.39.06-.25.05-.22-.38-.54-.1-.31.02-.4.08-.5.04-.24-.41-.46-.02-.33v-.08s-.22-.52-.22-.52l-.03-.07-.3-.35v-.03s.48.03.48.03l.23.06.14.3.09.17.59.27.39.24h0l.42.25.1.06.58.04.15.08.14.41.11.35h.69s.17.23.17.23l.03.04.43.36.1.08.47.09.21.25.12.15.7.11.26.07.18.31v.02s-.12.13-.12.13l.12.55Z"/>
      <path class="cls-1" d="m134.89,267.19c-.02-.06-.04-.12-.08-.17l-.28-.38-.2-.31-.07-.41-.03-.12-.19-.48-.09-.15-.35-.38c-.05-.05-.12-.11-.19-.13l-.42-.16-.27-.23-.29-.35-.09-.08-.39-.29-.15-.08-.45-.15-.44-.17-.15-.04-.51-.04c-.27-.02-.51.19-.54.47-.02.28.19.52.47.54l.42.03.38.16h.03l.39.13.29.21.27.34.06.06.37.32.15.1.39.14.2.22.14.34.07.45c0,.08.04.14.07.19l.27.41.02.03.22.32.1.38.04.11.18.37.07.4.03.1.04.11.18-.4.24-.39v-.02s.24-.42.24-.42v-.03s-.06-.14-.06-.14l-.1-.42Z"/>
      <polygon class="cls-1" points="130.83 269.19 130.83 269.21 130.83 269.21 130.83 269.19"/>
      <path class="cls-1" d="m132.07,269.88l-.1-.49-.02-.06-.17-.47v-.02s-.19-.46-.19-.46l-.08-.14-.28-.32-.15-.4-.03-.05-.24-.46-.09-.11-.36-.36-.11-.07-.45-.26-.12-.05-.39-.11-.29-.25-.08-.06-.44-.26c-.06-.04-.14-.06-.21-.07l-.39-.04-.36-.2c-.05-.03-.11-.05-.18-.06l-.5-.07c-.28-.05-.54.15-.58.42-.04.27.15.53.43.57l.41.06.37.2c.06.04.13.05.2.06l.4.04.29.17.34.31c.06.05.12.09.21.11l.44.12.34.19.25.25.2.37.18.45.08.13.29.32.15.39h0s0,0,0,0h0l.16.43.09.44.06.45.06-.09.24.08.18.06.53-.18-.06-.47v-.05Z"/>
      <path class="cls-1" d="m49.82,268.45l.02-.12.06-.39.19-.36.05-.13.09-.44.12-.29.31-.23.04-.03.37-.34.07-.08.28-.39.07-.15.11-.38.2-.19.37-.17.03-.02.44-.22.07-.05.33-.25.4-.15.06-.03.45-.25c.24-.14.33-.44.19-.68-.14-.25-.44-.33-.69-.19l-.4.23-.43.16-.11.06-.36.27-.38.2-.45.21-.14.09-.36.34c-.06.06-.11.14-.13.22l-.13.44-.19.27-.31.29-.39.3c-.07.05-.13.13-.17.22l-.18.46-.02.07-.09.42-.2.37-.05.16-.06.43-.16.39v.06s.49.3.49.3l.44.14.04.05v-.25s.15-.36.15-.36Z"/>
      <path class="cls-1" d="m52.94,270.58l.07-.47.1-.43.12-.44.19-.42.03-.07.1-.37.24-.25.37-.31.03-.04.33-.34.03-.04.31-.39v-.02s.23-.28.23-.28l.34-.1h0l.49-.14.12-.05.31-.19h.49s.49-.11.49-.11c.28-.06.45-.32.4-.6-.06-.27-.33-.45-.6-.39l-.43.09-.46-.02c-.1,0-.19.03-.28.08l-.38.23-.42.12h0l-.5.14c-.11.03-.2.09-.27.18l-.32.42h.02s-.31.36-.31.36l-.3.3-.36.31-.03.04-.36.36c-.07.07-.11.15-.13.23l-.12.45-.18.42-.03.07-.13.47v.02s-.12.47-.12.47v.05s-.06.44-.06.44l.19.15.06.05.56.18.09.03c.04-.06.08-.14.08-.21h0Z"/>
      <path class="cls-2" d="m109.68,139.58l-.45-.22c-.13-.06-.27-.1-.42-.13l-.2-.04-.14-.09c-.08-.05-.14-.08-.22-.12l-.11-.05-.1-.14c-.2-.25-.48-.44-.8-.54l-.19-.05-.13-.12-.09-.07-.42-.29c-.21-.15-.48-.24-.75-.26-.24-.21-.52-.36-.85-.41l-.18-.03-.12-.08-.11-.07-.25-.13-.21-.21c-.12-.11-.24-.2-.38-.28l-.42-.2-.33-.19-.35-.25c-.15-.11-.32-.18-.51-.23-.25-.32-.6-.53-1-.59-.14-.14-.3-.26-.48-.35l-.33-.14-.29-.2-.15-.1-.44-.23c-.1-.05-.21-.09-.32-.12l-.2-.05-.11-.09-.34-.3c-.17-.14-.36-.25-.59-.31l-.49-.15-.08-.02h0c-.06-.07-.1-.12-.17-.18l-.38-.34c-.25-.22-.58-.36-.92-.39l-.3-.03-.09-.03-.12-.08-.22-.25c-.12-.13-.25-.23-.4-.32l.09-.04c.15-.07.29-.19.39-.34l.15-.21.21-.09c.15-.06.27-.16.37-.28l.2-.24.27-.14c.07-.04.14-.08.19-.12l.34-.29.35-.22.43-.24c.15-.08.28-.22.37-.37l.08-.14.15-.04c.15-.05.29-.14.41-.23l.37-.37.05-.05.28-.32.25-.19.38-.19.13-.08.41-.29.11-.08.37-.35v-.02s.37-.35.37-.35c.32-.31.39-.81.18-1.21-.22-.4-.68-.61-1.13-.5l-.32.08h-.39c-.09-.01-.18,0-.28.02l-.33.08-.34-.05c-.17-.02-.34,0-.49.06l-.4.14-.25.05-.39-.06c-.11-.02-.21-.02-.33,0l-.33.05-.35-.07c-.09,0-.19-.02-.28,0l-.52.05-.07.02-.51.08h-.05s-.41.09-.41.09h-.38s-.5-.05-.5-.05c-.08,0-.17,0-.25,0l-.37.07-.31-.05-.47-.13c-.2-.05-.4-.05-.59.03l-.25.08-.24-.05-.2-.04h-.52s-.08,0-.08,0h-.43s-.38-.05-.38-.05l-.47-.11c-.15-.04-.31-.04-.46,0l-.21.05-.19-.08c-.15-.06-.33-.1-.48-.08l-.48.04-.32-.02-.3-.09c-.41-.15-.87,0-1.13.33-.27.34-.29.82-.05,1.18l.29.43c.08.12.17.21.3.29l.43.27c.06.05.12.08.2.11l.18.06.1.17c.08.12.18.23.3.31l.37.24.33.29.13.1.32.19.27.28c.07.07.16.15.26.19l.36.19.31.25.08.06.43.29.11.06.32.17.26.25.11.09.28.2.22.3c.08.12.2.22.33.29l.37.2.2.16-.26.09c-.2.07-.38.18-.54.33l-.22.21-.18.09-.35.14-.44.14c-.18.05-.36.15-.52.28l-.39.32-.03.03-.31.26-.3.19-.31.19-.21.09-.36.07c-.3.06-.56.19-.77.39l-.17.15-.19.08c-.08.03-.13.05-.22.11l-.26.15-.31.09c-.34.1-.62.31-.83.6l-.08.12-.08.03-.1.06-.22.12-.27.06c-.21.04-.42.13-.6.25l-.29.21-.33.16c-.09.05-.2.11-.29.18l-.12.09-.16.04c-.3.06-.58.22-.8.44l-.32.35-.16.15-.26.03c-.39.03-.76.22-1.01.52-.2.04-.38.1-.55.21l-.33.17h0s-.42.27-.42.27l-.16.12-.22.18-.25.11h-.04s-.35.17-.35.17l-.38.11c-.82.24-1.28,1.1-1.04,1.92.24.82,1.11,1.28,1.92,1.04h0l.49-.14.22-.08.43-.2.45-.2c.13-.05.27-.13.38-.23l.31-.27.23-.11.1-.07h.18c.38-.05.73-.24.99-.53.13-.02.27-.06.4-.12l.45-.22c.13-.07.25-.14.37-.25l.38-.34.07-.07.04-.04h.05c.22-.06.44-.16.63-.31l.26-.21.29-.13c.08-.04.17-.09.24-.15l.14-.1.18-.04c.15-.03.32-.09.45-.17l.38-.21.4-.19c.24-.11.46-.29.61-.5l.02-.02c.11-.04.22-.09.32-.15l.33-.19.35-.14c.19-.07.34-.18.49-.31l.04-.05.08-.02c.11-.02.19-.05.3-.09l.47-.19c.09-.04.14-.06.22-.11l.43-.26.02-.02.42-.27.17-.13.37-.32.15-.12.21-.06.09-.04.47-.18.15-.06.45-.24c.13-.06.25-.14.35-.24l.11-.09s.06.05.08.07l.42.27c.09.06.18.11.28.15l.47.19c.14.06.3.1.46.11l.17.23c.22.27.53.46.86.54l.46.1.13.04.12.11.06.05.4.31c.16.12.35.22.55.27l.33.09.21.1.34.23c.08.05.16.11.25.14l.14.06.11.14c.22.26.53.42.86.49.22.26.53.45.87.52l.18.04.13.09.13.08.43.25.08.04.23.13.2.19c.1.1.21.18.33.25l.38.21.37.24c.18.13.38.2.6.24.29.31.72.51,1.16.5h.07l.31.26c.17.13.34.23.56.28h.01s.02.04.02.04c.15.2.35.36.58.46l.35.16.32.21c.18.11.38.2.6.23l.31.05.25.13c.77.38,1.69.05,2.07-.7.38-.77.06-1.69-.71-2.07Z"/>
      <path class="cls-2" d="m109.99,166.81c-.31-.2-.69-.23-1.02-.09l-15.57,6.74-15.57-6.74c-.34-.14-.72-.11-1.03.09-.3.19-.48.53-.48.9v15.26c0,.38.2.73.52.93.17.1.37.15.56.15.17,0,.34-.05.49-.13l15.5-8.07,15.5,8.07c.16.08.33.13.49.13.2,0,.39-.05.57-.15.32-.2.52-.55.52-.93v-15.26c0-.37-.18-.71-.48-.9Z"/>
      <polygon class="cls-2" points="72.57 87.82 72.63 87.31 72.7 86.79 72.72 86.28 72.2 85.87 72.49 85.32 72.25 84.86 72.38 84.33 71.91 83.91 71.96 83.39 72.14 82.86 71.86 82.4 71.72 81.92 71.32 81.49 71.54 80.94 71.6 80.42 71.64 79.91 70.97 79.52 71.43 78.94 71.14 78.48 71.22 77.96 71 77.5 70.63 77.05 70.57 76.56 70.82 76.02 70.52 75.56 70.2 75.11 70.73 74.51 70.59 74.04 70.15 73.61 70.23 73.09 70.39 72.56 70.3 72.07 69.76 71.66 69.86 71.14 69.94 70.61 69.7 70.16 69.44 69.7 69.57 69.17 69.3 68.7 69.56 68.16 69.18 67.71 69.45 67.16 69.37 66.67 69.24 66.19 68.65 65.78 68.75 65.26 68.74 64.75 68.92 64.22 68.41 63.8 68.35 63.3 68.61 62.74 68.21 62.31 68.02 61.83 68.21 61.29 67.99 60.82 68.27 60.27 67.75 59.85 67.99 59.29 67.5 58.87 67.97 58.28 67.89 57.79 67.54 57.34 67.36 56.86 67.07 56.4 67.19 55.87 66.95 55.4 67 54.88 66.77 54.41 67.08 53.84 66.77 53.39 66.78 52.88 66.31 52.45 66.35 51.93 66.63 51.37 66.31 50.92 66.46 50.39 66.47 49.88 66.39 49.39 66.09 48.93 66.28 48.39 66.12 47.9 66.07 47.4 65.55 46.99 65.41 46.5 65.22 46.03 65.1 45.54 65.49 44.97 64.96 44.55 65 44.04 64.8 43.56 64.72 43.07 65.06 42.5 64.79 42.03 65.02 41.48 64.94 40.99 64.44 40.56 64.59 40.03 64.29 39.57 64.21 39.07 64.06 38.6 64.36 38.03 63.93 37.6 63.82 37.11 63.8 36.6 63.84 36.08 63.8 35.59 63.59 35.12 63.28 34.66 63.31 34.15 63.63 33.59 63.55 33.1 63.21 32.66 62.92 32.2 63.05 31.68 62.65 31.24 63.19 30.64 62.53 30.25 62.75 29.71 62.31 29.29 62.78 28.7 62.75 28.2 62.64 27.72 61.99 27.32 62.51 26.74 62.05 26.32 62.16 25.79 62.19 25.28 61.77 24.86 61.89 24.33 61.73 23.86 61.8 23.33 61.49 22.9 61.32 22.43 60.85 22.05 60.89 21.53 61.04 20.95 60.45 20.64 60.19 20.21 60.18 19.68 60.33 19.08 60.05 18.66 59.88 18.19 59.5 17.83 59 17.56 58.98 16.97 58.32 16.86 57.99 16.52 57.75 16.08 57.29 15.92 56.98 15.53 56.72 14.99 56.28 14.72 55.72 14.84 55.26 14.6 54.77 14.56 54.26 14.33 53.78 14.7 53.33 14.95 52.84 14.95 52.42 15.23 51.98 15.4 51.53 15.53 51.04 15.64 50.56 15.82 50.09 16.06 49.72 16.43 49.64 16.98 49.1 17.28 49.14 17.84 49.25 18.4 48.78 18.79 48.85 19.31 48.69 19.79 48.47 20.28 48.53 20.79 48.54 21.29 48.48 21.8 48.67 22.29 48.73 22.78 48.87 23.27 49.26 23.7 48.85 24.26 48.89 24.76 49.18 25.21 49.35 25.69 49.28 26.2 49.26 26.71 49.35 27.21 50.04 27.55 50.17 28.03 50.07 28.57 50.32 29.01 50.55 29.47 50.74 29.93 50.25 30.59 50.74 30.97 50.6 31.52 50.75 31.99 50.79 32.49 51.05 32.94 51.23 33.4 51.54 33.83 51.4 34.38 51.5 34.87 52.09 35.22 52.22 35.69 51.97 36.28 52.22 36.72 52.22 37.23 52.33 37.71 52.49 38.18 52.78 38.61 53.12 39.03 52.98 39.58 53.41 39.97 53.42 40.48 53.14 41.07 53.72 41.42 53.6 41.96 53.96 42.37 53.88 42.91 54.33 43.29 54.36 43.8 54.64 44.24 54.73 44.73 54.36 45.33 54.75 45.75 54.68 46.27 54.73 46.77 55.26 47.14 55.49 47.59 55.22 48.17 55.34 48.66 55.64 49.09 55.69 49.59 55.99 50.02 55.99 50.53 56.27 50.97 55.9 51.59 56.62 51.9 56.28 52.5 56.72 52.9 56.46 53.48 56.64 53.94 56.7 54.44 57.02 54.87 57.23 55.33 57.51 55.76 57.15 56.36 57.41 56.81 57.44 57.31 57.73 57.75 58.03 58.18 58.4 58.6 58.17 59.18 58.03 59.72 58.66 60.07 58.72 60.57 58.66 61.1 58.55 61.64 58.75 62.11 58.91 62.57 59.48 62.93 59.07 63.55 59.49 63.95 59.84 64.39 60.01 64.85 60.01 65.37 60.18 65.84 60.23 66.34 60.5 66.79 60.69 67.25 60.63 67.78 60.9 68.23 60.78 68.77 60.61 69.34 61.17 69.71 61.21 70.21 61.19 70.73 61.53 71.15 61.7 71.63 61.47 72.2 61.99 72.58 62.09 73.08 61.85 73.66 62.13 74.09 62.03 74.63 62.1 75.13 62.77 75.47 62.76 75.99 62.79 76.5 62.92 76.97 62.83 77.52 62.94 78 63.53 78.36 63.73 78.84 63.59 79.38 63.67 79.87 63.55 80.42 64.08 80.8 63.76 81.4 64.39 81.75 64.42 82.25 64.58 82.73 64.84 83.18 64.49 83.79 64.53 84.29 64.69 84.76 65.36 85.1 64.97 85.71 65.25 86.16 65.52 86.6 65.57 87.11 65.74 87.57 65.78 88.08 66 88.53 66.12 89.02 66.33 89.48 66.04 90.06 66.28 90.51 66.46 90.79 66.62 90.74 67.11 90.63 67.45 90.08 68.13 90.57 68.59 90.37 69.08 90.28 69.56 90.14 69.99 89.86 70.42 89.56 70.92 89.5 71.3 88.98 71.96 89.54 72.35 89.06 72.67 88.32 72.67 88.31 72.57 87.82"/>
      <polygon class="cls-2" points="119.39 91.21 119.08 90.61 119.46 90.2 119.78 89.78 119.37 89.14 120.07 88.83 119.62 88.18 119.88 87.74 120.22 87.32 120.53 86.89 120.48 86.35 120.71 85.9 120.9 85.44 121.1 84.98 120.91 84.41 121.12 83.95 121.4 83.51 121.6 83.06 121.51 82.51 121.95 82.12 121.91 81.58 121.8 81.04 122.31 80.67 122.47 80.19 122.61 79.71 122.44 79.14 122.87 78.75 122.79 78.21 123.04 77.76 122.7 77.14 123 76.71 123.38 76.29 123.37 75.78 123.6 75.32 123.62 74.81 123.5 74.25 123.91 73.85 124.34 73.46 124.55 73 124.67 72.52 124.48 71.95 124.43 71.42 124.7 70.97 124.64 70.44 125.29 70.1 125.12 69.53 125.34 69.08 125.76 68.67 125.62 68.11 125.83 67.66 125.67 67.1 126.03 66.68 126.02 66.16 126.29 65.71 126.17 65.17 126.74 64.8 126.91 64.34 126.8 63.78 126.7 63.24 126.77 62.74 127.32 62.38 127.35 61.88 127.32 61.35 127.67 60.93 127.99 60.5 128 59.99 128.07 59.5 128.31 59.04 128.55 58.6 128.54 58.08 128.49 57.55 128.91 57.16 129.11 56.7 129.2 56.21 129.08 55.65 129.48 55.26 129.07 54.62 129.77 54.3 129.37 53.68 129.91 53.31 129.7 52.75 130.29 52.39 130.32 51.89 130.35 51.38 130.71 50.98 130.56 50.42 130.95 50.02 130.98 49.51 130.98 48.99 130.93 48.46 131.46 48.1 131.3 47.54 131.3 47.02 131.82 46.65 131.7 46.11 131.65 45.58 132 45.17 132.33 44.75 132.32 44.22 132.47 43.75 132.52 43.26 132.63 42.78 132.98 42.36 133.2 41.91 133.08 41.36 133.15 40.86 133.47 40.45 133.69 39.99 133.57 39.45 133.51 38.92 134.11 38.58 133.95 38.02 134.02 37.52 134.07 37.02 134.22 36.55 134.75 36.2 134.68 35.67 134.74 35.18 135.26 34.81 135.22 34.29 135.1 33.74 135.8 33.43 135.93 32.95 135.45 32.29 136.11 31.97 135.74 31.34 136.01 30.91 136.12 30.42 136.73 30.09 136.68 29.56 137.02 29.15 136.75 28.55 137.28 28.2 136.94 27.56 137.1 27.08 137.78 26.8 137.43 26.14 138.08 25.83 137.73 25.19 138.4 24.86 138.62 24.39 138.63 23.86 138.31 23.28 138.55 22.82 138.86 22.35 138.78 21.83 138.98 21.33 138.56 20.82 139.05 20.3 138.63 19.83 138.97 19.27 138.59 18.82 138.72 18.25 138.05 17.96 137.91 17.49 137.6 17.11 137.55 16.52 136.98 16.37 136.81 15.78 136.24 15.72 135.75 15.6 135.36 15.27 134.87 15.16 134.46 14.68 133.95 14.53 133.43 14.5 132.88 14.91 132.38 14.79 131.82 14.41 131.32 14.68 130.82 14.81 130.46 15.3 129.91 15.35 129.42 15.57 129.27 16.17 128.53 16.2 128.74 16.95 128.08 17.11 128.32 17.76 128.13 18.2 127.98 18.65 127.41 18.97 127.68 19.55 127.02 19.88 127 20.39 126.77 20.83 126.71 21.31 126.74 21.82 126.47 22.25 126.65 22.79 126.43 23.25 126.1 23.67 126.21 24.21 125.96 24.66 126.02 25.18 125.96 25.67 125.38 26.01 125.53 26.57 125.65 27.11 125.32 27.56 124.97 28 125.38 28.6 125.31 29.1 124.87 29.52 125.14 30.08 124.65 30.5 124.55 30.99 124.88 31.57 124.18 31.93 124.03 32.41 124.26 32.97 124.47 33.52 123.97 33.93 123.83 34.41 124.07 34.96 124.03 35.47 123.82 35.92 123.67 36.4 123.61 36.9 123.19 37.33 122.96 37.79 123.36 38.38 122.97 38.81 122.94 39.32 122.96 39.83 122.82 40.31 122.47 40.75 122.32 41.22 122.71 41.8 122.17 42.21 122.14 42.71 122.5 43.29 122.1 43.71 122.2 44.25 122.2 44.76 122.03 45.23 121.69 45.66 121.35 46.11 121.6 46.66 121.23 47.1 121.62 47.68 121.27 48.12 121.2 48.61 121.08 49.09 120.72 49.52 121.08 50.11 120.85 50.56 120.4 50.99 120.83 51.57 120.41 51.99 120.08 52.43 120.07 52.94 120 53.42 119.96 53.93 119.74 54.39 120.13 54.97 119.6 55.38 119.9 55.95 119.6 56.4 119.69 56.92 119.23 57.33 119.13 57.8 119.33 58.35 119.05 58.8 119.25 59.35 118.65 59.73 119.08 60.33 118.46 60.72 118.63 61.26 118.74 61.79 118.57 62.26 118.22 62.7 117.95 63.14 118.37 63.74 118.07 64.18 118.11 64.7 117.55 65.09 117.97 65.68 117.64 66.12 117.26 66.56 117.54 67.12 117.37 67.59 117.32 68.09 117.23 68.58 117.19 69.08 117.25 69.59 116.53 69.96 116.78 70.52 116.73 71.01 116.63 71.5 116.29 71.94 116.4 72.47 116.53 73 116.14 73.43 116.18 73.94 115.7 74.35 115.64 74.84 115.44 75.31 115.94 75.91 115.73 76.38 115.48 76.84 115.42 77.33 115.5 77.85 115.49 78.35 115.04 78.77 114.63 79.19 114.69 79.71 114.48 80.17 114.65 80.72 114.77 81.24 114.42 81.68 114.66 82.24 114.59 82.73 113.99 83.12 113.81 83.59 113.71 84.07 113.66 84.57 114.02 85.15 113.41 85.53 113.51 86.05 113.23 86.51 113.4 87.04 113.17 87.51 113.17 88.01 113.41 88.57 112.69 88.93 112.99 89.49 113.1 89.95 113.44 89.9 113.78 90.46 114.38 90.18 114.78 90.55 115.32 90.5 115.67 91 116.34 90.54 116.69 91.07 117.11 91.37 117.73 91.11 118.13 91.46 118.51 91.86 118.9 91.97 118.78 91.56 119.39 91.21"/>
      <polygon class="cls-1" points="120.99 102.13 120.56 102.08 120.17 102.23 120.14 102.24 119.6 102.38 119.52 102.37 119.09 102.31 118.69 102.45 118.68 102.45 118.17 102.6 118.12 102.6 117.74 102.6 117.31 102.95 117.18 102.95 116.75 102.95 116.3 103.12 116.28 103.12 115.78 103.23 115.77 103.23 115.27 103.29 115.24 103.29 114.76 103.3 114.26 103.33 114.25 103.33 113.77 103.35 113.35 103.41 112.85 103.66 112.74 103.64 112.32 103.57 111.97 103.75 111.41 104.04 111.29 104.02 110.88 103.94 110.45 104.1 110.41 104.1 109.9 104.15 109.89 104.15 109.43 104.15 108.98 104.27 108.97 104.28 108.52 104.66 108.46 104.38 108 104.43 107.55 104.6 107.53 104.61 107.13 105 106.64 104.83 106.1 105.16 105.95 105.11 105.36 105.48 104.74 105.44 104.74 105.44 104.74 105.44 104.42 105.83 104.25 106.31 103.89 106.68 103.78 107.2 103.79 107.74 103.69 108.23 103.44 108.65 103.28 109.12 103.18 109.6 102.78 109.99 102.67 110.48 102.8 111.01 102.29 111.42 102.57 111.96 102.35 112.43 102.56 112.94 102.17 113.43 102.53 113.92 102.36 114.43 102.26 114.93 102.76 115.37 102.38 115.93 102.94 116.33 102.95 116.82 102.92 117.34 102.93 117.86 103.24 118.28 103.36 118.76 103.51 119.24 103.67 119.71 104.16 120.03 104.34 120.49 104.5 120.97 104.74 121.41 105.18 121.71 105.3 122.25 105.73 122.53 106.21 122.76 106.35 123.32 106.71 123.68 107.08 124.01 107.63 124.13 107.88 124.61 108.41 124.74 108.77 125.09 109.39 125 109.76 125.33 110.13 125.71 110.63 125.8 111.07 126.04 111.57 126.11 112.09 126.03 112.51 126.36 112.96 126.68 113.45 126.81 113.95 126.85 114.46 126.63 114.96 126.49 115.45 126.58 115.93 126.4 116.46 126.76 116.92 126.45 117.42 126.43 117.95 126.53 118.38 126.18 118.87 126.09 119.25 125.7 119.77 125.68 120.17 125.37 120.66 125.24 120.99 124.82 121.6 124.86 122.02 124.6 122.31 124.15 122.58 123.7 122.91 123.34 123.5 123.25 123.78 122.84 124.03 122.39 124.47 122.13 124.91 121.84 125.12 121.37 125.35 120.93 125.69 120.56 126.02 120.17 126.15 119.67 126.23 119.16 126.64 118.79 126.86 118.35 126.99 117.86 126.94 117.33 127.29 116.91 126.96 116.33 127.51 115.93 127.17 115.37 127.55 114.92 127.33 114.4 127.72 113.93 127.63 113.43 127.29 112.94 127.43 112.44 127.49 111.94 127.12 111.49 127.17 111 127.22 110.48 127.05 110.02 126.89 109.56 126.77 109.07 126.54 108.64 126.68 108.04 126.04 107.79 126 107.26 125.96 106.72 125.59 106.37 125.48 105.86 125.11 105.5 124.6 105.26 124.33 104.86 124.23 104.28 123.79 104.02 123.58 103.52 122.92 103.51 122.68 103.04 122.28 102.75 121.88 102.46 121.58 102.01 121.54 101.98 121.06 102.14 120.99 102.13"/>
      <path class="cls-2" d="m114.8,103.98c-4.63,0-8.38,4.19-8.38,9.37s3.75,9.36,8.38,9.36,8.39-4.2,8.39-9.36-3.76-9.37-8.39-9.37Z"/>
      <path class="cls-1" d="m116.41,107.87c0,.88-.72,1.6-1.61,1.6s-1.6-.72-1.6-1.6.72-1.61,1.6-1.61,1.61.72,1.61,1.61Z"/>
      <path class="cls-3" d="m120.42,116.78c-.29-.91-.17-1.62-.17-1.62,0,0-.63.46-.27,2.35.19,1.04-.84,1.88-1.36,1.62-.52-.26.06-.75.08-1.88.02-1.13-.68-1.57-.72-2.58-.05-1.32.78-2.01.78-2.01,0,0-1.66.64-1.69,1.74-.04,1.63-.64,2.67-1.08,2.73-1.04.11-1.27-1.8-.35-3.09,1.35-1.89.01-3.42.01-3.42.31,2.25-.47,1.89-1.56,3.22-.67.8.09,2.26-.72,2.26s-.7-1.11-.17-2.96c.53-1.84-1.24-4.49-1.24-4.49.46,1.96.41,2.98-.11,3.86-.87,1.44-.65,2.37-.54,3.3.1.93.76,2.86-.07,2.79-.84-.07-.2-.79-.54-1.82-.35-1.04-1.15-1.5-1.15-1.5.91,1.84-.57,2.18-.31,4.86,0,.08.02.14.02.22,1.48,1.45,3.42,2.35,5.55,2.35,2.54,0,4.81-1.26,6.34-3.25.23-1.26-.41-1.75-.72-2.69Z"/>
      <polygon class="cls-1" points="80.38 105.13 80.07 104.86 79.65 104.92 79.61 104.91 79.11 104.87 79.09 104.86 78.63 104.78 78.12 104.76 78.08 104.75 77.61 104.61 77.15 104.53 76.62 104.46 76.58 104.44 76.13 104.26 75.72 104.12 75.17 104.11 75.09 104.06 74.74 103.83 74.36 103.87 74.35 103.87 73.72 103.91 73.63 103.85 73.28 103.63 72.82 103.66 72.78 103.65 72.27 103.52 72.25 103.51 71.79 103.34 71.33 103.17 71.32 103.17 70.87 103 70.42 102.88 69.98 102.79 69.44 102.78 69.37 102.75 69.02 102.61 68.49 102.77 68.38 102.71 67.96 102.54 67.53 102.49 66.96 102.46 66.88 102.42 66.5 102.19 66.1 102.13 65.53 102.13 65.45 102.08 65.13 101.9 65.07 102.1 64.44 102.01 64.26 102.62 63.6 102.57 63.18 102.84 62.85 103.22 62.72 103.81 62.3 104.07 61.82 104.31 61.58 104.76 61.17 105.07 61.15 105.67 60.55 105.86 60.54 106.43 60.01 106.7 59.97 107.24 59.56 107.59 59.72 108.21 59.48 108.64 59.36 109.11 58.98 109.51 59.07 110.04 58.7 110.46 58.82 110.99 58.83 111.49 58.66 111.96 58.66 112.45 58.37 112.93 58.32 113.43 58.37 113.93 58.73 114.4 58.67 114.9 58.41 115.44 58.62 115.91 58.69 116.4 59.05 116.82 59.02 117.34 59.1 117.84 59.53 118.21 59.34 118.81 59.97 119.07 59.85 119.68 60.42 119.94 60.65 120.36 60.92 120.77 60.91 121.37 61.46 121.57 61.44 122.22 61.82 122.54 62.09 122.97 62.47 123.3 62.91 123.56 63.2 123.98 63.74 124.11 64.09 124.47 64.4 124.89 64.93 124.99 65.32 125.32 65.83 125.41 66.3 125.55 66.63 126.06 67.18 126.01 67.7 125.99 68.12 126.3 68.56 126.6 69.12 126.3 69.61 126.35 70.07 126.66 70.58 126.4 71.06 126.72 71.56 126.71 72.02 126.34 72.56 126.77 73.07 126.74 73.51 126.4 73.93 126.04 74.49 126.22 74.97 126.1 75.35 125.68 75.78 125.45 76.26 125.33 76.71 125.14 77.13 124.87 77.67 124.83 78.15 124.64 78.32 124.03 78.85 123.9 79.19 123.54 79.49 123.14 79.85 122.81 80.34 122.58 80.7 122.23 80.71 121.61 81.28 121.41 81.52 120.97 81.46 120.36 81.92 120.06 82.01 119.55 82.15 119.08 82.4 118.66 82.76 118.26 83.11 117.86 82.99 117.31 83.33 116.89 83.07 116.33 83.35 115.88 83.41 115.39 83.49 114.9 83.73 114.43 83.4 113.92 83.52 113.43 83.65 112.93 83.8 112.42 83.52 111.95 83.67 111.43 83.5 110.96 83.3 110.49 83.05 110.04 83.22 109.49 82.85 109.08 82.58 108.66 82.68 108.09 82.3 107.71 81.95 107.34 81.87 106.83 81.77 106.31 81.41 105.97 81.14 105.55 80.86 105.28 80.44 105.17 80.38 105.13"/>
      <path class="cls-2" d="m79.44,113.35c0,5.17-3.76,9.36-8.38,9.36s-8.38-4.2-8.38-9.36,3.75-9.37,8.38-9.37,8.38,4.19,8.38,9.37Z"/>
      <path class="cls-3" d="m76.42,114.76s.06,1.99-.19,2.75c-.32,1.01-.84,1.88-1.35,1.62-.52-.26.06-.75.07-1.88.02-1.13-.67-1.57-.71-2.58-.05-1.32.56-2.64.56-2.64,0,0-1.18,1.31-1.47,2.37-.21.76-.33,1.72-.78,1.77-1.03.11-1.34-1.23-.42-2.52,1.35-1.88.12-3.89.12-3.89.33,2.24-.07,1.84-1.47,3.59-.65.82-.24,2.98-1.18,2.83-.53-.09-.58-1.34-.12-2.28.46-.94-.56-3.39-.56-3.39.11,1.41-.17,1.92-.91,2.62-.74.7-.56,1.76-.46,2.69.11.93.88,2.49-.06,2.79-.96.31-.57-2.2-.57-2.2-.63,2.33-1.69,1.06-1.43,3.74,0,.08.01.14.01.22,1.48,1.45,3.42,2.35,5.55,2.35,1.99,0,3.8-.77,5.24-2.06.17-.49.4-1.05.71-1.61.7-1.26-.59-4.29-.59-4.29Z"/>
      <path class="cls-1" d="m72.66,107.87c0,.88-.72,1.6-1.6,1.6s-1.61-.72-1.61-1.6.72-1.61,1.61-1.61,1.6.72,1.6,1.61Z"/>
    </g>
  </g>
</svg>