<?xml version="1.0" encoding="utf-8"?>
<!-- Generator: Adobe Illustrator 25.0.0, SVG Export Plug-In . SVG Version: 6.00 Build 0)  -->
<svg version="1.1" id="レイヤー_1" xmlns="http://www.w3.org/2000/svg" xmlns:xlink="http://www.w3.org/1999/xlink" x="0px"
	 y="0px" viewBox="0 0 104 54" style="enable-background:new 0 0 104 54;" xml:space="preserve">
<style type="text/css">
	.st0{fill:#F8BC00;}
	.st1{fill:#153E87;}
</style>
<g>
	<g>
		<rect x="53.8" y="4.1" class="st0" width="46.8" height="45.9"/>
		<path class="st1" d="M0.4,1v52h103.2V1H0.4z M100.5,49.9H53.8V4.1h46.8L100.5,49.9L100.5,49.9z"/>
		<path class="st0" d="M14.9,40.9h3.5v-2.4h-3.7c0-0.2,0-0.5,0-0.8H18v-5.2H6.2c0,0,0,7.7,0,10.3L5.5,43v2.9l6.4-1.2l-0.3-2.5
			L9,42.5v-1.6h3c0.3,2.1,1.8,4.6,5.2,4.6c0.5,0,0.8,0,0.8,0l0.6-2.4C16.8,43.3,15.3,42.8,14.9,40.9z M9.1,38.5v-0.8h2.7
			c0,0.2,0,0.5,0,0.8H9.1z M9.1,35.6v-0.7h6.2v0.7H9.1z"/>
		<path class="st0" d="M28.9,40.9h4.2v-2.6h-4.2v-1.5h4.5v-2.6l0,0h-4.3l0.5-0.8c-0.4-0.3-3.8-2.5-3.8-2.5l-1.5,2.3
			c0.2,0.1,0.8,0.5,1.5,1h-4.7l0,0l0,0v2.6h4.5v1.5h-4.2v2.6h4.2v1.9h-4.7v2.6l0,0h12.8v-2.6H29L28.9,40.9L28.9,40.9z"/>
		<path class="st0" d="M47.2,40.7v-3.2h1.2v-4h-1.6l0.4-1.3l-2.6-0.8L44,33.6h-0.6v-2.3h-2.7v2.3h-0.4l-0.7-2.1L37,32.3l0.4,1.3
			h-1.7v4H37v3.8h1.7c0,0-0.8,1.5-3.4,1.5c0.7,1.5,1.4,2.8,1.4,2.8s4.4-1,4.9-4.3h1c0,1,0,1.5,0,2.5c0,0.8,0.2,1.6,1.7,1.7
			c1.5,0.1,2.9,0,3.3-0.1c0.9-0.2,1.6-0.6,1.6-4.4C48.1,40.9,47.6,40.8,47.2,40.7z M38.3,36.4v-0.7h7.6v0.7H38.3z M44.6,39.2h-5
			v-0.7h5V39.2z M46.3,42.1c0,0.6-0.1,0.9-0.6,0.9c-0.6,0-0.7-0.1-0.7-0.9c0-0.1,0-0.6,0-0.7h1.2C46.3,41.6,46.3,41.9,46.3,42.1z"/>
		<path class="st0" d="M43.1,20.8h5.3v-3.7h-5.7c0-0.4-0.1-0.7,0-1.2h5.2V8H29.8c0,0,0,11.8,0,15.8L28.7,24v4.4l9.9-1.8l-0.4-3.8
			l-4,0.5v-2.5h4.6c0.5,3.3,2.7,7,7.9,7.1c0.8,0,1.2-0.1,1.2-0.1l0.9-3.8C46.1,24.5,43.7,23.7,43.1,20.8z M34.2,17.2V16h4.1
			c0,0.4,0,0.7,0,1.2H34.2z M34.2,12.6v-1.1h9.6v1.1H34.2z"/>
		<path class="st0" d="M26.1,7.9H5.5v20.4h20.6V7.9z M22.1,24.9H9.5V11.3h12.6V24.9z"/>
		<path class="st0" d="M21.1,21l-0.5-1.7h0.5v-2.8h-3.5V15h3.5v-2.8H10.5V15H14v1.5h-3.5v2.8H14V21h-3.5v2.8H21V21H21.1z M17.6,19.3
			h0.7l0.4,1.7h-1.1V19.3z"/>
		<path class="st1" d="M85.5,16.2c0-0.3,0.7-0.8,2.2-1.9c1.5-1.2,5.6-4.4,6-4.7l-4.2-2.9c0,0-3.2,2.7-6.1,5.2s-3.3,3.2-3.3,4.5
			s0.7,2.1,2.8,3.5c2.2,1.4,6.7,4.6,8.1,5.7c1.7-1.4,3.9-3.4,3.9-3.4s-5.8-3.6-7.2-4.4C86.4,16.9,85.5,16.4,85.5,16.2z"/>
		<rect x="61" y="9" class="st1" width="12.6" height="4.2"/>
		<path class="st1" d="M92.6,36.4c0.5,5.6-1.8,5.1-1.7,4c0.1-1.2,0.1-2.8-0.5-4.2S88,34.7,87,35l1.9-6h-4.5l-5,16.2h4.4l1.7-5.5
			c0.8-1.2,1.5-0.4,1.3,0.5c-0.6,3.8,1.9,5.5,4.7,5.5c6.1,0,5.1-8.1,5.1-8.1S94.8,37.1,92.6,36.4z"/>
		<path class="st1" d="M74.3,36.3c0-1.2,0-2.6-0.2-3.9c-2.4,0-3.8,0-3.8,0s0.2,1.1,0.2,2.7c-0.5-0.1-1.2-0.2-1.9-0.3
			c0,0,0.1-1.9-0.4-5.1c0,0-4.3-0.4-8.4,0.1l0.3,3.8c2.1-0.2,4.4-0.1,4.4-0.1c0.1,0.5,0,1.3,0,1.3l0,0c-8.5,0.5-7,9.9-1.8,9.9
			c4.1,0,5.3-4,5.7-5.8c0.5,0,1.2,0.1,1.7,0.2c-0.6,2.8-1.4,4.2-3.5,6.4c1.9,0,3.2,0,5,0c0,0,1.4-1.8,2.1-4.9
			c1.5,0.9,2.3,1.7,2.3,1.7v-4.6C76.1,37.5,75.5,36.9,74.3,36.3z M62.3,40.5c-0.6-0.7,0.3-2.4,2.1-2.1C64,40.6,62.9,41.1,62.3,40.5z
			"/>
		<path class="st1" d="M65.8,19.8c-1.3-0.3-1.7-1.3-0.4-2.7c-1.1-0.8-3.5-2.2-3.5-2.2s-6.2,6.7,2,9.1c3.4,1,10.2,0,10.2,0v-4.2
			c-1.2,0.2-2.3,0.3-3.8,0.3C68.1,20.2,66.8,20.1,65.8,19.8z"/>
	</g>
</g>
</svg>
